/* XPM */
static char *result[] = {
/* columns rows colors chars-per-pixel */
"64 64 136 2 ",
"   c black",
".  c #010101",
"X  c #040301",
"o  c #151514",
"O  c #161615",
"+  c #171716",
"@  c gray9",
"#  c #181817",
"$  c #1C141A",
"%  c #191918",
"&  c #1A1A19",
"*  c #1B1B1A",
"=  c #1C1C1B",
"-  c #1D1D1C",
";  c #1E1E1D",
":  c #36260F",
">  c #272727",
",  c #2E262D",
"<  c #282828",
"1  c gray16",
"2  c #2A2A2A",
"3  c gray17",
"4  c gray20",
"5  c #343434",
"6  c #353535",
"7  c gray21",
"8  c #373737",
"9  c gray22",
"0  c #393939",
"q  c #3A3A3A",
"w  c gray23",
"e  c #3C3C3C",
"r  c #553A16",
"t  c #573B17",
"y  c #573C1A",
"u  c #573D1A",
"i  c #6E4620",
"p  c #724921",
"a  c #744A22",
"s  c #444444",
"d  c gray27",
"f  c #474544",
"g  c #464646",
"h  c gray28",
"j  c #484644",
"k  c #484848",
"l  c #494949",
"z  c gray29",
"x  c #4B4B4B",
"c  c #4C4C4C",
"v  c gray31",
"b  c #505050",
"n  c #515151",
"m  c gray32",
"M  c #535353",
"N  c #555250",
"B  c gray33",
"V  c #555555",
"C  c #565656",
"Z  c gray34",
"A  c #585858",
"S  c gray35",
"D  c #5A5A5A",
"F  c #5B5B5B",
"G  c gray36",
"H  c #5D5D5D",
"J  c gray37",
"K  c gray38",
"L  c gray42",
"P  c #6C6C6C",
"I  c #6D6D6D",
"U  c gray43",
"Y  c #6F6F6F",
"T  c gray44",
"R  c #717171",
"E  c #727272",
"W  c gray45",
"Q  c gray46",
"!  c gray47",
"~  c #797979",
"^  c gray48",
"/  c #7B7B7B",
"(  c #7C7C7C",
")  c gray49",
"_  c #7E7E7E",
"`  c gray50",
"'  c #808080",
"]  c gray51",
"[  c #888888",
"{  c #898989",
"}  c gray55",
"|  c #8D8D8D",
" . c #8E8E8E",
".. c gray57",
"X. c #929292",
"o. c #939393",
"O. c gray58",
"+. c #959595",
"@. c #989898",
"#. c gray60",
"$. c #9A9A9A",
"%. c gray61",
"&. c #A2A2A2",
"*. c gray64",
"=. c #A4A4A4",
"-. c gray65",
";. c #A7A7A7",
":. c gray66",
">. c #A9A9A9",
",. c #AAAAAA",
"<. c gray67",
"1. c #ACACAC",
"2. c gray68",
"3. c #AEAEAE",
"4. c #AFAFAF",
"5. c #B4B4B4",
"6. c gray71",
"7. c #B6B6B6",
"8. c gray72",
"9. c #B9B9B9",
"0. c gray73",
"q. c #BBBBBB",
"w. c gray74",
"e. c #C0C0C0",
"r. c #C1C1C1",
"t. c gray76",
"y. c #C8C8C8",
"u. c #CECECE",
"i. c gray81",
"p. c #D0D0D0",
"a. c #D2D2D2",
"s. c #D8D8D8",
"d. c gray85",
"f. c #DADADA",
"g. c gray86",
"h. c gainsboro",
/* pixels */
"o o o o o o o o o o o o o o o o o o o o o o o o o o o o o o o o o o o o o o o o o o o o o o o o o o o o o o o o o o o o o o o $ ",
"9 R E ) ) _ |  .#.#.$.,.6.6.7.r.r.r.r.r.r.e.6.6.6.5.>.:.#.@.| } ) ) ) ) ( R R R R T G G G G M M M m g h M M M G G G H R R R P $ ",
"k R R E ) ) _  .#.#.$.>.>.>.,.7.r.r.r.r.r.e.6.6.6.5.>.:.#.@.| | } ) ) ) ( R R R R T G G G G M M M m g h M M M M G G G H R R P $ ",
"k Y l ( R E _ | | | { l ` >.,.7.r.r.r.r.q.l ' r.e.5.>.>.>.:.+.l _ } ) ) ( R R R Y l / G G G G M M M n 0 ^ g h M G G G F l ( P $ ",
"k I 2 k R E _ | | | [ 2 x >.,.6.6.7.r.r.9.2 c r.e.6.6.5.>.:.o.2 z | } ) ) ( R R I 2 k R T G G M M M n 1 7 g h M G G G S 2 k P $ ",
"M H R R R E ) _ | |  .$.>.>.>.,.6.7.r.r.r.r.r.r.e.6.6.5.>.:.#.@.| | } ) ) ( R R R R R R T G G G M M m g g g h M M M M G G H P $ ",
"M H R R R R E ) ) ) _  .#.#.$.,.6.6.6.7.r.r.r.r.r.e.6.5.>.>.>.:.@.| } ) ) ( R R R R R R R T G G G G M M m g g h M M M M G G A $ ",
"M H R R R R E ) ) ) _  .#.#.$.,.6.6.6.7.r.r.r.r.r.r.r.e.6.5.>.:.#.#.@.| } ) ) ) ( R R R R T G G G G M M m g g h M M M M G G A $ ",
"M G H R R R E ) ) ) _  .#.#.#.$.>.,.6.7.r.r.r.r.r.r.r.e.6.5.>.:.#.#.@.| } ) ) ) ( R R R R T G G G G M M m g g g g g h M G G A $ ",
"M M H R R R R E ) ) ) _ | |  .$.>.*.6 6 6 6 6 6 6 6 6 6 6 5 < < < < < < < < < < < < < < < < 3 G G G G M M M m g g g h M M M A $ ",
"M M G G G H R E ) ) ) _ | | |  .$.<.y.< < < < < < < < < < > o o o o o o o o o o o o o o o ; w.T G G G G M M m g g g h M M M A $ ",
"M M G G G H R E ) ) ) ) _ | |  .#.$.7.i.>.>.>.:.#.@.| } ) ) ) ) ( R R T G G G G G G G M S e.-.R R T G G G M M M m g g h M M A $ ",
"M m l / G G H R R R Y k E ) _  .#.$.,.7.p.6.5.:.#.#.#.@.| } ) ) ( R R R R R T G G G G K e.-.R R R T F l / M M M m g g d 0 / b $ ",
"m s 2 h G G H R R R I 2 l ) _ | |  .#.$.7.p.6.5.>.:.#.@.| } ) ) ) ) ( R R R R T G G K e.-.R R R R T S 2 h G G M M m g s 1 7 n , ",
"m h M G G G H R R R E ) ) ) _ | |  .#.$.,.t.p.5.>.:.#.@.| } ) ) ) ) ( R R R R T G K e.;.) ( R R R R T G G G G M M m g g g h n , ",
"m h M M M M G H R R R E ) ) ) _ |  .#.#.$.,.t.i.>.>.>.:.#.@.} ) ) ) ( R R R R T K e.;.) ) ( R R R R T G G G G M M m g g g h n , ",
"m g h M M M G H R R R R R R E ) ) _ |  .$.>.,.t.p.5.>.:.#.@.| | } ) ) ( R R R Q e.;.) ) ) ) ) ( R R T G G G G G G M M M m g s , ",
"m g h M M M G H R U 6 9 R R E ) ) _ |  .$.>.,.7.t.i.>.:.#.@.| | } ) ) ( R R Q e.:.| | | } ) ) ( R R R R T G G G G M M M m g s , ",
"m g h M M M M G G D 5 1 9 R E ) ) _ | |  .#.$.>.,.t.i.>.>.:.@.| } ) ) ( R Q e.5.@.| | | } ) ) ( R R R R T G G G G M M M m g s , ",
"m g g g g h M M G D 4 o + 9 R E ) ) ) _  .#.$.>.>.,.t.i.>.:.#.#.@.| } ) ] h.i.>.:.@.| | } ) ) ) ) ( R U 4 % G G G G M M M m s , ",
"m g g g g h M M G D 4 = X.+ 9 E ) ) ) _  .#.$.>.>.>.,.t.i.:.#.#.@.| } ] h.i.>.>.:.#.#.#.@.} ) ) ) ( U 4 * } T G G G G G G m s , ",
"M n 0 ^ g g h M G D 4 *  .X.+ 9 R E ) ) _ |  .#.$.>.,.7.t.i.:.#.@.| ..h.p.5.>.>.:.#.#.#.@.} ) ) ) ~ 4 & E } T G G G G F l ^ s , ",
"M n 1 7 g g h M M n 4 * |  .X.+ 9 E ) ) _ |  .#.$.>.>.,.7.t.u.#.#.%.h.p.e.6.6.6.5.:.#.#.@.} ) ) ~ 4 # B E } R R T G G S 2 h n , ",
"M M M m g g g h M n 4 * |  .#.X.+ 9 R E ) ) _ |  .#.$.,.6.7.t.f.1.h.p.r.r.e.6.6.5.>.>.>.:.@.| { 4 % G B E } R R T G G G G G n , ",
"M M M m g g g h M n 4 & ) ) ) ) ! + 9 E ) ) _ |  .#.$.,.6.6.7.a.h.p.r.r.r.e.6.6.6.5.>.>.:.@.{ 4 % G G B E } R R R T G G G G n , ",
"M G M M m g g g g d 0  .#.#.#.#.#.O.9 E ) ) _ |  .+.l ` >.>.,.7.p.r.r.r.q.l ' 6.6.5.>.>.:.O.4 % G G G H E } R R R T G G G G n , ",
"M G M M m g g g g h M M M G G H R R R R E ) ) ) _ [ 2 x >.>.,.6.6.6.7.r.9.2 c r.e.6.6.6.3.4 & R T G G H W @.( R R T G G G G S , ",
"h G M M b o o O 2 h M M M M G H R R R R E ) ) ) _ |  .$.>.>.,.6.6.6.7.r.r.r.r.r.r.e.6.3.4 & R R T G G H W @.( R R R R R T G S , ",
"h G G G v . o O 2 g h M M M M G G H R R E ) ) ) _ | |  .#.#.$.,.6.6.6.7.r.r.r.r.r.e.3.4 & ( R R T G G H W @.( R R R R R T G S , ",
"h G G G v . o O 2 g h N a p u G G G G H R R E ) ) ) _  .#.#.$.>.>.>.,.7.r.r.r.r.r.0.4 & ) ( R R R R T H W @.) ) ( R R R R T S , ",
"h G G G v . o + 7 g g j i X u G G G G H R R E ) ) ) _  .#.#.$.>.>.>.,.7.r.r.r.r.0.4 & ) ) ( R R R R T H W @.) ) ( R R R R T S , ",
"k Y l / Z . o + 7 g g j i X y M G G G H R R E ) ) ) ) _ | |  .$.>.>.,.6.7.r.r.0.4 * } ) ) ) ) ( R R T H W @.) ) ( R R Y l / S , ",
"k I 2 h Z . o + 7 m g j i X y M M M G G H R R R E ) ) _ | |  .$.>.>.>.,.7.r.r.t.f.#.@.} ) ) ) ( R R R E _ @.} ) ) ( R I 2 k I , ",
"k R R T Z . o + 7 m g j i X y M M M G G H R R R E ) ) _ | |  .$.>.>.>.,.7.r.r.t.a.f.@.} ) ) ) ( R R R E _ @.} ) ) ( R R R R I , ",
"k R R T Z . o @ h M m f t r : M M M G G H R R R E ) ) ) ) ) _  .#.#.$.,.6.6.6.7.t.a.d.} ) ) ) ) ( R R E _ @.} ) ) ( R R R R I , ",
"k R R T Z . o + 7 M m g g g g h M M M M G G H R R R E ) ) ) _  .#.#.#.$.,.6.6.7.r.t.a.d.| } ) ) ) ) ( E _ @.| | } ) ) ) ( R I , ",
"k R R R L   . @ h M m g g g g g g h M M G G H R R Y z } ) ) ) _ | |  .$.=.l ` ,.7.r.t.a.d.| | } ) ) ( E ` :.@.| } ) ) ) ( R I , ",
"k R R R T F g d 8 G M M M m g g g h M M G G H R R I 2 l ) ) ) _ | |  .$.&.2 x ,.7.r.r.t.a.d.| } ) ) ( E ` :.#.#.@.} ) ) ) ( I , ",
"l ( R R R T G G G D 6 6 6 6 6 6 6 0 / M M G G G H R R E ) ) ) _ | | |  .$.>.>.,.6.6.7.r.t.a.d.} ) ) ) _  .:.#.#.@.} ) ) ) ( I , ",
"l ( R R R R T G G D 4 o o o o o # V ^ h M M M G H R R R R R E ~ 6 0 _  .$.>.>.>.,.6.7.r.r.t.a.d.} ) ) _  .>.:.#.@.} ) ) ) ) ~ , ",
"l ( R R R R T G G D 4 # M G G J } ^ g h M M M G H R R R R R U 4 o + 0  .$.>.>.>.,.6.7.r.r.r.t.a.s.) ) _  .>.>.>.:.@.| | } ) ~ , ",
"l ^ l ( R R T G G D 4 # M M J } ^ g g g h M M G G G H R R U 4 - ,.2.+ 0  .#.#.$.,.6.6.6.7.r.r.t.a.s.) _  .>.>.>.:.@.| { k E ~ , ",
"l ~ 2 k R R R R T D 4 # M C } ^ g g g g h M M M M G H R U 4 - >.,.7.8.+ q #.#.$.>.>.,.6.7.r.r.r.t.a.s._  .,.5.>.:.@.| [ 2 l ~ , ",
"0 ) ) ( R R R R T D 4 @ z } / m g g g g h M M M M G H U 4 - >.>.,.6.7.8.+ q #.$.>.>.,.6.7.r.r.r.r.t.a.d. .,.5.>.>.:.#.#.@.} ~ , ",
"0 ) ) ) ( R R R R U 4 * } / G M M M m g g g h M M M n 4 = $.>.>.>.,.7.r.8.+ 0  .$.>.,.6.6.6.7.r.r.r.t.a.f.,.5.>.>.:.#.#.@.} ~ , ",
"0 } ) ) ) ) ( R R U 7 V / G G G M M M m g g h M M n 4 *  .$.>.>.>.,.7.r.r.8.+ q #.#.$.>.,.6.7.r.r.r.r.t.a.g.6.6.5.:.#.#.@.| [ , ",
"0 | | } ) ) ( R R U 0 / G G G G M M M m g g h M n 4 & ) _  .#.#.$.,.6.6.6.7.8.+ q #.$.>.,.6.7.r.r.r.r.r.r.r.e.6.6.5.>.>.:.@.[ , ",
"0 | | } ) ) ( R R R R T G G G G M M M m g g g d 4 & ) ) _  .#.#.#.$.,.6.6.7.r.8.+ q $.>.>.>.,.7.r.r.r.r.r.r.e.6.6.5.>.>.:.@.[ , ",
"q @.| } ) ) ) ) ( R R T G G G G G G G M m g d 4 & E ) ) ) _ | |  .$.>.>.>.,.7.r.8.+ q #.$.>.,.6.6.6.7.r.r.r.r.r.e.5.>.>.:.#.o., ",
"q #.#.@.} ) ) ) ( R R R R R T G G G G G m d 4 & R E ) ) ) _ | |  .$.>.>.>.,.7.r.r.8.+ q $.>.>.,.6.6.7.r.r.r.r.r.e.6.6.6.5.:.o., ",
"q +.l _ } ) ) ) ( R Y l ( R T G G G G G n 4 & R R E ) ) ) _ | | |  .$.>.>.,.6.6.7.r.8.+ w >.>.,.6.6.4.l ' r.r.r.r.e.6.4.l ` &., ",
"w &.2 z } ) ) ) ) ) ~ 2 k R R T G G G D 4 % H R R R R R E ) ) ) _  .$.>.>.>.,.6.7.r.r.8.+ q $.,.6.6.3.2 c r.r.r.r.e.6.3.2 x &., ",
"w :.#.#.@.| } ) ) ) ( R R R R T G G D 4 % G H R R R R R E ) ) ) _  .$.>.>.>.,.6.7.r.r.r.8.+ q $.>.>.,.7.r.r.r.r.r.r.r.r.e.5.&., ",
"w :.#.#.@.| } ) ) ) ( R R R R T G G A & ) ) ) ) ) ) ) ) ) ) ( R R R R R R R R R R R R R R P = $.>.>.,.7.r.r.r.r.r.r.r.r.e.5.&., ",
"w 5.>.:.@.| | | } ) ) ( R R R R R R W #.#.#.#.#.#.#.#.#.#.@.| | | | | | | | | | | | | | | |  .$.>.>.,.6.7.r.r.r.r.r.r.r.e.5.&., ",
"w 5.>.>.:.#.@.| } ) ) ( R R R R R R R T G G G G M M m g g g h M M M M G H R R R E ) ) ) _ | |  .#.#.$.,.7.r.r.r.r.r.r.r.r.e.3., ",
"w 5.>.>.:.#.@.| } ) ) ( R R R R R R R T G G G G M M m g g g h M M M M G H R R R E ) ) ) _ | |  .#.#.$.,.7.r.r.r.r.r.r.r.r.e.3., ",
"w 6.6.5.:.#.@.| | | } ) ) ) ( R R R R T G G G G M M m g g g g h M M M M H R R R R R E ) ) ) _  .#.#.$.>.,.6.6.7.r.r.r.r.r.e.3., ",
"e e.6.6.5.>.:.#.@.| } ) ) ) ( R R R R R T G G G G M M M m g g h M M M M G G G H R R E ) ) ) _ | | |  .$.,.6.6.6.7.r.r.r.r.r.9., ",
"e q.l ' 5.>.:.#.#.#.+.k E ) ) ( R R R R Y l / G G M M M m g d 0 ^ g h M M G G G F l ( R E ) ) _ | | { l ` >.>.,.7.r.r.q.l ' 9., ",
"e 9.2 c 5.>.:.#.#.#.o.2 l ) ) ) ) ( R R I 2 h G G M M M m g s 1 7 g h M M G G G S 2 k R E ) ) ) _ | [ 2 x >.>.,.7.r.r.9.2 c 9., ",
"e r.r.e.6.6.5.>.:.#.@.} ) ) ) ) ) ) ( R R R R T G G G M M M m g g g g h M G G G H R R R E ) ) ) ) ) _  .$.>.>.,.6.6.6.7.r.r.9., ",
"e r.r.r.e.6.5.>.>.>.:.@.| | } ) ) ) ( R R R R T G G G G G M M m g g g h M M M M G G H R R R E ) ) ) _  .#.#.#.$.,.6.7.r.r.r.9., ",
"o o o o o o o o o o o o o o o o o o o o o o o o o o o o o o o o o o o o o o o o o o o o o o o o o o o o o o o o o o o o o o o $ "
};
