/* XPM */
static char *eff8412a858244c9c6619cb63516c434gUCKLXAvw7I8X8oN[] = {
/* columns rows colors chars-per-pixel */
"64 64 104 2 ",
"   c #0D2B45",
".  c #0E2C46",
"X  c #0F2D47",
"o  c #112D47",
"O  c #122E48",
"+  c #132E48",
"@  c #162F49",
"#  c #163049",
"$  c #15324C",
"%  c #16334D",
"&  c #17344E",
"*  c #19314A",
"=  c #1C334B",
"-  c #18354F",
";  c #1A344E",
":  c #1A354F",
">  c #1B3650",
",  c #1D3650",
"<  c #1E3751",
"1  c #1E3A54",
"2  c #1F3B55",
"3  c #203C56",
"4  c #233D57",
"5  c #2B3A54",
"6  c #2D3B55",
"7  c #2E3C56",
"8  c #263E58",
"9  c #263F58",
"0  c #323E58",
"q  c #343E58",
"w  c #363F59",
"e  c #2A4059",
"r  c #34425C",
"t  c #35425C",
"y  c #35435D",
"u  c #36445E",
"i  c #37445E",
"p  c #38445E",
"a  c #3D4660",
"s  c #3D4760",
"d  c #3E4660",
"f  c #3E4760",
"g  c #47475D",
"h  c #48485E",
"j  c #49495F",
"k  c #4B495F",
"l  c #7A5F58",
"z  c #414861",
"x  c #444962",
"c  c #454A62",
"v  c #4E4B60",
"b  c #4F4B61",
"n  c #4B4A64",
"m  c #4D4B65",
"M  c #4F4E64",
"N  c #4F4F65",
"B  c #4E4C66",
"V  c #504C61",
"C  c #564E63",
"Z  c #504C66",
"A  c #514D67",
"S  c #544E68",
"D  c #544F68",
"F  c #525067",
"G  c #575267",
"H  c #575069",
"J  c #555268",
"K  c #575268",
"L  c #585069",
"P  c #585368",
"I  c #585369",
"U  c #5B516A",
"Y  c #5F5368",
"T  c #5C556A",
"R  c #5E566B",
"E  c #635466",
"W  c #64556B",
"Q  c #65566C",
"!  c #69586F",
"~  c #6C5A70",
"^  c #6D5A70",
"/  c #6E5A70",
"(  c #6E5B70",
")  c #705B71",
"_  c #735D72",
"`  c #755D72",
"'  c #7F6275",
"]  c #BA7858",
"[  c #9B6D66",
"{  c #9E6E67",
"}  c #806476",
"|  c #856577",
" . c #866678",
".. c #876678",
"X. c #896779",
"o. c #8A6779",
"O. c #8D697A",
"+. c #956C76",
"@. c #916A78",
"#. c #946D78",
"$. c #AA7369",
"%. c #AA736C",
"&. c #C87E5D",
"*. c #D08159",
/* pixels */
"              . %   .                                       %                                                                   ",
"%             . %   . .                 % > %           . . %                                             .                 . # ",
"t   o 7 % % . , k V k k V k k V g % %   % , 8 b V k k b V k k b k b c @   , h %           , b k k V b k V k k b b k V V k b c 8 ",
"t   O s I I V R O.O.O._ O.O.O.O.X.I L n b k R X.O.O.O.O.O.O.O.O.@.O.X.I V R | I b b b b b R O.O.O.O.O.O.O.O.O.O.O.O.O.O.O.O.} 8 ",
"t   # R O.O.O.O.O.o.! U O.o._ O.O.X.( _ ( _ O.O.X._ ( ) ) ) ) _ O.O.O.O._ O.O.O.O.O.O.O.O.O.O.O.O.O.O.O.O.O.O.O.O.O.O.O.O.O.} 4 ",
"t   = X.( ( ) ) ! / L L ) ) G ! ) ( S S S S _ ( _ Z S S S S S L ) ) / ! I ) ) ) ) ) ) ) ) ( ` ( _ _ O.O.O.X.) ) ) ) ) _ O.O.} 4 ",
"%   =  .S S S Z t D S S S D D D S S S S S S S S Z S S S S S S S D D S S S S D D S S S S S S S S Z I ) ) ) ( S S S S S I ( O.} 3 ",
"%   = | S S S m , D S S S D D D S Z s S s S S S J S S S S S S S S S S S S S D D S S S S S S S S S S S S S S S S S S S S U #.{ 3 ",
"1   =  .S S S A g Z S S S S S S Z s 8 ~ s S S S S S S S S S S S S Z s S S S S S S S S S s S S S S S S S S S S S S S S S _ +.] 8 ",
"%   = X.( S S S D D S S S S Z s w % 8 ( S S S S S S S S S S S S S Z 8 S S S S S S S Z p s S S S S S S S S S S S S S S W O.+.] % ",
"    = O...S S S D S S S S p 5 % % 3 S S S S Z w S S S S S S S S S S I S S S S S S S Z 8 ( A S S S S S S S S S S S S S S _ @.[ % ",
"    * ) ..S S S D S S Z s D b b m 8 ( S S S m , S S S S S S S S S S / S S S S S S S S x ..S S S S S S S S S S S S S S S U %.' 4 ",
"    @ U ..A S S S S S Z z ( ) ) ! s S S S S S s S S S S S S S S S S S S S S S S S S S ` ^ S S S S S S S S S S S S S S S E &.} 4 ",
"  % * ` ..S S S S S S S S S S S S S S S S S S S S S S S A A S S S S S S S S S S S S I ( S S S S S S S S S S S S S S S S E %.' 2 ",
"  % = O...S Z s S S S S S S S S S S S S S S S S S S S S s s Z F S S S S S S S S S S S S S S S S S S S S S S S S S S S S U O.' 4 ",
"    = O...S A s s S S S S S S S S S S S S S S S S S S Z s s J S S S S S S S S S S S S S S S S S S S S S S S S S S S S S U X.' > ",
"%   = X.Z s p t 4 s s B A A B B s a a a a a a m B S S S S S m Z B B B s a a s A A m s s m m S s B s m s f s u s s m f f f J R X ",
"1   @ x 3 3 3 3 1 8 s a a a a s 2 2 2 2 1 1 1 a z p s S m s z p a a s 1 1 3 1 a s s 1 8 s s s 8 s 3 s 3 2 2 2 2 1 s 2 1 2 e B - ",
"%       1 1 > % 1 3 s 1 % 1 2 1 2 & & 2 - 1 2 2 3 1 8 p s 3 1 3 2 2 % & % 3 > 1 1 3 1 1 3 3 4 1 3 1 1 3 1 2 2 1 1 1 3 1 2 4 B 2 ",
"        > %     % % @ % . % & % @ . . $ X & - - % % % % % % % % & @ . . . @ . & % % % % % % % % % % % % & & & & % % > % & & a $ ",
"                                        X X                                     .                           .             - 2 - ",
"& % . & % & & & % > 5   , 5     X & $     & % $     ; & % % %                   . . % %         O       . % & ;       . - 2 2 2 ",
"1 %   & % 1 % % % = 5   > t %   X $ $   X & 1 2 %   % = % % %           .         . % %                 . & & 3 & & & . & & - 2 ",
"G b b b b J b b b x %   O s 1   X & r B m B J J L V k n V x % . , c B m z % %                 ; c b b b b k k I I J J v b b b l ",
"_ O.X._ O.O.O.O.O.X.Z %   5 3   - f _ O.O.O.X.` O.O.X._ O. .B , I O.O.O. .J Z =   , V b b k V W O.O.O.O.O.O.O.O.O.O.O.O.O.O.+.*.",
"J ( ( S ) ` X.) O.O. .Z @ 5 % O f _ _ O.X.( ( S ) ) ( S ( ( ( z ` O.O.( ( _  .J m R X.) _ X.` O.O.O.O.O.O.O.O.O.O.O.O.O.O.O.+.*.",
"S S S S S I ( S ( _ X.W @ n   O J  .J _ ( S S S S S S S S S S S I ( ( S S J _ ( _ ( ( S S ) D ) ) _ X.) ) _ X.) ( _ ~ I _ _ @.$.",
"S S S S S S S S S G _ W O 5   = ) ( S S S S S S S S S S S S S S S S S S S S S S S S S S S S D D S S ( S S S ! s S S B f D Z _ ! ",
"S S S S S S S S S S U ` @ =   =  .S S S S S S S S S S S S S S S B 7 q S S S S S S S S S S S S S S S S S S S Z s S S S S D s S S ",
"S S S S S S S S S I ` }   1   =  .S S S S S S S S S S A S S S S m % > 7 5 w S S S S S S S S S S S S S S S S S S S Z s S p z S S ",
"s S S S S S S S S I O.} o 1   = X.( S S S S S S S S S A S S S S S s B , & , s S S S S S S S S S S S S S S S S S S S s Z s S S S ",
"4 s S S S S S S S L ` `   %   = O.X.S S S S S S S s s s S S S S S S W s s s s S S S S S S S S S S S S S S S S S S S S S Z s S S ",
"s 8 S S S J S S D L ` } o 5   = _ X.S S A D D D S S 3 4 s S S S S S S S S S S S S S S S S S S S S S S S S S J S S S S S B 8 S S ",
"s 8 S S S S S A D D ` } o r   % _ ..S S S D D D S ( U U S s J S S S S A S S S S S S s A S S S S S S S S S S S S S S S S B 4 s S ",
"s A S S S S B I D D U _   1   = X.~ S S S S D D S J ( ^ ( s S S S S S t w S S S S B s s S S S S S S S L ( _ ( S S S S S B s s S ",
"S ~ S S S S S S S L ( ' O 1   = X.~ S S S S D D S S S S S S A L S S A a w S S S S S B s S S S S S S S _ O.X.~ S S S S S _ ` ( S ",
"S S S S B B s s S L O.` . %   = O.X.D A a B S J S S S S S S S A S B S S S S S S S S S B S S S S S S S ( ( ( S S B B S S ( ! ! S ",
"S S S B s s 2 3 g a R '       = ..A a d 9 S F B S S S S A B S B s s s s S S S S B B s s s s S S S s B a s A A A B s s a s a a s ",
"a a S a 1 2 1 4 4 1 8 g . &   @ B 2 2 1 2 a a s a a s s a a a B s s 2 3 a a A a s s 1 1 1 4 s t s 3 a 1 8 s s s a 3 3 4 2 2 2 2 ",
"2 2 a 2 8 1 3 1 1 1 %   ; 1     & % & & 2 2 > 1 1 % & 2 2 2 3 a s 8 2 1 1 3 a 1 1 1 > % % % % % % 3 1 3 1 3 1 3 3 3 3 3 3 2 2 2 ",
"$ $ $ - $ $ - $ : &   o 1 &           . % $ & % $   . $ & % & % % @ & & % % % % % %               % % % % % % % > & & & @ - - 1 ",
"                    % % 1 %                                   . o     .                 . . %         .           .         X 1 ",
"- - - $   X - - %   & 1 % 1 &                     . & & & 5 . . & & & %           % %   . ; %     . % & %   : ;           X X 1 ",
"$ $ $ $   X $ $ %     # . & %                     . & & > s 5   % % % @         . % %   . #       . % % %   % % & . @ .   X X 1 ",
"V 7 % , r m x % : b b b b c =   : b b m n B x q 0 7 & -   > q     . 1 7 5 > %   %       , w V b k k j .       . %   % * m m m I ",
"X.! I I _ X. .J R O.O.O.O. .J V R X.` O.X.O.X./ _ / S S %   2     % R / ( S I b J b b V J _ O.O.O.O.o.k V k k V b k b D X.X.O.O.",
"/ ) ) ` O.O.X.) ` O.O.O.O.X.) O.O. .S _ / _ O.O.O.O.O...2 . 2     = O.O.O.O.O.X.) _ O.` O.O.X._ O.#.O.O.O.O.O.O.O.O.O.O.O.O.O.O.",
"D D S I ) ( ( S I ) / _ ) ! L ) ( ( S S S U / _ / / ` ` d . 2     2 X./ ( ) ) ( S S ( S ) ) ( S ( ! _ O.X.( _ _ O.! / ` O.O.O.@.",
"D S S S S S S S S S S S S S S S S S S S S S A S S S L ..n . 2   & 8 / A S S S S S S S S S S S S S S S _ ( S S S ~ S S J _ O.O.O.",
"D S S S S S S S S S S S S S S S S S S S S S B d S S U X.Q . 2   @ a ~ D S S S S S S S S S S S S S S S S S S S S S S S S S _ O.#.",
"S S Z s S S S S S S S S S S S S S S D D S S B 3 a S U ` ' + % % $ L X.A S S S S S S S S S S S S S S S S S S S S S S S S U _ O.#.",
"S S S L S S S S S S S S S S S S S S A D S S A a 8 S S ` `     % & _ X.S S S S A a S S S S S S S S S S S S S S S S S S S ` O.O.O.",
"S S S ) S S S S S S S S S S S S n 7 0 D S S S B a S L ` ` +     > ..^ A S S S B 8 S S S S S S S S S S S S S S S S S S U _ @.O.O.",
"S S S S S S S S S S S S S S S S a   > D S S S S S S A R Q . %   > ..S S S S S A a S S S S S S S S S S S S S S S S S S S S _ ( ` ",
"S S S S S S S S S S S S S S Z t > 0 a S S S S S S S S S Q + 2   , ..^ S S S S S S S S S S S S S S S S S S S S s s S S S S _ _ ` ",
"S S S S S S S Z 5 q S S S S S I S S S S S S S S S S U ` ` + 2   @ ` ..S S S S S S S S S S S S S S S S S S S B s s S S S S _ O.O.",
"A D D D J B B a , w S S S S S ` ~ D D B a S S S S S U O.` . 1 . * ` ..A S S S S D D D D D D S S S S S S S S S J S S S S S S ` O.",
"S A D D D D B a s S S S S S S S D D D B a a S B S A U O.` . 1 . = O...S S S S S D D D D D A S S S S S S S S S S S S S S I ( ` O.",
"S S D D D D B B S S S S m m S S B D D B B a B B s S R O. .. @ . = O...S S A S S B D J B A A A A S S S S S S B J S S S S _ O.O.O.",
"a a D D B a m m S s t s A a a a a a a B a a a a 4 s z @.` @ *   = ..S a A a a S m a a s A a a a B a B a a S J B S S a a I S J U ",
"3 3 d d m s a a s 1 3 3 s w 3 2 2 2 8 a 3 4 3 3 3 4 4 R ` o &   @ B 3 3 w 3 4 d a 2 2 2 s 2 2 4 a 4 a 1 4 a a f s s 3 1 3 3 3 8 ",
"3 & % > a a $ $ & % > 1 3 s 2 2 & 2 2 2 3 3 3 1 3 1 2 , z .     . @ > 2 3 3 3 3 2 2 2 - 2 2 2 2 1 1 2 2 3 1 1 2 1 3 1 1 1 3 3 e ",
"%     . % @         . $ % $ > $ . % % @ > @ % % % % &     . %   . . . & % % % % $ $ $ X % & $ & & $ & - % % % % % % % % % % = - ",
"      .                 .     .     .   . . %           & & 2               %             X                                     "
};
