/* XPM */
static char *result[] = {
/* columns rows colors chars-per-pixel */
"64 128 23 1 ",
"  c #BD3301",
". c #BF3805",
"X c #C03604",
"o c #C23906",
"O c #C53C0A",
"+ c #C93F0C",
"@ c #C7400E",
"# c #CB410E",
"$ c #C74110",
"% c #CC4412",
"& c #CE4817",
"* c #CE4919",
"= c #D04613",
"- c #D14916",
"; c #D24D1C",
": c #D5501E",
"> c #D34F20",
", c #D65222",
"< c #D95625",
"1 c #D95728",
"2 c #DD5C2C",
"3 c #DE5E30",
"4 c None",
/* pixels */
"4444444444444444444444444444444444444444444444444444444444444444",
"4444444444444444444444444444444444444444444444444444444444444444",
"4444444444444444444444444444444444444444444444444444444444444444",
"4444444444444444444444444444444444444444444444444444444444444444",
"4444444444444444444444444444444444444444444444444444444444444444",
"4444444444444444444444444444444444444444444444444444444444444444",
"4444444444444444444444444444444444444444444444444444444444444444",
"4444444444444444444444444444444444444444444444444444444444444444",
"4444444444444444444444444444444444444444444444444444444444444444",
"4444444444444444444444444444444444444444444444444444444444444444",
"4444444444444444444444444444444444444444444444444444444444444444",
"4444444444444444444444444444444444444444444444444444444444444444",
"4444444444444444444444444444444444444444444444444444444444444444",
"4444444444444444444444444444444444444444444444444444444444444444",
"4444444444444444444444444444444444444444444444444444444444444444",
"4444444444444444444444444444444444444444444444444444444444444444",
"4444444444444444444444444444444444444444444444444444444444444444",
"4444444444444444444444444444444444444444444444444444444444444444",
"4444444444444444444444444444444444444444444444444444444444444444",
"4444444444444444444444444444444444444444444444444444444444444444",
"4444444444444444444444444444444444444444444444444444444444444444",
"4444444444444444444444444444444444444444444444444444444444444444",
"4444444444444444444444444444444444444444444444444444444444444444",
"4444444444444444444444444444444444444444444444444444444444444444",
"4444444444444444444444444444444444444444444444444444444444444444",
"4444444444444444444444444444444444444444444444444444444444444444",
"4444444444444444444444444444444444444444444444444444444444444444",
"4444444444444444444444444444444444444444444444444444444444444444",
"4444444444444444444444444444444444444444444444444444444444444444",
"4444444444444444444444444444444444444444444444444444444444444444",
"4444444444444444444444444444444444444444444444444444444444444444",
"4444444444444444444444444444444444444444444444444444444444444444",
"44444444444444444444444444444444444          4444444444444444444",
"4444444444444444444444444444444444            444444444444444444",
"444444444444444444444444444444444              44444444444444444",
"44444444444444444444444444444444                4444444444444444",
"44444444444444444444444444444444                4444444444444444",
"4444444444444444444444444444444                 4444444444444444",
"444444444444444444444444444444                  4444444444444444",
"44444444444444444444444444444                   4444444444444444",
"444444444444444444444444444                44444     44444444444",
"44444444444444444444444444                444444      4444444444",
"4444444444444444444444444                4444444       444444444",
"444444444444444444444444                 4444444        44444444",
"444444444444444444444444    XXXX      X  4444444       X44444444",
"44444444444444444444444X    XXXX     X   444444  XX XXXX44444444",
"4444444444444444444444  XX XXXXXXX  XXXXX 4444 XXXXXXXXo44444444",
"444444444444444444444 XXXXoXoXOoXX  XXXXXX   X XXXoXXXo+44444444",
"4444444444444444444     oooOOoOOXO+OOXXOXX    XXXXXOOX+O44444444",
"444444444444444444    XXoO+oO+++OO++OOOXXX    XXX+OOOOO+44444444",
"44444444444444444    XXXoO++++++++++++OOXXX   XXO++O++++44444444",
"4444444444444444      XXoO++++#+++++++OXXXX  XXXX+++++++44444444",
"4444444444444444X  XXXXoO++++#+=++;++++OOXX XXXX+++++=++44444444",
"444444444444444    X XXOo+++=+=+>++++++XXXX XXXO+++++++=44444444",
"44444444444444 XX XXooOo+++=+#+=+++++++OXX    XX++++++=+44444444",
"4444444444444X XXXooooOO+++++=+=-+++++OOXXX  XXXo+++=+=+44444444",
"44444444444   XXXooOOO++O+++==++++-++++OXXXX XXXO++++=##44444444",
"4444444444    XXXoOO++++++4444=++-+=++++OXXX  XXo++++==+44444444",
"444444444     XooO+O+++++444444=+=+=++OOXXXXXXXXO++++==+44444444",
"444444444    .XXoO+++++++4444444++=+++OOXXXXXXXXo++++=+=44444444",
"444444444     XOo++++++++4444444==+++++XXX    XXo+++++=+44444444",
"444444444     XXoOO++++++4444444=+==+++oXX    XXX+++=+=444444444",
"4444444444     XoOO+++++++444444+=++=++oXXX   XXoO+++=4444444444",
"44444444444    XoooOOOO++++44444=+=++++XXX    XXoO+++44444444444",
"4444444444444  X.ooooOoO+++#####44444OOX       Xoo+4444444444444",
"44444444444444   .oooooO+++##=##444444oX       X.o44444444444444",
"444444444444444. o XoooOO+#+####4444444.        .444444444444444",
"4444444444444444    XXooo+######4444444.        4444444444444444",
"4444444444444444     XXoo+++####4444444XX      X4444444444444444",
"44444444444444444    XXOO+O+o###+444444XXXXX XX 4444444444444444",
"444444444444444444   XoooOo+##+#++4444+OoXXXXoXX4444444444444444",
"4444444444444444444 XXXoooOoo+oO+++#+O+OOOoooooo4444444444444444",
"444444444444444444444XooooooooOOO+####++OOOOOOOo4444444444444444",
"4444444444444444444444XX..XooooOO++##++++O+OO++O4444444444444444",
"44444444444444444444444.... oooOO++#####+##+++++4444444444444444",
"444444444444444444444444     oooO+++#######+++##4444444444444444",
"444444444444444444444444    . ooo++##########+##4444444444444444",
"444444444444444444444444     .ooO+++####+##O++++4444444444444444",
"444444444444444444444444     oooO++#####++++O+++4444444444444444",
"444444444444444444444444    . oOOO++###++OOOOOOO4444444444444444",
"444444444444444444444444    . ooOO++##O+OOOOoooO4444444444444444",
"444444444444444444444444.     ooOO++##+OOOooXoXX4444444444444444",
"444444444444444444444444     XXOO++##O#OOooo X X4444444444444444",
"444444444444444444444444     XXoO+++##OOOoo X XX4444444444444444",
"444444444444444444444444      oOo+++#+OOO...o...4444444444444444",
"4444444444444444444444444    oXooOo+++@OOOOOoOOoO444444444444444",
"44444444444444444444444444   XXooo++++OO$$$$$$O$O.44444444444444",
"444444444444444444444444444  XXooOo+OO+#$$$*$$$$$Oo4444444444444",
"44444444444444444444444444444..oooOo.@@%&&****&$$$...44444444444",
"444444444444444444444444444444.o ...OO$$&**>>***$O....4444444444",
"4444444444444444444444444444444. o ..O@$&*,,,,**&OO.   444444444",
"4444444444444444444444444444444.XX...@$$&*,<,,>**$..    44444444",
"4444444444444444444444444444444.X..o.@$&*>,<<,>*$$..    44444444",
"4444444444444444444444444444444OoO.O@$%*>>,<,,>*$@..    44444444",
"444444444444444444444444444444.OO$$$$%&*>>,,>>**$@..    44444444",
"44444444444444444444444444444.O$$$$&&&***>,>>>*$$@..    44444444",
"4444444444444444444         ..$$$&*****>:>>:;-&%@@o.    44444444",
"444444444444444444         ...$$&*;>>,>>*>;*-&%#@..     44444444",
"44444444444444444           .@$$*>>,,,,>;:*-==#@oo..    44444444",
"4444444444444444      .     ..$**>,<11<,:;--##@#@..     44444444",
"4444444444444444   X    .  ..$$**:11<2<<:--=%#@o...     44444444",
"444444444444444X.o ..o.o.@.@$$$*><1222<:::-=%##o...     44444444",
"44444444444444 XooXooooO@@$$$$*>:<<22<<::--=##@@@..     44444444",
"4444444444444Xo ooooOO@@$$$***>>:<22222:;---%#@@..      44444444",
"44444444444  ooooo@@@##%$****>,,:2222<<::;=&##OOOO.     44444444",
"4444444444   Xooo@@@@@%-**;>,,<1<22222<<:;=###OO...     44444444",
"444444444    ..oo#@##%-**>,<<<12222222:::==&##+O...     44444444",
"44444444 .   .ooo@##%=-;>,<1122232322<<:;;&###OO@..     44444444",
"44444444      oO#@##%--;,,<22333323221<::;=###+Oo..    X44444444",
"44444444     .o.o###=*:;,,222333333221<:;=&=##++@ooo.o X44444444",
"44444444     ..O@###%-;:,<22323333222<::;-=###++OOoooXXX44444444",
"44444444     ..Oo###&&;:,<22233333322<::;-==##++OOOoooOo44444444",
"44444444     XXo#@##=-;::<12233233321<:;--==####+++OOOO+44444444",
"44444444     XoOo###=-;::<123333334444;;--=#=###++++++O+44444444",
"44444444     XXO@###=--::<2233233444444--==#=####++#+++#44444444",
"44444444      XOo###=-;:<<22233344444444==#=#=#######+##44444444",
"44444444     XXo@###=-;::<12333344444444====#=###=##=+##44444444",
"444444444   XXXOo###--;:<<222334444444444##==#==#######444444444",
"4444444444  XXoOoO##=-;::<2233444444444444===#####=###4444444444",
"44444444444 Xoo#####=-;:<<23344444444444444##=====#=%44444444444",
"4444444444444444444444444444444444444444444444444444444444444444",
"4444444444444444444444444444444444444444444444444444444444444444",
"4444444444444444444444444444444444444444444444444444444444444444",
"4444444444444444444444444444444444444444444444444444444444444444",
"4444444444444444444444444444444444444444444444444444444444444444",
"4444444444444444444444444444444444444444444444444444444444444444",
"4444444444444444444444444444444444444444444444444444444444444444",
"4444444444444444444444444444444444444444444444444444444444444444"
};
