/* XPM */
static char *result[] = {
/* columns rows colors chars-per-pixel */
"64 128 22 1 ",
"  c #BD3402",
". c #C13705",
"X c #C23906",
"o c #C53C0A",
"O c #C93E0C",
"+ c #C6400F",
"@ c #CC410E",
"# c #C74110",
"$ c #CD4311",
"% c #CE4816",
"& c #CE4919",
"* c #D04715",
"= c #D04816",
"- c #D24C1B",
"; c #D5501F",
": c #D34F20",
"> c #D65222",
", c #D95625",
"< c #D75528",
"1 c #DA5728",
"2 c #DC5B2B",
"3 c None",
/* pixels */
"3333333333333333333333333333333333333333333333333333333333333333",
"3333333333333333333333333333333333333333333333333333333333333333",
"3333333333333333333333333333333333333333333333333333333333333333",
"3333333333333333333333333333333333333333333333333333333333333333",
"3333333333333333333333333333333333333333333333333333333333333333",
"3333333333333333333333333333333333333333333333333333333333333333",
"3333333333333333333333333333333333333333333333333333333333333333",
"3333333333333333333333333333333333333333333333333333333333333333",
"3333333333333333333333333333333333333333333333333333333333333333",
"3333333333333333333333333333333333333333333333333333333333333333",
"3333333333333333333333333333333333333333333333333333333333333333",
"3333333333333333333333333333333333333333333333333333333333333333",
"3333333333333333333333333333333333333333333333333333333333333333",
"3333333333333333333333333333333333333333333333333333333333333333",
"3333333333333333333333333333333333333333333333333333333333333333",
"3333333333333333333333333333333333333333333333333333333333333333",
"3333333333333333333333333333333333333333333333333333333333333333",
"3333333333333333333333333333333333333333333333333333333333333333",
"3333333333333333333333333333333333333333333333333333333333333333",
"3333333333333333333333333333333333333333333333333333333333333333",
"3333333333333333333333333333333333333333333333333333333333333333",
"3333333333333333333333333333333333333333333333333333333333333333",
"3333333333333333333333333333333333333333333333333333333333333333",
"3333333333333333333333333333333333333333333333333333333333333333",
"3333333333333333333333333333333333333333333333333333333333333333",
"3333333333333333333333333333333333333333333333333333333333333333",
"3333333333333333333333333333333333333333333333333333333333333333",
"3333333333333333333333333333333333333333333333333333333333333333",
"3333333333333333333333333333333333333333333333333333333333333333",
"3333333333333333333333333333333333333333333333333333333333333333",
"3333333333333333333333333333333333333333333333333333333333333333",
"3333333333333333333333333333333333333333333333333333333333333333",
"3333333333333333333333333333333333333333333333333333333333333333",
"33333333333333333333333333.X  333333333333$@$$333333333333333333",
"3333333333333333333333333 ..   3333333333@$@$O$33333333333333333",
"333333333333333333333333  ..    33333333$$@@$@$33333333333333333",
"333333333333333333333333.       33333333O$$OO$O33333333333333333",
"33333333333333333333333o.. . . . 3333333OOO$$O$33333333333333333",
"3333333333333333333333OOXXXX..X. X333333OOO$$$333333333333333333",
"333333333333333333333OOOOXOXXXXXX  33333OOOO@3333333333333333333",
"33333333333   XXoOO@O@OOOOOOoooXX.    ..333333333333333333333333",
"3333333333    XXOOO@$@@@OOOOOOXXX.   ...333333333333333333333333",
"333333333    XXXOOOO@*@@O@OOOOOXX.      333333333333333333333333",
"333333333     XoOOOO@@@@$@@OOOOOXX      333333333333333333333333",
"333333333     XXOOOO@$$@@$@@OOOOXX.     333333333333333333333333",
"333333333     XXoOOOO@O@@@$@$OOOXX.. .  333333333333333333333333",
"3333333333    XXoXOOOOOO@@@$O$OOOX. ...X333333333333333333333333",
"33333333333   .XXXXOOOOOO@@@$$OOoXX ..Xo333333333333333333333333",
"3333333333333XX XXXXoooOOOOOO*$OooX33333OOOO@OOO.....33333333333",
"33333333333333 XXXXXXXooOOO**OOOOo333333O@OO@OOXX...  3333333333",
"333333333333333    X.XXoOO*OO*O$O3333333O@@@OOOOXX... .333333333",
"333333333333333     .XXooOOO*O$O*3333333@@@@@OOOXX.. ..333333333",
"333333333333333    ....XoOOOO$$$$3333333$$$@OOOOoX     333333333",
"333333333333333  .....XXooOOO$O$$333333**$$$OOOOXX     333333333",
"33333333333333.....X.XXoXOoOO##*$-3333--**$$OOOOoX.   3333333333",
"3333333333333 ....XXooXoOooOOO##&:>11,;-**$*$OOOoo.. 33333333333",
"$@$$O$OOXX..  ..XXooXXOO.O.OOO#%&:>11,;-==*$*@@@+oX3333333333333",
"@*O$$OOOXX... ..XooOOOOXXX.. o#&&-<121,;-=**@@@@oo33333333333333",
"@$$$OOOO........XOOOOOOX.O..ooO%&:<121,;--*$@@@@@333333333333333",
"$$$$OOXO........XOOOOOOOOX.. oO*&;1111,;;=***@@@3333333333333333",
"$$O$@OOXX.......OOOOOOOX....XOO&&>>111>>-***$$@*3333333333333333",
"$$*$@OOOX...  ..oXoOOOOXOX...OO*&->1,,>;--*$$$*@3333333333333333",
"OO$$@OOX....  ..XXOooOOo..O.XoO*%&>>>>>--***$$@$3333333333333333",
"*$*OOOOO....  ..XXXoooXoO..OOOOO%&------*****@$$3333333333333333",
"33333#O         ....XooXoXoOOOO$**=-*;****$$$$$O3333333333333333",
"333333 O        .....XXooOOOO$#$$*=**-****$$$$$$3333333333333333",
"3333333          . ...XXooOOO$$$$********$*$$O$$3333333333333333",
"3333333           ....XXoOOOO$O$$$$$**$$$@$$$$$$3333333333333333",
"3333333              ..XoOOO#$$$O$$$$@$@@@@@$@@$3333333333333333",
"3333333               .XooOOO#O$$O$O@O@@@@@@OOO@O333333333333333",
"333333               ..XXooOOOOOO$O@@@OOOOOOOOOXOO33333333333333",
"33333o              ....XXoOoOOOOO@@@@@OOOOOoOoOOO$3333333333333",
"&**OOOOoX.             X # ooooOOO@@@OOOOXXoOXOOOOO$O33333333333",
"OOOO*OooX.        3333X  #o ooooOOO@@OOOOOXXXXOoOOO@@@3333333333",
"&O**OOooX X      333333       ooOOOOO@OOXX..X.XXOOO@$O$333333333",
"O*O*OOoooX       333333X     o OOOOO@OOXXX...XXXXOOO$$$$33333333",
"*OO*OOOOX        333333    #  # ooO+o+ooXX..XXXooO@@O$O$33333333",
"***OOOOO         333333X# # &#  o+oOOoooOXX.XXXXOO@@$$@@33333333",
"O*O*OOOo          3333oo # ### &+OoooOoXXXXXXXXOoO@@@@@@33333333",
"O*OOOOoo              o##&&#&###+OOOXXoXXOXXXOXOOO@@@@@@33333333",
"33333OOX..             #&&&&&&##@oooooXoooXoOoOOO*OO$$@@33333333",
"333333oX..            ##&&:&&&&&@OoX oXXXoOOOOOOOOO$@$@@33333333",
"3333333O.            ##&&&:<::&#%#oX Xo ooOOOOOO*OOO@$@@33333333",
"33333333.             ##&&<:<<:&#oXXo  ooOOO*O*OOO**@@@@33333333",
"33333333             O &&&:<<::&$o   o oOOO@O*O$OOOOOOOO33333333",
"333333333             ##&&::::&&#o#   o oOO@*O$OOOOOOOOO$3333333",
"3333333333            ###&::&&&&#o    oooOO$$$O$OOOOOOOOOO333333",
"33333333333          # O###&&& #o      #XOOO$O$OOOOXOOOOOOO33333",
"3333333333333         oo &##OOOo..  ..XXOOO@@@OOOO.OXOOOOO@@@@@@",
"33333333333333           # &Ooo..   ...XXO@@@@OOXOXX...OOO@@**@@",
"333333333333333            #  ...     .Xoo@@@@OOO.X.....OO@@@@@*",
"333333333333333          ##   .      .XXoO@@@OOoXO....XOOO@@@**@",
"333333333333333             .       ..XXoO@@@OOoX......XOOOO*$$$",
"333333333333333Xo   o o   # ...... .XXXOoO@@@@OOOXX..XX.OO@@O*$$",
"33333333333333oooX oo      O.X.X.X..XoXoO@@@@@OOO.XXO..OOOOOO*O*",
"3333333333333+@oooOooooO#O OoXoXooXXXoOoO@@@@OOOOOOXOXOOOO@@*O**",
"33333333333$O$OOOOOOOOoooooooooooooooOo@O@@@@@OOOOOOOOOOOOO33333",
"3333333333$$O$@OOOOO@@OO@@@@@+@oO+@oO@@@@@$@$$@@OOOOOOOO$O333333",
"333333333*O$$@O$@@@@*@@@@@@@@@@+@@+@@@@@@$$@$O$O$O@OOOOOO3333333",
"333333333O$$$@$$@@@@@@@@@@@@@@@@$@@@@@@@$$@$$$$$@$@$$$OO33333333",
"333333333$$O@$@$@@*@@*@*$*****$$$$$@@@@@@$@$*@$$$$O*$$O$33333333",
"333333333$O$@$@$@@@@@******=****$$$+@@@@@@@@@*$$$$*O$O*333333333",
"3333333333$$@@O$@@***@**==-=-=*$$$@@OO@@@@@*@$$$$@O*$*3333333333",
"33333333333$O$$$*@@@****=-----=*$$o@oOO@@@@@$$$O@**O$33333333333",
"3333333333333$$$$$$@$===--;;;--=$#+oooo+O@@@@@$@@@@3333333333333",
"33333333333333$O$@@$$$=-;;;;2;;=%#+XooooOO@@@$$*@*33333333333333",
"333333333333333@@@@$$=--;;;;2;-&###  XXooOO@@$@@*333333333333333",
"333333333333333@@$@$$*%-;;22,;;&%+++XXXooO@@@$@@*333333333333333",
"333333333333333$@$$@===-;>,,,>;&%#   XXXO@@@$$$**333333333333333",
"333333333333333@@@@$@@=%-:>,>:&&#++ XXX+@@@$*****333333333333333",
"33333333333333@$$$$@@%%%&-&::&&&#++ X o+$$%%*--*=*33333333333333",
"3333333333333@$@$$@$$$%%%%&&&&&#++XXXo+#%%-------=*3333333333333",
"33333333333@@$@@$@@$@@*$*$$$%###Oo ooo#$--::;;;--***$33333333333",
"3333333333$@@@$*$$$@@@@@@@++++++oo3333&&::>>,;;--**$$$3333333333",
"333333333$@@@$@@@*$$@@@O++X+++ +X333333<>1111,>;--**$$$333333333",
"333333333$@$@@@*@@$$@@@O+XX     33333333222211,;;**$$O$333333333",
"333333333$O$$@*$@**@@@OO+XX     333333332222221>;-*$$@$333333333",
"333333333$O$@@@@@@@*@@OOXXX    333333333322222>>--*$$$@333333333",
"3333333333$$@$$@@$*@@@@OXX    333333333333222221;-=*@@3333333333",
"33333333333@$@$$*@*@@@@@oXX  3333333333333322221;**$$33333333333",
"3333333333333333333333333333333333333333333333333333333333333333",
"3333333333333333333333333333333333333333333333333333333333333333",
"3333333333333333333333333333333333333333333333333333333333333333",
"3333333333333333333333333333333333333333333333333333333333333333",
"3333333333333333333333333333333333333333333333333333333333333333",
"3333333333333333333333333333333333333333333333333333333333333333",
"3333333333333333333333333333333333333333333333333333333333333333",
"3333333333333333333333333333333333333333333333333333333333333333"
};
