/* XPM */
static char *result[] = {
/* columns rows colors chars-per-pixel */
"128 127 91 1 ",
"  c #33312F",
". c #363432",
"X c #373533",
"o c #383634",
"O c #393735",
"+ c #3A3836",
"@ c #3B3937",
"# c #3C3A38",
"$ c #3D3B38",
"% c #3D3B39",
"& c #38432A",
"* c #3A422F",
"= c #3C5426",
"- c #3D5526",
"; c #3E5627",
": c #42532F",
"> c #405928",
", c #435D2A",
"< c #445E2A",
"1 c #455F2B",
"2 c #475E2F",
"3 c #42403D",
"4 c #455732",
"5 c #485C32",
"6 c #4A5F34",
"7 c #485538",
"8 c #4D5B3A",
"9 c #45602B",
"0 c #47632D",
"q c #48652D",
"w c #49672E",
"e c #4A682E",
"r c #4B692F",
"t c #4C6334",
"y c #4D6B30",
"u c #4E6D31",
"i c #51613D",
"p c #507032",
"a c #527334",
"s c #537434",
"d c #597D38",
"f c #464340",
"g c #464441",
"h c #474542",
"j c #484542",
"k c #484543",
"l c #484643",
"z c #4A4744",
"x c #4B4845",
"c c #4D4A47",
"v c #514F4B",
"b c #524F4B",
"n c #515B42",
"m c #535649",
"M c #53504C",
"N c #53514D",
"B c #54514E",
"V c #55524E",
"C c #55584A",
"Z c #555D48",
"A c #595E4D",
"S c #595E4E",
"D c #575450",
"F c #585551",
"G c #595651",
"H c #595652",
"J c #5A5753",
"K c #5D5A56",
"L c #625F5B",
"P c #5A6D45",
"I c #586149",
"U c #63645A",
"Y c #64655B",
"T c #65635E",
"R c #66635F",
"E c #667056",
"W c #6A7558",
"Q c #676460",
"! c #6A6763",
"~ c #6F6B67",
"^ c #706D68",
"/ c #787470",
"( c #807D77",
") c #87837E",
"_ c #88877D",
"` c #88847F",
"' c #89857F",
"] c #89887D",
"[ c #8A897E",
"{ c #8A8680",
"} c #918D87",
/* pixels */
"}}}}}}}}}}}}}}}}}}}}}}}}}}}}}}}}}}}}}}}}}}}}}}HHcc}}}}}}}}}}}}}}}}}}}}}}}}}}}}}}}}}}}}}}}}}}}}}}}}}}HHcc}}}}}}}}}}}}}}}}}}}}}}}}",
"}}}}}}}}}}}}}}}}}}}}}}}}}}}}}}}}}}}}}}}}}}}}}}HHcc}}}}}}}}}}}}}}}}}}}}}}}}}}}}}}}}}}}}}}}}}}}}}}}}}}HHcc}}}}}}}}}}}}}}}}}}}}}}}}",
"}}RRRRRRRRRRRRRRRRRRRRRRRRRRRRRRRRRRRRRRRRRRRRHH%%}}RRRRRRRRRRRRRRRRRRRRRRRRRRRRRRRRRRRRRRRRRRRRRRRRHH%%}}RRRRRRRRRRRRRRRRRRRRHH",
"}}RRRRRRRRRRRRRRRRRRRRRRRRRRRRRRRRRRRRRRRRRRRRHH%%}}RRRRRRRRRRRRRRRRRRRRRRRRRRRRRRRRRRRRRRRRRRRRRRRRHH%%}}RRRRRRRRRRRRRRRRRRRRHH",
"}}RRRRRRRRRRRRRRRRRRRRRRRRRRRRRRRRRRRRRRRRRRRRHH  }}RRRRRRRRRRRRRRRRRRRRRRRRRRRRRRRRRRRRRRRRRRRRRRRRHH%%}}RRRRRRRRRRRRRRRRRRRRHH",
"}}RRRRRRRRRRRRRRRRRRRRRRRRRRRRRRRRRRRRRRRRRRRRHH  }}RRRRRRRRRRRRRRRRRRRRRRRRRRRRRRRRRRRRRRRRRRRRRRRRHH%%}}RRRRRRRRRRRRRRRRRRRRHH",
"}}RRRRRRRRRRRRRRRRRRRRRRRRRRRRRRRRRRRRRRRRRRRRHH==}}RRRRRRRRRRRRRRRRRRRRRRRRRRRRRRRRRRRRRRRRRRRRRRRRHH  }}RRRRRRRRRRRRRRRRRRRRHH",
"}}RRRRRRRRRRRRRRRRRRRRRRRRRRRRRRRRRRRRRRRRRRRRHH==}}RRRRRRRRRRRRRRRRRRRRRRRRRRRRRRRRRRRRRRRRRRRRRRRRHH  }}RRRRRRRRRRRRRRRRRRRRHH",
"}}RRRRRRRRRRRRRRRRRRRRRRRRRRRRRRRRRRRRRRRRRRRRHHrr}}RRRRRRRRRRRRRRRRRRRRRRRRRRRRRRRRRRRRRRRRRRRRRRRRHH  }}RRRRRRRRRRRRRRRRRRRRHH",
"}}RRRRRRRRRRRRRRRRRRRRRRRRRRRRRRRRRRRRRRRRRRRRHHrr}}RRRRRRRRRRRRRRRRRRRRRRRRRRRRRRRRRRRRRRRRRRRRRRRRHH  }}RRRRRRRRRRRRRRRRRRRRHH",
"}}RRRRRRRRRRRRRRRRRRRRRRRRRRRRRRRRRRRRRRRRRRRRHH==}}RRRRRRRRRRRRRRRRRRRRRRRRRRRRRRRRRRRRRRRRRRRRRRRRHH  }}RRRRRRRRRRRRRRRRRRRRHH",
"}}RRRRRRRRRRRRRRRRRRRRRRRRRRRRRRRRRRRRRRRRRRRRHH==}}RRRRRRRRRRRRRRRRRRRRRRRRRRRRRRRRRRRRRRRRRRRRRRRRHH  }}RRRRRRRRRRRRRRRRRRRRHH",
"HHHHHHHHHHHHHHHHHHHHHHHHHHHHHHHHHHHHHHHHHHHHHHHH<<HHHHHHHHHHHHHHHHHHHHHHHHHHHHHHHHHHHHHHHHHHHHHHHHHHHH%%HHHHHHHHHHHHHHHHHHHHHHHH",
"HHHHHHHHHHHHHHHHHHHHHHHHHHHHHHHHHHHHHHHHHHHHHHHH<<HHHHHHHHHHHHHHHHHHHHHHHHHHHHHHHHHHHHHHHHHHHHHHHHHHHH%%HHHHHHHHHHHHHHHHHHHHHHHH",
"  %%<<rr<<==cc  %%%%  %%%%  cc  ccddrr<<==ddrr<<<<rr==%%%%%%cc  %%%%cc%%%%%%      %%cc%%            cc%%%%      %%==%%%%  dd==%%",
"  %%<<rr<<==cc  %%%%  %%%%  cc  ccddrr<<==ddrr<<<<rr==%%%%%%cc  %%%%cc%%%%%%      %%cc%%            cc%%%%      %%==%%%%  dd==%%",
"}}}}}}dd}}}}}}}}}}}}}}HH%%}}}}}}}}}}==}}<<rr}}rr}}<<}}}}}}}}}}}}}}}}}}}}}}}}}}}}}}}}}}}}}}HH  }}}}}}}}}}}}}}}}}}}}}}}}}}}}}}}}}}",
"}}}}}}dd}}}}}}}}}}}}}}HH%%}}}}}}}}}}==}}<<rr}}rr}}<<}}}}}}}}}}}}}}}}}}}}}}}}}}}}}}}}}}}}}}HH  }}}}}}}}}}}}}}}}}}}}}}}}}}}}}}}}}}",
"}}RRRRRRRRRRRRRRRRRRRRHHcc}}RRRRRRRRRRRRRR==RR<<RRRRRRRRRRRRRRRRRRRRRRRRRRRRRRRRRRRRRRRRRRHHrr}}RRRRRRRRRRRRRRRRRRRRRRRRRRRRRRHH",
"}}RRRRRRRRRRRRRRRRRRRRHHcc}}RRRRRRRRRRRRRR==RR<<RRRRRRRRRRRRRRRRRRRRRRRRRRRRRRRRRRRRRRRRRRHHrr}}RRRRRRRRRRRRRRRRRRRRRRRRRRRRRRHH",
"}}RRRRRRRRRRRRRRRRRRRRHH  }}RRRRRRRRRRRRRRRRRRRRRRRRRRRRRRRRRRRRRRRRRRRRRRRRRRRRRRRRRRRRRRHH==}}RRRRRRRRRRRRRRRRRRRRRRRRRRRRRRHH",
"}}RRRRRRRRRRRRRRRRRRRRHH  }}RRRRRRRRRRRRRRRRRRRRRRRRRRRRRRRRRRRRRRRRRRRRRRRRRRRRRRRRRRRRRRHH==}}RRRRRRRRRRRRRRRRRRRRRRRRRRRRRRHH",
"}}RRRRRRRRRRRRRRRRRRRRHH%%}}RRRRRRRRRRRRRRRRRR==RRRRRRRRRRRRRRRRRRRRRRRRRRRRRRRRRRRRRRRRRRHH%%}}RRRRRRRRRRRRRRRRRRRRRRRRRRRRRRHH",
"}}RRRRRRRRRRRRRRRRRRRRHH%%}}RRRRRRRRRRRRRRRRRR==RRRRRRRRRRRRRRRRRRRRRRRRRRRRRRRRRRRRRRRRRRHH%%}}RRRRRRRRRRRRRRRRRRRRRRRRRRRRRRHH",
"}}RRRRRRRRRRRRRRRRRRRRHH  }}RRRRRRRRRRRRRRRRRRRRRRRRRRRRRRRRRRRRRRRRRRRRRRRRRRRRRRRRRRRRRRHH  }}RRRRRRRRRRRRRRRRRRRRRRRRRRRRRRHH",
"}}RRRRRRRRRRRRRRRRRRRRHH  }}RRRRRRRRRRRRRRRRRRRRRRRRRRRRRRRRRRRRRRRRRRRRRRRRRRRRRRRRRRRRRRHH  }}RRRRRRRRRRRRRRRRRRRRRRRRRRRRRRHH",
"}}RRRRRRRRRRRRRRRRRRRRHH==}}RRRRRRRRRRRRRRRRRRRRRRRRRRRRRRRRRRRRRRRRRRRRRRRRRRRRRRRRRRRRRRHHrr}}RRRRRRRRRRRRRRRRRRRRRRRRRRRRRRHH",
"}}RRRRRRRRRRRRRRRRRRRRHH==}}RRRRRRRRRRRRRRRRRRRRRRRRRRRRRRRRRRRRRRRRRRRRRRRRRRRRRRRRRRRRRRHHrr}}RRRRRRRRRRRRRRRRRRRRRRRRRRRRRRHH",
"HHHHHHHHHHHHHHHHHHHHHHHH==HHHHHHHHHHHHHHHHHHHHHHHHHHHHHHHHHHHHHHHHHHHHHHHHHHHHHHHHHHHHHHHHHH==HHHHHHHHHHHHHHHHHHHHHHHHHHHHHHHHHH",
"HHHHHHHHHHHHHHHHHHHHHHHH==HHHHHHHHHHHHHHHHHHHHHHHHHHHHHHHHHHHHHHHHHHHHHHHHHHHHHHHHHHHHHHHHHH==HHHHHHHHHHHHHHHHHHHHHHHHHHHHHHHHHH",
"    %%  %%    %%%%ccrr==<<%%    cc%%%%    %%%%cc  %%%%    %%cc          cc%%%%    cc  <<==<<ddrr<<%%%%        %%%%      cc%%%%  ",
"    %%  %%    %%%%ccrr==<<%%    cc%%%%    %%%%cc  %%%%    %%cc          cc%%%%    cc  <<==<<ddrr<<%%%%        %%%%      cc%%%%  ",
"}}}}}}}}}}}}}}}}}}}}}}}}}}}}}}}}}}}}HH%%}}}}}}}}}}}}}}}}}}}}}}}}}}}}}}}}}}}}}}}}}}}}}}rr}}rr<<==rr}}}}}}}}}}}}}}}}}}HH%%}}}}}}}}",
"}}}}}}}}}}}}}}}}}}}}}}}}}}}}}}}}}}}}HH%%}}}}}}}}}}}}}}}}}}}}}}}}}}}}}}}}}}}}}}}}}}}}}}rr}}rr<<==rr}}}}}}}}}}}}}}}}}}HH%%}}}}}}}}",
"}}RRRRRRRRRRRRRRRRRRRRRRRRRRRRRRRRRRHH  }}RRRRRRRRRRRRRRRRRRRRRRRRRRRRRRRRRRRRRRRRRRRRRRRRRR==rrRRRRRRRRRRRRRRRRRRRRHH%%}}RRRRHH",
"}}RRRRRRRRRRRRRRRRRRRRRRRRRRRRRRRRRRHH  }}RRRRRRRRRRRRRRRRRRRRRRRRRRRRRRRRRRRRRRRRRRRRRRRRRR==rrRRRRRRRRRRRRRRRRRRRRHH%%}}RRRRHH",
"}}RRRRRRRRRRRRRRRRRRRRRRRRRRRRRRRRRRHH  }}RRRRRRRRRRRRRRRRRRRRRRRRRRRRRRRRRRRRRRRRRRRR<<RRRR==RRRRRRRRRRRRRRRRRRRRRRHHcc}}RRRRHH",
"}}RRRRRRRRRRRRRRRRRRRRRRRRRRRRRRRRRRHH  }}RRRRRRRRRRRRRRRRRRRRRRRRRRRRRRRRRRRRRRRRRRRR<<RRRR==RRRRRRRRRRRRRRRRRRRRRRHHcc}}RRRRHH",
"}}RRRRRRRRRRRRRRRRRRRRRRRRRRRRRRRRRRHH%%}}RRRRRRRRRRRRRRRRRRRRRRRRRRRRRRRRRRRRRRRRRRRRRRRRRRRRRR==RRRRRRRRRRRRRRRRRRHH  }}RRRRHH",
"}}RRRRRRRRRRRRRRRRRRRRRRRRRRRRRRRRRRHH%%}}RRRRRRRRRRRRRRRRRRRRRRRRRRRRRRRRRRRRRRRRRRRRRRRRRRRRRR==RRRRRRRRRRRRRRRRRRHH  }}RRRRHH",
"}}RRRRRRRRRRRRRRRRRRRRRRRRRRRRRRRRRRHHcc}}RRRRRRRRRRRRRRRRRRRRRRRRRRRRRRRRRRRRRRRRRRRRRRRRRRRRRRRRRRRRRRRRRRRRRRRRRRHH  }}RRRRHH",
"}}RRRRRRRRRRRRRRRRRRRRRRRRRRRRRRRRRRHHcc}}RRRRRRRRRRRRRRRRRRRRRRRRRRRRRRRRRRRRRRRRRRRRRRRRRRRRRRRRRRRRRRRRRRRRRRRRRRHH  }}RRRRHH",
"}}RRRRRRRRRRRRRRRRRRRRRRRRRRRRRRRRRRHH%%}}RRRRRRRRRRRRRRRRRRRRRRRRRRRRRRRRRRRRRRRRRRRRRRRRRRRRRRRRRRRRRRRRRRRRRRRRRRHH%%}}RRRRHH",
"}}RRRRRRRRRRRRRRRRRRRRRRRRRRRRRRRRRRHH%%}}RRRRRRRRRRRRRRRRRRRRRRRRRRRRRRRRRRRRRRRRRRRRRRRRRRRRRRRRRRRRRRRRRRRRRRRRRRHH%%}}RRRRHH",
"HHHHHHHHHHHHHHHHHHHHHHHHHHHHHHHHHHHHHH==HHHHHHHHHHHHHHHHHHHHHHHHHHHHHHHHHHHHHHHHHHHHHHHHHHHHHHHHHHHHHHHHHHHHHHHHHHHHHH  HHHHHHHH",
"HHHHHHHHHHHHHHHHHHHHHHHHHHHHHHHHHHHHHH==HHHHHHHHHHHHHHHHHHHHHHHHHHHHHHHHHHHHHHHHHHHHHHHHHHHHHHHHHHHHHHHHHHHHHHHHHHHHHH  HHHHHHHH",
"==<<<<    %%%%cc  %%    %%cc%%%%    <<rrrr  %%%%      %%%%%%    %%      %%%%      %%%%  %%    %%%%      %%%%      %%%%    %%%%  ",
";;,,tt$$XX%%ggBB$$gg$$$$ggBBgggg$$$$tteeww$$gggg$$XX  gggggg$$$$gg$$$$$$gggg$$$$$$gggg$$gg$$$$gggg$$$$XX%%gg$$$$$$gggg$$$$gggg$$",
"rr==}}}}HH%%}}}}}}}}}}}}}}}}}}}}}}}}}}<<==}}}}}}}}HH  }}}}}}}}}}}}}}}}}}}}}}}}}}}}}}}}}}}}}}}}}}}}}}}}HH%%}}}}}}}}}}}}}}}}}}}}}}",
"rr==}}}}HH%%}}}}}}}}}}}}}}}}}}}}}}}}}}<<==}}}}}}}}HH  }}}}}}}}}}}}}}}}}}}}}}}}}}}}}}}}}}}}}}}}}}}}}}}}HH%%}}}}}}}}}}}}}}}}}}}}}}",
"<<RRRRRRHH  }}RRRRRRRRRRRRRRRRRRRRRRRR==RRRRRRRRRRHH%%}}RRRRRRRRRRRRRRRRRRRRRRRRRRRRRRRRRRRRRRRRRRRRRRHH  }}RRRRRRRRRRRRRRRRRRHH",
"<<RRRRRRHH  }}RRRRRRRRRRRRRRRRRRRRRRRR==RRRRRRRRRRHH%%}}RRRRRRRRRRRRRRRRRRRRRRRRRRRRRRRRRRRRRRRRRRRRRRHH  }}RRRRRRRRRRRRRRRRRRHH",
"}}RRRRRRHH%%}}RRRRRRRRRRRRRRRRRRRRRRRRRRRRRRRRRRRRHH%%}}RRRRRRRRRRRRRRRRRRRRRRRRRRRRRRRRRRRRRRRRRRRRRRHH  }}RRRRRRRRRRRRRRRRRRHH",
"}}RRRRRRHH%%}}RRRRRRRRRRRRRRRRRRRRRRRRRRRRRRRRRRRRHH%%}}RRRRRRRRRRRRRRRRRRRRRRRRRRRRRRRRRRRRRRRRRRRRRRHH  }}RRRRRRRRRRRRRRRRRRHH",
"}}RRRRRRHHcc}}RRRRRRRRRRRRRRRRRRRRRRRRRRRRRRRRRRRRHH  }}RRRRRRRRRRRRRRRRRRRRRRRRRRRRRRRRRRRRRRRRRRRRRRHH  }}RRRRRRRRRRRRRRRRRRHH",
"}}RRRRRRHHkk}}RRRRRRRRRRRRRRRRRRRRRRRRRRRRRRRRRRRRHH  }}RRRRRRRRRRRRRRRRRRRRRRRRRRRRRRRRRRRRRRRRRRRRRRHH**}}RRRRRRRRRRRRRRRRRRHH",
"}}RRRRRRHH%%}}RRRRRRRRRRRRRRRRRRRRRRRRRRRRRRRRRRRRHH  }}RRRRRRRRRRRRRRRRRRRRRRRRRRRRRRRRRRRRRRRRRRRRRRHHrr}}RRRRRRRRRRRRRRRRRRHH",
"}}RRRRRRHH%%}}RRRRRRRRRRRRRRRRRRRRRRRRRRRRRRRRRRRRHH  }}RRRRRRRRRRRRRRRRRRRRRRRRRRRRRRRRRRRRRRRRRRRRRRHHrr}}RRRRRRRRRRRRRRRRRRHH",
"}}RRRRRRHH  }}RRRRRRRRRRRRRRRRRRRRRRRRRRRRRRRRRRRRHH==}}RRRRRRRRRRRRRRRRRRRRRRRRRRRRRRRRRRRRRRRRRRRRRRHH==}}RRRRRRRRRRRRRRRRRRHH",
"}}RRRRRRHH  }}RRRRRRRRRRRRRRRRRRRRRRRRRRRRRRRRRRRRHH==}}RRRRRRRRRRRRRRRRRRRRRRRRRRRRRRRRRRRRRRRRRRRRRRHH==}}RRRRRRRRRRRRRRRRRRHH",
"HHHHHHHHHH  HHHHHHHHHHHHHHHHHHHHHHHHHHHHHHHHHHHHHHHHrrHHHHHHHHHHHHHHHHHHHHHHHHHHHHHHHHHHHHHHHHHHHHHHHHHH==HHHHHHHHHHHHHHHHHHHHHH",
"NNNNvvDDNN  vvNNNNvvDDvvNNNNvvvvvvDDDDNNNNvvvvDDvvNNqqCCvvvvDDNNNNvvvvDDvvNNNNNNvvvvNNNNDDvvNNNNvvmmAACC;;vvvvvvvvvvvvNNNNDDvvvv",
"%%%%  cc%%    %%%%  cc  %%%%      cccc%%%%    cc  %%==<<    cc%%%%    cc  %%%%%%    %%%%cc  %%%%  ==dd<<<<            %%%%cc    ",
"QQQQLL~~QQLLLLQQQQLLMM  QQQQLLLLLL~~~~QQQQLLLL~~LLQQ00WWLLLL~~QQQQLLLL~~LLQQxxooLLLLQQQQ~~LLQQQQLLEEuu>>WWLLLLLLLLLLLLQQQQ~~LLff",
"}}}}}}}}}}}}}}}}}}}}HH  }}}}}}}}}}}}}}}}}}}}}}}}}}}}aa}}}}}}}}}}}}}}}}}}}}}}HH  }}}}}}}}}}}}}}}}}}}}<<==}}}}}}}}}}}}}}}}}}}}}}HH",
"}}}}}}}}}}}}}}}}}}}}HH  }}}}}}}}}}}}}}}}}}}}}}}}}}}}aa}}}}}}}}}}}}}}}}}}}}}}HH  }}}}}}}}}}}}}}}}}}}}<<==}}}}}}}}}}}}}}}}}}}}}}HH",
"}}RRRRRRRRRRRRRRRRRRHH%%}}RRRRRRRRRRRRRRRRRRRRRRRRRRRRRRRRRRRRRRRRRRRRRRRRRRHH%%}}RRRRRRRRRRRRRRRRRR<<RRRRRRRRRRRRRRRRRRRRRRRRHH",
"}}RRRRRRRRRRRRRRRRRRHH##}}RRRRRRRRRRRRRRRRRRRRRRRRRRYYRRRRRRRRRRRRRRRRRRRRRRHH##}}RRRRRRRRRRRRRRRRRR22RRRRRRRRRRRRRRRRRRRRRRRRHH",
"}}RRRRRRRRRRRRRRRRRRHH  }}RRRRRRRRRRRRRRRRRRRRRRRRRRaaRRRRRRRRRRRRRRRRRRRRRRHH  }}RRRRRRRRRRRRRRRRRRRRRRRRRRRRRRRRRRRRRRRRRRRRHH",
"}}RRRRRRRRRRRRRRRRRRHH  }}RRRRRRRRRRRRRRRRRRRRRRRRRRPPRRRRRRRRRRRRRRRRRRRRRRHH  }}RRRRRRRRRRRRRRRRRRZZRRRRRRRRRRRRRRRRRRRRRRRRHH",
"}}RRRRRRRRRRRRRRRRRRHH  }}RRRRRRRRRRRRRRRRRRRRRRRRRRRRRRRRRRRRRRRRRRRRRRRRRRHH  }}RRRRRRRRRRRRRRRRRR==RRRRRRRRRRRRRRRRRRRRRRRRHH",
"}}RRRRRRRRRRRRRRRRRRHH++}}RRRRRRRRRRRRRRRRRRRRRRRRRRRRRRRRRRRRRRRRRRRRRRRRRRHH  }}RRRRRRRRRRRRRRRRRRSSRRRRRRRRRRRRRRRRRRRRRRRRHH",
"}}RRRRRRRRRRRRRRRRRRHH%%}}RRRRRRRRRRRRRRRRRRRRRRRRRRRRRRRRRRRRRRRRRRRRRRRRRRHH  }}RRRRRRRRRRRRRRRRRRRRRRRRRRRRRRRRRRRRRRRRRRRRHH",
"}}RRRRRRRRRRRRRRRRRRHH%%}}RRRRRRRRRRRRRRRRRRRRRRRRRRRRRRRRRRRRRRRRRRRRRRRRRRHH  }}RRRRRRRRRRRRRRRRRRRRRRRRRRRRRRRRRRRRRRRRRRRRHH",
"}}RRRRRRRRRRRRRRRRRRHH<<}}RRRRRRRRRRRRRRRRRRRRRRRRRRRRRRRRRRRRRRRRRRRRRRRRRRHH  }}RRRRRRRRRRRRRRRRRRRRRRRRRRRRRRRRRRRRRRRRRRRRHH",
"((LLLLLLLLLLLLLLLLLLHH<<((LLLLLLLLLLLLLLLLLLLLLLLLLLLLLLLLLLLLLLLLLLLLLLLLLLHH  ((LLLLLLLLLLLLLLLLLLLLLLLLLLLLLLLLLLLLLLLLLLLLHH",
"HHHHHHHHHHHHHHHHHHHHHH<<HHHHHHHHHHHHHHHHHHHHHHHHHHHHHHHHHHHHHHHHHHHHHHHHHHHHHH  HHHHHHHHHHHHHHHHHHHHHHHHHHHHHHHHHHHHHHHHHHHHHHHH",
"33llllbbll33llll33ii77pp333333ll33bbllll333333bbllll33333333bbbb3333llllbb3333  3333ll3333bbllllllll333377ii8888333333llllbb3333",
"  %%%%cc%%  %%%%  rr==dd      %%  cc%%%%      cc%%%%        cccc    %%%%cc          %%    cc%%%%%%%%    ==rr<<<<      %%%%cc    ",
"))````{{``VV%%``))[[,,ss))))))``)){{````)))))){{````))))))))FFcc))))````{{))))))))))``)))){{````````))))__11--]]))))))````{{))VV",
"}}}}}}}}}}HH%%}}}}}}<<aa}}}}}}}}}}}}}}}}}}}}}}}}}}}}}}}}}}}}HHcc}}}}}}}}}}}}}}}}}}}}}}}}}}}}}}}}}}}}}}}}}}<<==}}}}}}}}}}}}}}}}HH",
"}}''''''''HH@@}}''''66uu''''''''''''''''''''''''''''''''''''HHzz}}''''''''''''''''''''''''''''''''''''''''55==}}''''''''''''''HH",
"}}RRRRRRRRHH  }}RRRRRR==RRRRRRRRRRRRRRRRRRRRRRRRRRRRRRRRRRRRHH%%}}RRRRRRRRRRRRRRRRRRRRRRRRRRRRRRRRRRRRRRRRHH==}}RRRRRRRRRRRRRRHH",
"}}RRRRRRRRHH  }}RRRRRRnnRRRRRRRRRRRRRRRRRRRRRRRRRRRRRRRRRRRRHHoo}}RRRRRRRRRRRRRRRRRRRRRRRRRRRRRRRRRRRRRRRRHH&&}}RRRRRRRRRRRRRRHH",
"}}RRRRRRRRHH  }}RRRRRRRRRRRRRRRRRRRRRRRRRRRRRRRRRRRRRRRRRRRRHH  }}RRRRRRRRRRRRRRRRRRRRRRRRRRRRRRRRRRRRRRRRHH  }}RRRRRRRRRRRRRRHH",
"}}RRRRRRRRHHjj}}RRRRRR44RRRRRRRRRRRRRRRRRRRRRRRRRRRRRRRRRRRRHH  }}RRRRRRRRRRRRRRRRRRRRRRRRRRRRRRRRRRRRRRRRHHjj}}RRRRRRRRRRRRRRHH",
"}}RRRRRRRRHHcc}}RRRRRR==RRRRRRRRRRRRRRRRRRRRRRRRRRRRRRRRRRRRHH  }}RRRRRRRRRRRRRRRRRRRRRRRRRRRRRRRRRRRRRRRRHHcc}}RRRRRRRRRRRRRRHH",
"}}RRRRRRRRHH%%}}RRRRRRRRRRRRRRRRRRRRRRRRRRRRRRRRRRRRRRRRRRRRHH  }}RRRRRRRRRRRRRRRRRRRRRRRRRRRRRRRRRRRRRRRRHH  }}RRRRRRRRRRRRRRHH",
"}}RRRRRRRRHH%%}}RRRRRRRRRRRRRRRRRRRRRRRRRRRRRRRRRRRRRRRRRRRRHH  }}RRRRRRRRRRRRRRRRRRRRRRRRRRRRRRRRRRRRRRRRHH  }}RRRRRRRRRRRRRRHH",
"}}RRRRRRRRHHOO}}RRRRRRRRRRRRRRRRRRRRRRRRRRRRRRRRRRRRRRRRRRRRHHXX}}RRRRRRRRRRRRRRRRRRRRRRRRRRRRRRRRRRRRRRRRHH  }}RRRRRRRRRRRRRRHH",
"}}RRRRRRRRHH  }}RRRRRRRRRRRRRRRRRRRRRRRRRRRRRRRRRRRRRRRRRRRRHH%%}}RRRRRRRRRRRRRRRRRRRRRRRRRRRRRRRRRRRRRRRRHH  }}RRRRRRRRRRRRRRHH",
"!!KKKKKKKKHH++!!KKKKKKKKKKKKKKKKKKKKKKKKKKKKKKKKKKKKKKKKKKKKHH::!!KKKKKKKKKKKKKKKKKKKKKKKKKKKKKKKKKKKKKKKKHH++!!KKKKKKKKKKKKKKHH",
"HHHHHHHHHHHH%%HHHHHHHHHHHHHHHHHHHHHHHHHHHHHHHHHHHHHHHHHHHHHHHH<<HHHHHHHHHHHHHHHHHHHHHHHHHHHHHHHHHHHHHHHHHHHH%%HHHHHHHHHHHHHHHHHH",
"  %%%%%%cc    %%%%    cc%%%%    %%    cc%%  %%            %%==<<==    %%    cccc%%%%cc          %%%%cccc      %%%%        %%    ",
"  %%%%%%cc    %%%%    cc%%%%    %%    cc%%  %%            %%==<<==    %%    cccc%%%%cc          %%%%cccc      %%%%        %%    ",
"}}}}}}}}}}}}}}}}}}}}}}}}}}}}}}}}}}}}}}HH%%}}}}}}}}}}}}}}}}}}<<dd==}}}}}}}}}}}}}}}}}}}}HH%%}}}}}}}}}}}}}}}}}}}}}}}}}}}}}}}}}}}}}}",
"}}}}}}}}}}}}}}}}}}}}}}}}}}}}}}}}}}}}}}HH%%}}}}}}}}}}}}}}}}}}<<dd==}}}}}}}}}}}}}}}}}}}}HH%%}}}}}}}}}}}}}}}}}}}}}}}}}}}}}}}}}}}}}}",
"}}////////////////////////////////////HHgg}}////////////////IIyy99////////////////////HH%%}}//////////////////////////////////^^",
"}}RRRRRRRRRRRRRRRRRRRRRRRRRRRRRRRRRRRRHHcc}}RRRRRRRRRRRRRRRRRR<<rrRRRRRRRRRRRRRRRRRRRRHH%%}}RRRRRRRRRRRRRRRRRRRRRRRRRRRRRRRRRRHH",
"}}RRRRRRRRRRRRRRRRRRRRRRRRRRRRRRRRRRRRHH..}}RRRRRRRRRRRRRRRRRR--UURRRRRRRRRRRRRRRRRRRRHHxx}}RRRRRRRRRRRRRRRRRRRRRRRRRRRRRRRRRRHH",
"}}RRRRRRRRRRRRRRRRRRRRRRRRRRRRRRRRRRRRHH  }}RRRRRRRRRRRRRRRRRR==RRRRRRRRRRRRRRRRRRRRRRHHcc}}RRRRRRRRRRRRRRRRRRRRRRRRRRRRRRRRRRHH",
"}}RRRRRRRRRRRRRRRRRRRRRRRRRRRRRRRRRRRRHH  }}RRRRRRRRRRRRRRRRRRRRRRRRRRRRRRRRRRRRRRRRRRHH  }}RRRRRRRRRRRRRRRRRRRRRRRRRRRRRRRRRRHH",
"}}RRRRRRRRRRRRRRRRRRRRRRRRRRRRRRRRRRRRHH  }}RRRRRRRRRRRRRRRRRRRRRRRRRRRRRRRRRRRRRRRRRRHH  }}RRRRRRRRRRRRRRRRRRRRRRRRRRRRRRRRRRHH",
"}}RRRRRRRRRRRRRRRRRRRRRRRRRRRRRRRRRRRRHH  }}RRRRRRRRRRRRRRRRRRRRRRRRRRRRRRRRRRRRRRRRRRHH  }}RRRRRRRRRRRRRRRRRRRRRRRRRRRRRRRRRRHH",
"}}RRRRRRRRRRRRRRRRRRRRRRRRRRRRRRRRRRRRHH  }}RRRRRRRRRRRRRRRRRRRRRRRRRRRRRRRRRRRRRRRRRRHH  }}RRRRRRRRRRRRRRRRRRRRRRRRRRRRRRRRRRHH",
"}}RRRRRRRRRRRRRRRRRRRRRRRRRRRRRRRRRRRRHHhh}}RRRRRRRRRRRRRRRRRRRRRRRRRRRRRRRRRRRRRRRRRRHH  }}RRRRRRRRRRRRRRRRRRRRRRRRRRRRRRRRRRHH",
"}}RRRRRRRRRRRRRRRRRRRRRRRRRRRRRRRRRRRRHHcc}}RRRRRRRRRRRRRRRRRRRRRRRRRRRRRRRRRRRRRRRRRRHH  }}RRRRRRRRRRRRRRRRRRRRRRRRRRRRRRRRRRHH",
"HHHHHHHHHHHHHHHHHHHHHHHHHHHHHHHHHHHHHHHH%%HHHHHHHHHHHHHHHHHHHHHHHHHHHHHHHHHHHHHHHHHHHHHHrrHHHHHHHHHHHHHHHHHHHHHHHHHHHHHHHHHHHHHH",
"HHHHHHHHHHHHHHHHHHHHHHHHHHHHHHHHHHHHHHHH%%HHHHHHHHHHHHHHHHHHHHHHHHHHHHHHHHHHHHHHHHHHHHHHrrHHHHHHHHHHHHHHHHHHHHHHHHHHHHHHHHHHHHHH",
"    %%%%    %%      rr<<  %%%%      %%%%      cc%%%%  %%    cccc%%%%rr<<==ddrr<<      ==<<    cccc%%%%  %%cc        ==rr==<<%%%%",
"    %%%%    %%      rr<<  %%%%      %%%%      cc%%%%  %%    cccc%%%%rr<<==ddrr<<      ==<<    cccc%%%%  %%cc        ==rr==<<%%%%",
"}}}}}}}}}}}}}}HH==}}}}}}}}}}}}}}}}}}}}}}}}}}}}}}}}}}}}}}}}}}}}}}}}}}}}==}}<<==}}}}}}}}}}}}}}}}}}}}}}}}}}}}}}}}}}}}}}}}}}}}}}}}}}",
"}}}}}}}}}}}}}}HH==}}}}}}}}}}}}}}}}}}}}}}}}}}}}}}}}}}}}}}}}}}}}}}}}}}}}==}}<<==}}}}}}}}}}}}}}}}}}}}}}}}}}}}}}}}}}}}}}}}}}}}}}}}}}",
"}}QQQQQQQQQQQQHHrr}}QQQQQQQQQQQQQQQQQQQQQQQQQQQQQQQQQQQQQQQQQQQQQQQQQQTTQQGG==}}QQQQQQQQQQQQQQQQQQQQQQQQQQQQQQQQQQQQQQQQQQQQQQJJ",
"}}RRRRRRRRRRRRHHrr}}RRRRRRRRRRRRRRRRRRRRRRRRRRRRRRRRRRRRRRRRRRRRRRRRRRRRRRHH==}}RRRRRRRRRRRRRRRRRRRRRRRRRRRRRRRRRRRRRRRRRRRRRRHH",
"}}RRRRRRRRRRRRHH  }}RRRRRRRRRRRRRRRRRRRRRRRRRRRRRRRRRRRRRRRRRRRRRRRRRR==RRHH  }}RRRRRRRRRRRRRRRRRRRRRRRRRRRRRRRRRRRRRRRRRRRRRRHH",
"}}RRRRRRRRRRRRHH  }}RRRRRRRRRRRRRRRRRRRRRRRRRRRRRRRRRRRRRRRRRRRRRRRRRR==RRHH  }}RRRRRRRRRRRRRRRRRRRRRRRRRRRRRRRRRRRRRRRRRRRRRRHH",
"}}RRRRRRRRRRRRHHcc}}RRRRRRRRRRRRRRRRRRRRRRRRRRRRRRRRRRRRRRRRRRRRRRRRRRRRRRHH%%}}RRRRRRRRRRRRRRRRRRRRRRRRRRRRRRRRRRRRRRRRRRRRRRHH",
"}}RRRRRRRRRRRRHHcc}}RRRRRRRRRRRRRRRRRRRRRRRRRRRRRRRRRRRRRRRRRRRRRRRRRRRRRRHH%%}}RRRRRRRRRRRRRRRRRRRRRRRRRRRRRRRRRRRRRRRRRRRRRRHH",
"}}RRRRRRRRRRRRHH  }}RRRRRRRRRRRRRRRRRRRRRRRRRRRRRRRRRRRRRRRRRRRRRRRRRRRRRRHHcc}}RRRRRRRRRRRRRRRRRRRRRRRRRRRRRRRRRRRRRRRRRRRRRRHH",
"}}RRRRRRRRRRRRHH  }}RRRRRRRRRRRRRRRRRRRRRRRRRRRRRRRRRRRRRRRRRRRRRRRRRRRRRRHHcc}}RRRRRRRRRRRRRRRRRRRRRRRRRRRRRRRRRRRRRRRRRRRRRRHH",
"}}RRRRRRRRRRRRHH  }}RRRRRRRRRRRRRRRRRRRRRRRRRRRRRRRRRRRRRRRRRRRRRRRRRRRRRRHH%%}}RRRRRRRRRRRRRRRRRRRRRRRRRRRRRRRRRRRRRRRRRRRRRRHH",
"}}RRRRRRRRRRRRHH  }}RRRRRRRRRRRRRRRRRRRRRRRRRRRRRRRRRRRRRRRRRRRRRRRRRRRRRRHH%%}}RRRRRRRRRRRRRRRRRRRRRRRRRRRRRRRRRRRRRRRRRRRRRRHH",
"HHHHHHHHHHHHHHHH%%HHHHHHHHHHHHHHHHHHHHHHHHHHHHHHHHHHHHHHHHHHHHHHHHHHHHHHHHHH%%HHHHHHHHHHHHHHHHHHHHHHHHHHHHHHHHHHHHHHHHHHHHHHHHHH",
"HHHHHHHHHHHHHHHH%%HHHHHHHHHHHHHHHHHHHHHHHHHHHHHHHHHHHHHHHHHHHHHHHHHHHHHHHHHH%%HHHHHHHHHHHHHHHHHHHHHHHHHHHHHHHHHHHHHHHHHHHHHHHHHH",
"%%%%  rr<<==  cc%%%%%%      cc%%    %%%%  ddcc%%        %%    cc%%%%    %%cccc      %%%%    cc%%  %%    cc%%%%  %%    cc%%cc%%%%",
"%%%%  rr<<==  cc%%%%%%      cc%%    %%%%  ddcc%%        %%    cc%%%%    %%cccc      %%%%    cc%%  %%    cc%%%%  %%    cc%%cc%%%%"
};
