/* XPM */
static char *a7d6247e936942aaac5aa49e316a3a58J33CdSfWSgcQCJNZ[] = {
/* columns rows colors chars-per-pixel */
"64 64 42 1 ",
"  c #0D2B45",
". c #16334D",
"X c #17344E",
"o c #203C56",
"O c #2E3B55",
"+ c #333E58",
"@ c #38445E",
"# c #3C4660",
"$ c #49485E",
"% c #725C57",
"& c #7D6158",
"* c #514C61",
"= c #544E68",
"- c #535167",
"; c #5A5469",
": c #6F5B70",
"> c #725C72",
", c #8E6661",
"< c #966960",
"1 c #8D697A",
"2 c #A47963",
"3 c #AF7F63",
"4 c #AC746B",
"5 c #B17668",
"6 c #D08159",
"7 c #E6945B",
"8 c #E9975C",
"9 c #FFAA5E",
"0 c #C2876D",
"q c #CA8C6B",
"w c #E6A87C",
"e c #FFBE7E",
"r c #C29B8D",
"t c #E9AD80",
"y c #E9BA9B",
"u c #FFC083",
"i c #FFC996",
"p c #FFCD9E",
"a c #FFD4A3",
"s c #FFDFBB",
"d c #FFE1BE",
"f c #FFECD6",
/* pixels */
"4quaaaae99999999ue9999uaaaaaae9ueue997878999999999999997,=32=>58",
"fffffffffffffsdfffsaaadsaaadffsadfffiudfffsdffffffsaaaaaw664-&ta",
"aaaaaaaaaaaaaaadfffffffsdfffsaaaaaaaaaaaaaadffffffffffsae76,=3ua",
"aaaaaaaaaaaaaaaaaaaaaaadfffffffsaaadffffffsaaaaaaaaaaaaae780:3ua",
"saaaaaaaaaaaaaaaaaaaaaaaaaaaaaaaaaaaaaaaaaaaaaaaaaaaaaaae7666ysa",
"saaaaaaaaaaaaaaaaaaaaaaaaaaaaaaaaaaaaaaaaaaaaaadffsaaaaaaw456taa",
"ffffffi999pfffffi999pffi999pfffi999pfffffffffffi99pffffsaw456taa",
"i999999999999999999999999999999999999999999999999999999uaw666tae",
"i999999999999999999999999999999999999999999999999999999uaw666tae",
"i9999999999999999999999999999999999999999999999999999999uw6668ue",
"i99999999999uaaae999999999999uaae78999999999999999999999uw6668ue",
"9999999999999764589999999999997689999999999999999999999uaw645tae",
"9789999999999999999999999999999999999999999999999999999uaw666tae",
"9978999999999999999999999999999999999999999999999999uaaaaw666taa",
"666668999976666668999999999997666899768997899uae997666taw6456tw6",
"6666876666666666666668976666666666666666664568766666666tr1111156",
"4156664566641545666666666666411545666666641566666666641111:>1156",
"1111111111111111:==========================>1:>1111:>1111:=>11:=",
"==========@#===============================>1:>:=====>1111:=====",
"=====>-oo. *1:===============================@#>11:==>111111:>11",
"=======@o.+=======>:============================>11111:==>1:===>",
"99990:>1$+=>5897666689990:>q99901:=======>q999999999999999999999",
"99999011$+>589999789978990q9999990:>q999999999999999999999999999",
"8789992>-#<87897666666666666666689999768789999999976666666666666",
"666687,@;:<87666666666666666666666666666666666666666666666666666",
"6666682@#=376666666666666666666666666666666666666666666666666666",
"6666682@#=376666666666411115666666666666666666666666666666666666",
"6666892===376666666689uae974566666666666666666666666666666666666",
"6666892===397666666666666666666666666666666666666666666666666666",
"6666682===397666666666666666666666666666666666666666666666666666",
"6666892===<87666666666666666666666664566666666666666666666666666",
"5666682===397666666666666666664156645666666666666666411115666666",
"5666682>:=376666666666666666666641:37666666666666664q99997666666",
"6666892>:=39766666666666666666411q901156666666666689999766666666",
"4156892===397645666666666666666666666666666666666666666666666666",
"11111q2===301115666666666666666666666666664566415664566666666641",
"11111:====>111111111111115664111541111111:=>11111111154115415411",
"1111:=========>1111:=>1111111111111:@ooooooo;111-;11111111111111",
"oooooooooooooooooooooooooooooooooooooooooooooooooooooooooooooooo",
"oooooooooooooooooooooo#@oo. Xooooooooooo#@oooooooooooooooooooooo",
"#==@oooo#@oooooooooo#===@ooo#@ooooo#=@o#@ooooooooooooooooo;1:=@o",
"oooooooooooooooooooooooo#O Xoooooooooooooooooooooo#@#@oooooooooo",
"6,=<6666,@#<66666411:=@o#O X#>1:=@#@oo#>566,@#>5666666666,<4:=>5",
"6666666666664566666666,@#@oo&66666666666666666666666456664566666",
"6415666645664111566666,@o#@o&66666415456645666641154111111111566",
"11111111111111111111154-o#@#<411111111111111111111:>111111111111",
"11111111111111111111154-;-o#>11111111111111111111111111111111111",
"11111111111111111111156%#@o;541111111111111111111111111111111111",
"11111111111111111111115%o#@;541111111111111111111111111111111111",
"1111111111:@;1111111156%ooo&641111111111111111111111111111111111",
"11111111111:>1111111115%ooo&4111111111111111111111111111:>1:=>11",
"111111111111:<411111111-ooo&411111111111111111111111:=>:>:==<411",
"11111111111115411111115%ooo&6411111111111111111115,==>:==<664111",
"11111111111111111111156%ooo;541111111111111111111156666641111111",
"11111111111111111111156%ooo&641111111111111111111111111111111111",
"11111111111111111111156%o.X&641111111111111111111111111111111111",
"11111111111111111111156%o.X&64111111111111111111111111111:>11111",
">11:==>:===>11111111:<6%#@o&,=>:=>1:==>:==>11:>:==>1111:====>11:",
":======>:=============<%#@.+==================================>1",
"@oooo#====@#=========@oo#@. X#=======@#=======@oo#=====@o#=@#===",
"oooooooooooooooooooooo#==@.  Xoooooooooooo.                     ",
"ooooooooooooooooooo#=====@o.  Xo#O                              ",
"oooooooooooooooooo#@o;:===@o.Xo#@.   Xooo.                      ",
"oooooooooooooooooo#=@o.                                  Xo.    "
};
