/* XPM */
static char *result[] = {
/* columns rows colors chars-per-pixel */
"64 128 24 1 ",
"  c #BD3402",
". c #BF3805",
"X c #C13605",
"o c #C23906",
"O c #C23708",
"+ c #C53C0A",
"@ c #C93E0C",
"# c #C6400F",
"$ c #CC410E",
"% c #C74110",
"& c #CD4311",
"* c #CF4816",
"= c #CF4A19",
"- c #D04614",
"; c #D04816",
": c #D24D1B",
"> c #D5501F",
", c #D34F20",
"< c #D65222",
"1 c #D85626",
"2 c #D85827",
"3 c #DA5729",
"4 c #DC5B2B",
"5 c None",
/* pixels */
"5555555555555555555555555555555555555555555555555555555555555555",
"5555555555555555555555555555555555555555555555555555555555555555",
"5555555555555555555555555555555555555555555555555555555555555555",
"5555555555555555555555555555555555555555555555555555555555555555",
"5555555555555555555555555555555555555555555555555555555555555555",
"5555555555555555555555555555555555555555555555555555555555555555",
"5555555555555555555555555555555555555555555555555555555555555555",
"5555555555555555555555555555555555555555555555555555555555555555",
"&-$--55555555555555555555555555555555555555555555555555555555555",
"&$$$-@555555555555555555555555555555555555    555555555555555555",
"&&$-@--5555555555555555555555555555555555      55555555555555555",
"&-$$-@-$55555555555555555555555555555555       55555555555555555",
"&@-@-@-@55555555555555555555555555555555       55555555555555555",
"&-@-@-@@55555555555555555555555555555555       55555555555555555",
"@@@@--@@55555555555555555555555555555555XX  X 555555555555555555",
"----@@@@55555555555555555555555555555555XX  X5555555555555555555",
"55555555O.   5555555555555555555555$$$@o555555555555555555555555",
"55555555X     55555555555555555555-&$$@+555555555555555555555555",
"55555555.      555555555555555555-$$$$@@555555555555555555555555",
"55555555       55555555555555555$&$$$$$$555555555555555555555555",
"55555555    XX 55555555555555555$$$&$&$$555555555555555555555555",
"55555555.   XX 5555555555555555-$$$$$$$$555555555555555555555555",
"55555555X   XX5555555555555555-@$$$&$$$$555555555555555555555555",
"55555555O.  X5555555555555555-@-$$$&&&$$555555555555555555555555",
"&&&@@@@@5555555555555555555-@-@@$$$&$$$$555555555555555555555555",
"&&-@-@@@555555555555555555$$$$@-$$-$$$$$555555555555555555555555",
"-$--@-@@55555555555555555@@$@-$$-$$$$$$$555555555555555555555555",
"$$$$-@@-5555555555555555&--$-$$$$$$$$$$$555555555555555555555555",
"-@----@-5555555555555555$$$$@$-$$$$$$@-@555555555555555555555555",
"--@@@@-55555555555555555$$-$$$$$$$-$--@@@55555555555555555555555",
"@-@---555555555555555555$$$$$-$$-$-@@@@@@@5555555555555555555555",
"-$-@-5555555555555555555-$-$@@$-$$@-@-@@o@@555555555555555555555",
"5555555555555555555&$$&&55555$-$-$$$$@$@+oXX XXX@@@@-55555555555",
"555555555555555555&&-$&&555555$$$-$-$&@@ooXX XXO@@@@-@5555555555",
"55555555555555555-@-$-$&5555555--$$-&@@++oXXXXXO@@@--$@555555555",
"55555555555555555@-@$$$$55555555$&$$&@@++oXXXXoO@@@@@--555555555",
"55555555555555555&&--@,455555555-&&&&@@+OXXXXXXO@@@@@--555555555",
"55555555555555555&&@@--5555555555&&&&@@@@oXXXXXo@@@@-@-555555555",
"555555555555555555&--@555555555555-&&@@@O@ooooOO@@@--@5555555555",
"55555555555555555555555555555555555&&&@@@o@oo++@@@@@-55555555555",
"5555555555555555555555555555555555555-@@@@@@@O@@@@$5555555555555",
"55555555555555555555555555555555555555$$@@@@@@@@$-55555555555555",
"555555555555555555555555555555555555555-@@@@@@@@-555555555555555",
"5555555555555555555555555555555555555555@@-@-$@@5555555555555555",
"5555555555555555555555555555555555555555$--$@@-@5555555555555555",
"5555555555555555555555555555555555555555$$$$--@-5555555555555555",
"5555555555555555555555555555555555555555-$$--$--5555555555555555",
"5555555555555555555555555555555555555555-$-$$-$@5555555555555555",
"5555555555555555555555555555555555555555$$$$$$$$5555555555555555",
"5555555555-@@-55555555555544445555555555-$--$-$-5555555555555555",
"555555555--@--@5555555555444444555555555$$-$$-$$5555555555555555",
"55555555@-$--@--555555554444444455555555-$$$-$$-5555555555555555",
"55555555--------555555552243322255555555$$$-$$$$5555555555555555",
"55555555--------55555555<232222<>555555@$$$$-$--5555555555555555",
"55555555;>;-:>-;55555555,,,<,,==-&5555@@$$$$-$-@5555555555555555",
"55555555>>>>>>>>55555555,====%=%%+@Ooo@@$$$$-$--5555555555555555",
"555555553>1>441155555555;;-&&%%%@...XXX+@@@@-@-@5555555555555555",
"555555553113441155555555@@@@#++++.. XXXo@@@&@-@-5555555555555555",
"555555553433444455555555OO++XOXX    XXX@@@@-@-@-5555555555555555",
"555555554444444455555555. ..X X     XXoo@@@@-@--5555555555555555",
"555555554444444455555555    X        Ooo@O@@@@@@5555555555555555",
"555555553444444555555555 .   .XX   XXXooO@@@@@@@-555555555555555",
"555555551344445555555555.OXXXXXXOOOOXXXo@@@@@@@@-$55555555555555",
"55555555>>34455555555555OOOOOOOOOOOOOOo@oOo@@@@@$$-5555555555555",
"    .++&5555555555555555oo+o+++o@o@ooo+o++ooo+o@@@@&$55555555555",
"     OOO5555555555555555$$++o@@+@o@+@+++oooooo+++@@$&&5555555555",
"      XO5555555555555555+$$+#$@@$@+##@oo+XXXXoO+@@@&$$&555555555",
"        5555555555555555$$+$$$$$$$$$#@#o+XXXXXX+O@@$$&&555555555",
"       X5555555555555555$$$$$&&&$$$&%$#++o.  XXX+@$$&&&555555555",
"     X  5555555555555555$$$$%&&&$---&&$#+o.. XXO+@+$$$$555555555",
"    XXXO5555555555555555$&$$&&&-*;;;**&#++.   XXO+@$&&5555555555",
"    XXo@5555555555555555&&&&*&-;;:;>=**%#+X.  XXO++@&55555555555",
"55555555@@@@-55555555555-@-$-&-;;>>>::*&%+... OO+++5555555555555",
"55555555@@@-@-5555555555$-$-&-;:>><><>=&%%...   XX55555555555555",
"55555555@@-@-@-555555555-@-&-;::>>11<<==%%+.    .555555555555555",
"55555555-@@-@-@-55555555-&&&&;;:>>222<<=%%+.    .555555555555555",
"55555555@&&@-@--55555555&@&&@==,=<<21<==&%+. .   555555555555555",
"55555555&&&&$-&-;555555;*&%&@@===,<<<,==%#..X X..555555555555555",
"55555555&&$@---;::5555:;@%@@@*=====,===%&%++XXXX.X55555555555555",
"55555555&&--$-;::><41<:;**@@+@@@&======%%+++OOXXX..5555555555555",
"55555555&&&&--;:><343<:=%%@+.+@@%%&%=@=%@@@@++.OXXX  55555555555",
"55555555&$$---;::13331::*@+O. .+++%%@@.@@@@@+@++OXX   5555555555",
"55555555&&&&--;><<443<>:&%+O    O..OO@+@@@%@@@+OOXX    555555555",
"55555555&&&---::<13431::%%+O    . .....O.@%@%@@@OX      55555555",
"55555555$$$$-;;><<3322<==%+.          ..+@@$%@@+oOXX    55555555",
"55555555$$$$$-;:,23432,=%%O.          ..+@$$&@@OOOXX   X.5555555",
"55555555#$##$&::,<3231,==%+.            +@@$-@@+OOXX  XXXX555555",
"55555555@oo##$*:,22331,=%%..            @o@$@@++XX    XXX++55555",
"55555555o+o+##&=,<3332<==@           XX@o#$$$$ooOooXXXXXO@@@$-$-",
"55555555ooXX+$&=,,333<,=%@O          XXoo@$$$+$+OoXXXXXX@@@$$$$$",
"55555555XXXX.+%*:,3332,==O            oo+$$$$$@oOoXXXXXXO@$$$--$",
"55555555XX X.+#*:,1332,==%           Xoo+#+$$$@oOXXX  XX@@$$$-$-",
"55555555X ..++%*=,<33<,=%@O.XX      XXooo+@$$@@o@OoXXXXOO@@@-@-$",
"55555555.. X.#%%=,<1<,,==@@.XXXX    oooo$@$$$$@@OOooXX@O@@$@@-$$",
"55555555XX.X++%*;,,<<,===%@OOOXXOO  ooo@$o$$$$@@O@OXXOO@@@@$--@-",
"55555555O+o.+#%&;;,,,,===%@OOOOOOOO o@@o$$$$$$@@@@@@O@@@@@@$@---",
"55555555@@@++@$--;;>>;;;&$$##o#oo+@o@++$+$$$$$$@@@@@@@@@@@@55555",
"55555555@@@@@@$&--;;;;;;&&$$###$###@$#$$$$&$$$$$@@@@@@@@-@555555",
"55555555@@@@@$$$&-;;;;--&$$#$$$$#$$$$$$$$&&$$$$$$$$@@@@@@5555555",
"55555555@$$@$$$$&&---&&&*&$*$$$$&$$$$$$$&&$&$-$--@$$$&@@55555555",
"55555555-@@-@&&&&&&&-&-&-&-&$&&&&$&&$$$$$&$&$&-$-@-@$@$-55555555",
"555555555--@&&&@&&&&&---;--*****-$$$$$$$$&&$&&$$@-@-$--555555555",
"5555555555$$&@&&&&&&-&--;;:::;*&&$$#@@$$$$$$&&&$-@@-&-5555555555",
"55555555555$@&$-&$$&&--;;;::::;*&$#@@@@#$$$$&&&&---@&55555555555",
"5555555555555$$$$&$&&&;;>>>>>>>:&%%++++#@$$$-@$-$$$5555555555555",
"55555555555555-@$$&-&*;;:>>>>>::*%#++X++@@$$@-$$$$55555555555555",
"555555555555555$&$$&;&;>>>222>>*%%++.X++@@@$$$$$-555555555555555",
"555555555555555@$$$&&;;:>>>42>>;*%+...X+@@@$$$$$-555555555555555",
"555555555555555-$$&&&**:><<222>=*#+.XXoo+@@@$&$$@555555555555555",
"555555555555555$&$$&&&;::><<>>==%#..Xooo+@@$$$$$-555555555555555",
"55555555555555$$&$$&&***=>:,,==*%#oXXXoo@@$$$&&$--55555555555555",
"5555555555555$-$$&&$&$$**======%$#oXXoo@@@$$$&&$@-@5555555555555",
"55555555555$$&&$&&$&$$---$%&&&%%@+OX.X++@$$$$$--&&@&$55555555555",
"5555555555&$$$$&&$&$$$$$$$$#####++5555+@$$$$$$$$&&&&&$5555555555",
"555555555&$$$$$&$$&$$$$@##o##...@555555$$$&$$-$-@&$$$$$555555555",
"555555555&$$$&&$$-&&$$@@#ooo....55555555$&&&&$-$&-&&$$$555555555",
"555555555&&&$&&---&&&$@@++X .   55555555&-&&&&$$&@&$&$$555555555",
"555555555&&@&$$$-$&&$$@+XX.    5555555555&&&&---&&$&$$$555555555",
"5555555555&@&$$$$-&&$$$@oo.  .555555555555-&&$$$$$$$$$5555555555",
"55555555555$$$-*$$&&$$@@ooX  55555555555555&&--$--$$&55555555555",
"5555555555555555555555555555555555555555555555555555555555555555",
"5555555555555555555555555555555555555555555555555555555555555555",
"5555555555555555555555555555555555555555555555555555555555555555",
"5555555555555555555555555555555555555555555555555555555555555555",
"5555555555555555555555555555555555555555555555555555555555555555",
"5555555555555555555555555555555555555555555555555555555555555555",
"5555555555555555555555555555555555555555555555555555555555555555",
"5555555555555555555555555555555555555555555555555555555555555555"
};
