/* XPM */
static char *result[] = {
/* columns rows colors chars-per-pixel */
"64 128 23 1 ",
"  c #BE3402",
". c #C03705",
"X c #C23906",
"o c #C53C09",
"O c #C93E0C",
"+ c #C7400F",
"@ c #CC420E",
"# c #C74110",
"$ c #CD4411",
"% c #CF4816",
"& c #CF4A19",
"* c #D04714",
"= c #D04916",
"- c #D24C1B",
"; c #D5501F",
": c #D44F20",
"> c #D65322",
", c #D95625",
"< c #DA5827",
"1 c #DA5728",
"2 c #DC5B2B",
"3 c #DE5D30",
"4 c None",
/* pixels */
"4444444444444444444444444444444444444444444444444444444444444444",
"4444444444444444444444444444444444444444444444444444444444444444",
"4444444444444444444444444444444444444444444444444444444444444444",
"4444444444444444444444444444444444444444444444444444444444444444",
"4444444444444444444444444444444444444444444444444444444444444444",
"4444444444444444444444444444444444444444444444444444444444444444",
"4444444444444444444444444444444444444444444444444444444444444444",
"4444444444444444444444444444444444444444444444444444444444444444",
"4444444444444444444444444444444444444444444444444444444444444444",
"4444444444444444444444444444444444444444444444444444444444444444",
"4444444444444444444444444444444444444444444444444444444444444444",
"4444444444444444444444444444444444444444444444444444444444444444",
"4444444444444444444444444444444444444444444444444444444444444444",
"4444444444444444444444444444444444444444444444444444444444444444",
"4444444444444444444444444444444444444444444444444444444444444444",
"4444444444444444444444444444444444444444444444444444444444444444",
"4444444444444444444444444444444444444444444444444444444444444444",
"4444444444444444444444444444444444444444444444444444444444444444",
"4444444444444444444444444444444444444444444444444444444444444444",
"4444444444444444444444444444444444444444444444444444444444444444",
"4444444444444444444444444444444444444444444444444444444444444444",
"4444444444444444444444444444444444444444444444444444444444444444",
"4444444444444444444444444444444444444444444444444444444444444444",
"4444444444444444444444444444444444444444444444444444444444444444",
"4444444444444444444444444444444444444444444444444444444444444444",
"4444444444444444444444444444444444*OO*44444444444444444444444444",
"444444444444444444444444444444444**O*O*4444444444444444444444444",
"44444444444444444444444444444444O*O*O*$O444444444444444444444444",
"44444444444444444444444444444444O*$OO*O*444444444444444444444444",
"4444444444444444444444444444444@$$O**O*O$44444444444444444444444",
"444444444444444444444444444444@$*O$$O$O*$@4444444444444444444444",
"44444444444444444444444444444@@@OO$$O$O*@$$444444444444444444444",
"4444444444444444444   ..ooO$@@@@@O@*$@@@$@$O*4444444444444444444",
"444444444444444444    .oooO@@@@$@*@@@$$@$@@@@@444444444444444444",
"44444444444444444      .ooO@@*@$@@*O$$$$$@@*$$*44444444444444444",
"4444444444444444       .ooO@@@@@@@@@@@@@@@$@OO*44444444444444444",
"4444444444444444.   ...oooOO@@@@*O@@@@@$**O**OO44444444444444444",
"444444444444444 .. ...XooOO@@@@@@@@@$@@$OO*OO**44444444444444444",
"44444444444444  ...X.XooOOO@@@@@@O*O$@@@O*O*$*444444444444444444",
"4444444444444 ....XXXoooOOO@@@@@@@O*@@@@*O*O*4444444444444444444",
"****OOOOo..   . XXXooooOO@@@@@@$O$*44444444444444444444444444444",
"O*OOOOOoo...  ..XXoooOOOOO@@@$OO*$444444444444444444444444444444",
"*@**OOOOo..  ...oooOOO@O@@O@*O@$O4444444444444444444444444444444",
"@@O*OOOO.... ...ooOOO@@@@@*@@@$$$4444444444444444444444444444444",
"**@*OOOO...  ...ooOO@@@$$$*$$$$$$4444444444444444444444444444444",
"@@@@*OOO...   ..ooO@$@*$$$$*%%*$$4444444444444444444444444444444",
"@@*@OOOOXX......ooO@$$$*%==-=&%%$@444444444444444444444444444444",
"*@*@OOOOoX......oOO@@*===----&&%$OO44444444444444444444444444444",
"@@@@*@@OOOX4444444444=;--;;->--&$O#  444444444444444444444444444",
"*@*@@@O@@@444444444444;;>>,,>>&&%O    44444444444444444444444444",
"@@@@@*@@*44444444444444,,,<<,>-&#O     4444444444444444444444444",
"@*@*@@@@44444444444444442222<,>&%OO     444444444444444444444444",
"@@*@@@@@444444444444444423231,:&&OO     444444444444444444444444",
"**@@*@*4444444444444444443321,:=&OO     .44444444444444444444444",
"@@@***44444444444444444444331,;*& o o  ooO4444444444444444444444",
"@@***444444444444444444444421:;*&#oooooOOOO444444444444444444444",
"44444444444444444444444444444,-*&O #ooooOO@$O@OOo..  44444444444",
"444444444444444444444444444444-*OOO#OOOOO#@@$OOoo. .  4444444444",
"4444444444444444444444444444444*%O#OOOO@*O$O@OOo...    444444444",
"44444444444444444444444444444444O%##O@@$O@@$OOOoo.     444444444",
"44444444444444444444444444444444%O@@@@@O@@*OOOOoo.     444444444",
"44444444444444444444444444444444$O$@@@@@O@OOOOoOX.     444444444",
"44444444444444444444444444444444$$$O@@O@OOOOOooX...   4444444444",
"44444444444444444444444444444444O$#$@@OOOOOOOoXX.... 44444444444",
"44444444444444444444444444444444@@@@@@@@ooooXXXXX  4444444444444",
"44444444444444444444444444444444@@@@@@oooooXX... .44444444444444",
"44444444444444444444444444444444@@@@@o@XooX . .  444444444444444",
"44444444444444444444444444444444@@@@o@o+o.X     4444444444444444",
"44444444444444444444444444444444@@@++oooXX.     4444444444444444",
"4444444444444444444444444444444O+@@+@ooXo...... 4444444444444444",
"444444444444444444444444444444OOX@X@oooXXXXXXXX.4444444444444444",
"44444444444444444444444444444OOo@@XXooooooXXXXXX4444444444444444",
"444444444444444444444444444O@OOOXXX+XXXXXooooooo4444444444444444",
"44444444444444444444444444$$@OOO@XXXXXXooooooooo4444444444444444",
"4444444444444444444444444@@@@OOOXXX..XXooooO@o@@4444444444444444",
"444444444444444444444444@@@@@OOOXX..  XXooOO@@@O4444444444444444",
"444444444444444444444444@@@@@@Oo+ X   XoooO@@@@@4444444444444444",
"44444444444444444444444*@@@@@OOoXo   .XXoOOO@@@@4444444444444444",
"4444444444444444444444@@@@@@@oooX X   XXoOO@@@$$4444444444444444",
"444444444444444444444@@@@@@@@Ooo+X    XXooO@@@#%4444444444444444",
"4444444444444444444$@$@@@@@@@oooXX   oXXo+@@@@@*4444444444444444",
"444444444444444444$$$@@@$@@@@@ooX     Xoooo@@@@@4444444444444444",
"44444444444444444$@@@@@@$@@@@o@XX X    oXo@@O*@*4444444444444444",
"4444444444444444@@@$@$$@@@@@@@X+++X   oXo@@@*O*@4444444444444444",
"4444444444444444@@@@@$$@@@$@@@+XXX  + +oOO@OOO*$4444444444444444",
"4444444444444444@@@@@@@@@@@@@@@+++++o+ +OO@OO*$44444444444444444",
"4444444444444444@@@@@@@@$@@@@@@@@+++++++*OO*O*444444444444444444",
"4444444444444444@@$@@@@@@@$@@@$$@@%#@%%%$**@*4444444444444444444",
"4444444444444444@@@@@@%@@@@@$$$%%&&&&&&%=%%444444444444444444444",
"4444444444444444@@@@@@@@$@@$$$%=&-&::::--&4444444444444444444444",
"4444444444444444@@@@@@@@@@@$$$==->>>,1,>:44444444444444444444444",
"4444444444444444@%@@@@@@@@#$$$=-->,11<2,444444444444444444444444",
"4444444444444444$$*$$$$@@@@@$$=-->,11222444444444444444444444444",
"444444444444444****=*%$$$@@@#$==->,<122<444444444444444444444444",
"44444444444444*===--==%$#@@O@#%%-->>,,<,444444444444444444444444",
"4444444444444%==-----=%%$#@oOO#$%--;>>>,444444444444444444444444",
"44444444444@**=--;;;--&%##+ooo#$$%--;;;;444444444444444444444444",
"4444444444@***---;>>>:-&$@+#Xoo#@$%-=---444444444444444444444444",
"444444444@O@**=-;>,1,>:&%+o XXo+@@*%=%*=444444444444444444444444",
"444444444*@@@*=-;>,<,>>=%# oXXoo+@@*%%%%444444444444444444444444",
"444444444@@@%==:;,,1,>-&&#+oX +o@@@@$***444444444444444444444444",
"444444444@@*$==-;>,,,>>-&###o++#@@@@$@@$=44444444444444444444444",
"4444444444O$$*=-;;;,>;;-&%###++#$$$@$*$$*$4444444444444444444444",
"44444444444$%*=--;;;;;--&&&#%%%$$$$*$$$$$$@444444444444444444444",
"4444444444444%*=---;;;--&&&&&&&&***$$*$$$$$@$4444444444444444444",
"44444444444444%*===-=---&>:::::&==*$*@$$@@@@@@444444444444444444",
"444444444444444$*%=====;>>>>,>;-==**$$$$$@@@@$@44444444444444444",
"444444444444444$$$$$==-->>>1,,>;;-=**@$$$$$$$$$@4444444444444444",
"444444444444444*$$$$$=-;;,<222,;;-=**$***@*$$$$$4444444444444444",
"444444444444444@$$@$$=-;;,2222,,;;==$$$*****%%*$%444444444444444",
"44444444444444$@@@@$$=&;,,<222<,;;-*********&&%$%@44444444444444",
"4444444444444$@@$$@$$%-;;,2222<<;;-****----;-&&%@@+4444444444444",
"44444444444@*OO*$@@**=;;;<222222,>&=&%-->;;;>&&&%#oo 44444444444",
"4444444444*@OO*@@$$@===;;<2222221,4444-->>,>>>;&##o   4444444444",
"444444444**O*O@*@*$****;;<<232223444444,,111,>:&%#o    444444444",
"444444444O@OO*@@@@$@**=;;<<223224444444422221>:&%#o    444444444",
"444444444O*O@*@*@@@***;;;<<233334444444423222>>&##  ...444444444",
"444444444*O*@@@@@**@**=;,<2323344444444443332<>&&O# .. 444444444",
"4444444444*@@@**@@***=;;;<2233444444444444322,>&&#  ..4444444444",
"44444444444O$@@*@**@**-;,<3334444444444444432,>&#&# X44444444444",
"4444444444444444444444444444444444444444444444444444444444444444",
"4444444444444444444444444444444444444444444444444444444444444444",
"4444444444444444444444444444444444444444444444444444444444444444",
"4444444444444444444444444444444444444444444444444444444444444444",
"4444444444444444444444444444444444444444444444444444444444444444",
"4444444444444444444444444444444444444444444444444444444444444444",
"4444444444444444444444444444444444444444444444444444444444444444",
"4444444444444444444444444444444444444444444444444444444444444444"
};
