/* XPM */
static char *result[] = {
/* columns rows colors chars-per-pixel */
"64 128 24 1 ",
"  c #BD3402",
". c #BF3805",
"X c #C03604",
"o c #C23906",
"O c #C53C0A",
"+ c #C93E0C",
"@ c #C7400F",
"# c #CC420F",
"$ c #C74110",
"% c #CD4311",
"& c #CE4816",
"* c #CE4718",
"= c #CE4919",
"- c #D04715",
"; c #D04917",
": c #D24D1B",
"> c #D5501F",
", c #D34F20",
"< c #D65222",
"1 c #D95625",
"2 c #DA5827",
"3 c #D95728",
"4 c #DB5A2B",
"5 c None",
/* pixels */
"5555555555555555555555555555555555555555555555555555555555555555",
"5555555555555555555555555555555555555555555555555555555555555555",
"5555555555555555555555555555555555555555555555555555555555555555",
"5555555555555555555555555555555555555555555555555555555555555555",
"5555555555555555555555555555555555555555555555555555555555555555",
"5555555555555555555555555555555555555555555555555555555555555555",
"5555555555555555555555555555555555555555555555555555555555555555",
"5555555555555555555555555555555555555555555555555555555555555555",
"5555555555555555555555555555555555555555555555555555555555555555",
"5555555555555555555555555555555555555555555555555555555555555555",
"5555555555555555555555555555555555555555555555555555555555555555",
"5555555555555555555555555555555555555555555555555555555555555555",
"5555555555555555555555555555555555555555555555555555555555555555",
"5555555555555555555555555555555555555555555555555555555555555555",
"5555555555555555555555555555555555555555555555555555555555555555",
"5555555555555555555555555555555555555555555555555555555555555555",
"5555555555555555555555555555555555555555555555555555555555555555",
"5555555555555555555555555555555555555555555555555555555555555555",
"5555555555555555555555555555555555555555555555555555555555555555",
"5555555555555555555555555555555555555555555555555555555555555555",
"5555555555555555555555555555555555555555555555555555555555555555",
"5555555555555555555555555555555555555555555555555555555555555555",
"5555555555555555555555555555555555555555555555555555555555555555",
"5555555555555555555555555555555555555555555555555555555555555555",
"5555555555555555555555555555555555555555555555555555555555555555",
"5555555555555555555555555555555555555555555555555555555555555555",
"5555555555555555555555555555555555555555555555555555555555555555",
"5555555555555555555555555555555555555555555555555555555555555555",
"5555555555555555555555555555555555555555555555555555555555555555",
"5555555555555555555555555555555555555555555555555555555555555555",
"5555555555555555555555555555555555555555555555555555555555555555",
"5555555555555555555555555555555555555555555555555555555555555555",
"5555555555555555555555555555555555555555555555555555555555555555",
"555555555555555555-++-555555555555%-+%55555555555555555555555555",
"55555555555555555-+--#-5555555555++#-+-5555555555555555555555555",
"5555555555555555+-#++#+-55555555--+-+-+5555555555555555555555555",
"5555555555555555###-%%%#55555555+####%+5555555555555555555555555",
"5555555555555555++###%%%55555555%%-##%-5555555555555555555555555",
"5555555555555555+++#%#%#55555555#%#%%-55555555555555555555555555",
"5555555555555555++#####%55555555%%##+555555555555555555555555555",
"55555555555     55555555%####%+%55555555555555555555555555555555",
"5555555555      55555555#%#$%%%+55555555555555555555555555555555",
"555555555       55555555##%##%%%55555555555555555555555555555555",
"55555555        55555555%%#%#%%%55555555555555555555555555555555",
"55555555  XX  XX55555555%;%%%&%%55555555555555555555555555555555",
"55555555XXXX XXXo555555&----&%%%-5555555555555555555555555555555",
"55555555XXXXooooOO5555&;--::;:&&-%555555555555555555555555555555",
"55555555XXOooOoOO+++-&-:::::::*&+++55555555555555555555555555555",
"55555555+++oo++++++----::><<>::*-+O...oO+++++5555555555555555555",
"55555555++++++++++--%--::><<<>:=%+O.. XO++++%-555555555555555555",
"55555555++-+++++-+-+--:><<131<:=*+..XXXO+++#+%%55555555555555555",
"55555555-+++++-++-+----:,13321,:%+..XXXX+++#%%+55555555555555555",
"55555555++-++%%%%%%+%--><1133<,:*+OXXXXX+++++--55555555555555555",
"55555555+++-%%+%%++++--::<3333,=*+OXXXXO++++++%55555555555555555",
"55555555++++-++++++++%--:<333<,*%+OOoXOo++++--555555555555555555",
"55555555++-+-++++++++++-=,133<,**++OOOOO++%+-5555555555555555555",
"X       55555++O+oo+oO++*,,33<,**++++++++++555555555555555555555",
"        555555+OooooXXO++*5555:%+%++++++++5555555555555555555555",
"        5555555OXXXX    +555555%*%%++++-+55555555555555555555555",
"        55555555XXXX    5555555*++%%+-++555555555555555555555555",
"        55555555X       5555555%%++--+-+555555555555555555555555",
"        55555555        5555555++%+-+-+-555555555555555555555555",
"        55555555X       555555++++-+-+-+555555555555555555555555",
"        55555555XX      55555OOO+%+-+-+-555555555555555555555555",
"55555555O+++%#++55555555    Xooo++##%%%-555555555555555555555555",
"55555555++%%++++55555555    Xoo+++##%%#-555555555555555555555555",
"55555555+-%+%%++55555555    XXoo++##%%-+555555555555555555555555",
"55555555++%%%+%+55555555    XXooo+###%+-555555555555555555555555",
"55555555-+#-%#%%55555555    XXoo++++++++555555555555555555555555",
"55555555+-###%%555555555    Xoooo++++++--55555555555555555555555",
"55555555%###%%5555555555XX  ooo+o+o++++++-5555555555555555555555",
"55555555%%%#%55555555555XXX oooooo+o+++++++555555555555555555555",
"-%+%%%#%5555555555555555o@ooooooo+o+oo+++o###5555555555555555555",
"+%-+%%%#5555555555555555o@@oo#@ooXoXoooo+++##-555555555555555555",
"%%#--###5555555555555555@@#@#ooo+oXXXoo+++####-55555555555555555",
"-%-+###-5555555555555555#####@#oooXXXXXoo++#####5555555555555555",
"-##-####5555555555555555%%&%##@@XXXXXXXX+++#####5555555555555555",
"#-##-###555555555555555*&&-&&#@@oXXXXXXXo++###--5555555555555555",
"-###-#-#55555555555555**;;;:&&$$OOXXXXXoo+###---5555555555555555",
"#-#-####5555555555555;;:::::=&=$+OXXXXXoo+####--5555555555555555",
"55555555--#####-####%&;:::>>,==$+O..  XXXO+55555#-###55555555555",
"55555555--##-#####%%%&;:>>>><==&++O. X X.O555555####--5555555555",
"55555555-######-####&&;:>>223<=&*+..    .5555555##-#-##555555555",
"55555555#-#--#-#&%%#&&;>>>223<,&+OO..    5555555#-##-##-55555555",
"55555555-------#%%&%&&=,>2111<,&*..... .o5555555##--###-55555555",
"55555555----------&-;&::>><<,,=**+*.....o555555*#-##---#55555555",
"55555555--->>----;;&>;::>>>>,==*$*....OOOO5555%%####-###55555555",
"55555555>>>>>>>>>>>>>>:,;>*==**$+.+.OOOO+++%%%%%###-#-##55555555",
"555555551>>>1>>13<<<,,,=====&%#@++++++++++##%+###%%##-##55555555",
"555555552212111144<3<,,===$$@@@@+++++++++$##%%##%%-###-#55555555",
"555555552424422244443<,,=$@..O@o++++++##%-#%%%-#%#%%--##55555555",
"555555552444444444443<,==$@OO..@o++###%###%%#%%%%%%%##-#55555555",
"5555555544244444444433<==$@OooOo+o###%-%%%-%%%-#%%%%%%%#55555555",
"5555555544224444444443<,=&$Oo@@@############%%%#%%#%%-+-55555555",
"55555555111111444444433,==*$@@$$####-#-#%#-#%%%#%%-+%-##55555555",
"55555555>11>>1124444443<<===&%&%%%%######-#%##%%%%+-%+#-55555555",
"55555555>>>>>>11222444442>:::****&#%#%%#%%%%#-#-###-##-#55555555",
"55555555>---:>>>1244444422<<,:::;--%&#%%%%%#####%##-##%#55555555",
"55555555----->>>1244444442221<>:;--%#%#%%#%%#-##%####-%%55555555",
"55555555-+----:>12444444444211<>>;-%#%%%%%%%##--%--##%%%55555555",
"55555555%-+---->>12244444444411<>:--%%+%###%#%###%%%###-55555555",
"555555555--+--->>>1224244444421,:-%#++%%####%%-#%%%--#%555555555",
"5555555555+%--->>>>221224444421,:%%#++++####%%%#%#+---5555555555",
"55555555555+---::>>>11124444411::;#+++O+####%%%#%#+-+55555555555",
"5555555555555-:::::>>>>24444421,=&@OOOOO+++#+%%+###5555555555555",
"55555555555555--;;;:>>>>444442<:=$@OoOOO++##-#%%-#55555555555555",
"555555555555555---;;;:>>224442,:*$OO.XoOO+##+###-555555555555555",
"555555555555555-%%%%-;;>112241,**$OO..oOO+++####%555555555555555",
"555555555555555-%%%%&&->><1311,*&$O.XXooOO++##+++555555555555555",
"555555555555555#%%#%#&;;=<<<,,,*$@..XXXoOOOO++O++555555555555555",
"55555555555555--#%%#&%&&::,,,=**$@oXXXoooOO#OOOO++55555555555555",
"5555555555555---#%#%#%%***===**%@@oXX ooooooOOoO+XX5555555555555",
"55555555555#%###%#%%#%%%%%#%&@$@+O....oooooo.O.XXX  X55555555555",
"5555555555%###%&#%%%##%###@@@@@@OO5555 oXXXX... X     5555555555",
"555555555%####%##%%%###@@@@@OOooo555555.XXX            555555555",
"555555555%##%%##%%%###@#@.......55555555               555555555",
"555555555%+%%#%%%%#-###oOoo.   .55555555X           XXX555555555",
"555555555%+%###%%#-####ooo     5555555555           XX 555555555",
"5555555555###%#%##-####@OoX  .555555555555          XX5555555555",
"55555555555#%#%%%%#-###oOo . 55555555555555         o55555555555",
"5555555555555555555555555555555555555555555555555555555555555555",
"5555555555555555555555555555555555555555555555555555555555555555",
"5555555555555555555555555555555555555555555555555555555555555555",
"5555555555555555555555555555555555555555555555555555555555555555",
"5555555555555555555555555555555555555555555555555555555555555555",
"5555555555555555555555555555555555555555555555555555555555555555",
"5555555555555555555555555555555555555555555555555555555555555555",
"5555555555555555555555555555555555555555555555555555555555555555"
};
