/* XPM */
static char *result[] = {
/* columns rows colors chars-per-pixel */
"64 128 24 1 ",
"  c #BD3402",
". c #BF3805",
"X c #C13604",
"o c #C23906",
"O c #C53C0A",
"+ c #C93E0C",
"@ c #C7400F",
"# c #CC410E",
"$ c #C74110",
"% c #CD4411",
"& c #CE4816",
"* c #CE4718",
"= c #CE4A19",
"- c #D04614",
"; c #D14816",
": c #D34D1B",
"> c #D5501F",
", c #D34F20",
"< c #D65222",
"1 c #D95525",
"2 c #DB5827",
"3 c #D95728",
"4 c #DC5B2B",
"5 c None",
/* pixels */
"5555555555555555555555555555555555555555555555555555555555555555",
"5555555555555555555555555555555555555555555555555555555555555555",
"5555555555555555555555555555555555555555555555555555555555555555",
"5555555555555555555555555555555555555555555555555555555555555555",
"5555555555555555555555555555555555555555555555555555555555555555",
"5555555555555555555555555555555555555555555555555555555555555555",
"5555555555555555555555555555555555555555555555555555555555555555",
"5555555555555555555555555555555555555555555555555555555555555555",
"5555555555555555555555555555555555555555555555555555555555555555",
"5555555555555555555555555555555555555555555555555555555555555555",
"5555555555555555555555555555555555555555555555555555555555555555",
"5555555555555555555555555555555555555555555555555555555555555555",
"5555555555555555555555555555555555555555555555555555555555555555",
"5555555555555555555555555555555555555555555555555555555555555555",
"5555555555555555555555555555555555555555555555555555555555555555",
"5555555555555555555555555555555555555555555555555555555555555555",
"55555555555555555555555555555555555;-+-#-#-##5555555555555555555",
"5555555555555555555555555555555555:+--###-##-#555555555555555555",
"555555555555555555555555555555555+-+++--#--#-#-55555555555555555",
"55555555555555555555555555555555-+-----+##-#####5555555555555555",
"55555555555555555555555555555555+++++*++########5555555555555555",
"5555555555555555555555555555555+++++++++##++##+++555555555555555",
"555555555555555555555555555555+#++++++++++++++++++55555555555555",
"55555555555555555555555555555+#O++X+++O++o+o+o+++%+5555555555555",
"555555555555555555555555555###++OOX+XOXXoXXXooo+++##-55555555555",
"55555555555555555555555555#-##+OOOXXXXXXXXXXoooo++##+#5555555555",
"5555555555555555555555555%###++OXX  XX  XXXXoooO+++#+--555555555",
"555555555555555555555555#%###+OO    X   XXXXXXXoo+++-+-555555555",
"555555555555555555555555####+++o        X   XXXX++++++-555555555",
"55555555555555555555555+##+++++o            XXXX+++%+--555555555",
"5555555555555555555555+++++++Ooo            XXooo++%%-5555555555",
"555555555555555555555+++++o+oooX            XXoo++++%55555555555",
"5555555555555555555+-++++oooXXXX           555555555555555555555",
"555555555555555555--++++o+ooXXXX          5555555555555555555555",
"55555555555555555-##-+++oooXX XX         55555555555555555555555",
"5555555555555555--#-+++++oXX   X       . 55555555555555555555555",
"5555555555555555#-###+++ooXXXXXX  .......55555555555555555555555",
"5555555555555555-#-#-++++ooXXXXXX .OO...o55555555555555555555555",
"5555555555555555-##-+#++oXXXXXooXO++++..OO5555555555555555555555",
"5555555555555555+-#+-#+++++XoO++++++*$*$OOO555555555555555555555",
"5555555555555555+-++-++++OOOOO++$&==***$+....5555555555555555555",
"5555555555555555%----++-++++++*&===,,=**$+... 555555555555555555",
"5555555555555555%+%#--+++%+#$%&==,,,,,=**+..  .55555555555555555",
"5555555555555555%%%-+++-%+++%&;::<333<,*$$..    5555555555555555",
"5555555555555555+###+#####+#%&;:,<331<,=*+O     5555555555555555",
"555555555555555+#++#+%+%###%%-;:><111<,*++Oo    5555555555555555",
"55555555555555#+++O++++++#+%&&;:>>>1,,,**+Oooo .5555555555555555",
"5555555555555++++OOOO+O++++#%-;::>>>,,***+OOOooo5555555555555555",
"55555555555+#++OOooOooOOO++%%&-;::>>:;&&##@OOOoO55555555555-##+-",
"5555555555---++OoOooooooOO5555&&&&;;:-%%##@+OOOO5555555555%%#--+",
"555555555--+#++++ooXXXXoo555555&&&&--%%%#####O#+555555555%+%-+-%",
"555555555++++#++ooXXXXXX.5555555%&%%%%%%########55555555%+-%+-+-",
"555555555%%-%++++...XXXX.5555555####%###+#+#+#++55555555+%+%%###",
"555555555%%+%%+++++.XooOO5555555########+++++++++555555#%++++#+#",
"5555555555%++%+++$$++++++$555555#######@+++++++++#5555++++++O+O+",
"55555555555%-%-%**$***+*%%%55555#-####@@++oo++o++++#+-+++OOOOOOO",
"5555555555555--;**=====*=&%%####55555#+OOOOoOo++++#++#++OOOOO.OO",
"55555555555555::,,,,,=::=&%%-#%#555555OoooXoXoooO++##+++OOoo...O",
"5555555555555551<<3311<::;-&#%-+5555555OXXX XXoOO++#+#+OOoXX.   ",
"55555555555555553333311,:;&%%%##55555555 .  XXooO++#+++OoXXX    ",
"55555555555555554444441,<;;--%--55555555     XoOO++++++Ooo      ",
"555555555555555554444433<::;;-;-55555555 X XXXXOOO+++++Ooo.     ",
"555555555555555555444443<:::;;;:55555555XXXXXoooO+o++OOooXX     ",
"5555555555555555555444441>1:>><:55555555ooooooOooO+oo+oooX      ",
"5555555555555555555554441111<<1155555555OooooOOoOooooooooXo55555",
"5555555555555555555555441111111455555555#o#oOOOOoooXo...Xo555555",
"5555555555555555555555542224244455555555#OO#O#OoOoXX .. X5555555",
"5555555555555555555555554444444455555555#####OOOOo.. ...55555555",
"5555555555555555555555554444444455555555#####OOOOO......55555555",
"555555555555555555555555544444445555555+#o##O#@OOOOOO..O55555555",
"55555555555555555555555555444421555555#O#oo#O@@@++++O$$+55555555",
"5555555555555555555555555554422155555#O#O#ooO@@@$$*+*%*&55555555",
"55555555555555555555555555555555::-%#++O@oo@o@@@****==,=55555555",
"55555555555555555555555555555555--%%##+Ooooooo@$**,,,,,,55555555",
"55555555555555555555555555555555--#%+#+O@.O.oo@%*=,<333355555555",
"55555555555555555555555555555555#%####+O.@..o@@%*,,3333355555555",
"55555555555555555555555555555555#%%###OOOO...@$&=,<3343455555555",
"55555555555555555555555555555555##%#####OO@O@$$&=,<3343455555555",
"55555555555555555555555555555555########@@$$$$&=,,,1333355555555",
"55555555555555555555555555555555#%######&$&&&&&,=,,,,,3,55555555",
"55555555555555555555555555555555###%%%%%&&====::>::>>>>>55555555",
"55555555555555555555555555555555####%%&&=::,<,,,::::::;:55555555",
"55555555555555555555555555555555#%#%%%&::><<<<>>>:;:----55555555",
"55555555555555555555555555555555####%&&:>>13331>:::----%55555555",
"55555555555555555555555555555555@#####&:>114431<::;-----55555555",
"55555555555555555555555555555555#@@##%&:><344411<:;-##+555555555",
"55555555555555555555555555555555@o@###%:><444431<:---+5555555555",
"55555555555555555555555555555555@@o@@#%:,<144431<>:--55555555555",
"55555555555555555555555555555555o..@O@&=,<344443<>:5555555555555",
"55555555555555555555555555555555.@...@$=,<3444442155555555555555",
"55555555555555555555555555555555.....@$&=<3444444555555555555555",
"55555555555555555555555555555555X ...@$&=<3344445555555555555555",
"55555555555555555555555555555555X.o..@$&=,1244445555555555555555",
"5555555555555555555555555555555@OOOO@$$==<<144445555555555555555",
"555555555555555555555555555555@@$$$$@$==,<<<11335555555555555555",
"55555555555555555555555555555%%%*&$&=====,<<<<<<5555555555555555",
"555555555555555555555555555#-%%&-;;;:::::>>>>>>>5555555555555555",
"55555555555555555555555555##---;::>>>><:::::::;>5555555555555555",
"5555555555555555555555555##%%;;:>>>111<,>:=;;;;;5555555555555555",
"555555555555555555555555%%%%&=;:>>2211<<>:;;-;-;5555555555555555",
"555555555555555555555555&%%-%;:<1121222>::;;%-%%5555555555555555",
"55555555555555555555555&----;;::>>1212>>:;;%-#%-5555555555555555",
"5555555555555555555555&;;;:::::<>112>>>::;;%%###5555555555555555",
"555555555555555555555&;;:::>:>:>>>>>>>>:;;;%#--#5555555555555555",
"5555555555555555555#%-;:::>><>>>>>>>>>:;-----+-#5555555555555555",
"555555555555555555%%-;;:>><<11>>>>>;;;;---#++-+-5555555555555555",
"55555555555555555%%#%;;:><12111>>;::;-;--##--+##5555555555555555",
"5555555555555555#%##%-::>1122211>::-;----#-##-#-5555555555555555",
"5555555555555555###%%;;>>>22221>>:-----###-##-++5555555555555555",
"555555555555555+###%%%;:>>12211>>:--###--######--555555555555555",
"55555555555555++###%--;:>>>211>>>--#-#-###-#-##+##55555555555555",
"5555555555555+++O##%#-;;:>>>>>>:>;----#---###+--%%%5555555555555",
"55555555555 Xoo+O###-----:::>>:::--:--+--%%%#####--#-55555555555",
"5555555555  XXoO+###%#--;-:;:;:;::5555--##-#-#-#-#+#+-5555555555",
"555555555   XXXOO@##--%-;---;;;;:555555--###-#####+--+-555555555",
"555555555    XoOO###+-%%--------55555555#-#-#-#-##-+-+-555555555",
"555555555   XXXoO##%%##--++----#55555555-#-#-###--#####555555555",
"555555555   XXXXO###%%-#-----#-5555555555-#----########555555555",
"5555555555  XXo+O+##%#%-+-+---555555555555--++-#####--5555555555",
"55555555555 Xoo+O+##-%-%+--%%55555555555555%--+---#--55555555555",
"5555555555555555555555555555555555555555555555555555555555555555",
"5555555555555555555555555555555555555555555555555555555555555555",
"5555555555555555555555555555555555555555555555555555555555555555",
"5555555555555555555555555555555555555555555555555555555555555555",
"5555555555555555555555555555555555555555555555555555555555555555",
"5555555555555555555555555555555555555555555555555555555555555555",
"5555555555555555555555555555555555555555555555555555555555555555",
"5555555555555555555555555555555555555555555555555555555555555555"
};
