/* XPM */
static char *result[] = {
/* columns rows colors chars-per-pixel */
"64 128 22 1 ",
"  c #BD3301",
". c #C13605",
"X c #C23906",
"o c #C53C09",
"O c #C93E0C",
"+ c #C7400F",
"@ c #CB410E",
"# c #C74110",
"$ c #CD4412",
"% c #CF4816",
"& c #CF4A19",
"* c #D04714",
"= c #D04916",
"- c #D34D1B",
"; c #D5501F",
": c #D65221",
"> c #D95525",
", c #DA5827",
"< c #DA5728",
"1 c #DC5C2C",
"2 c #DF5F30",
"3 c None",
/* pixels */
"3333333333333333333333333333333333333333333333333333333333333333",
"3333333333333333333333333333333333333333333333333333333333333333",
"3333333333333333333333333333333333333333333333333333333333333333",
"3333333333333333333333333333333333333333333333333333333333333333",
"3333333333333333333333333333333333333333333333333333333333333333",
"3333333333333333333333333333333333333333333333333333333333333333",
"3333333333333333333333333333333333333333333333333333333333333333",
"3333333333333333333333333333333333333333333333333333333333333333",
"3333333333333333333333333333333333333333333333333333333333333333",
"3333333333333333333333333333333333333333333333333333333333333333",
"3333333333333333333333333333333333333333333333333333333333333333",
"3333333333333333333333333333333333333333333333333333333333333333",
"3333333333333333333333333333333333333333333333333333333333333333",
"3333333333333333333333333333333333333333333333333333333333333333",
"3333333333333333333333333333333333333333333333333333333333333333",
"3333333333333333333333333333333333333333333333333333333333333333",
"3333333333333333333333333333333333333333333333333333333333333333",
"3333333333333333333333333333333333333333333333333333333333333333",
"3333333333333333333333333333333333333333333333333333333333333333",
"3333333333333333333333333333333333333333333333333333333333333333",
"3333333333333333333333333333333333333333333333333333333333333333",
"3333333333333333333333333333333333333333333333333333333333333333",
"3333333333333333333333333333333333333333333333333333333333333333",
"3333333333333333333333333333333333333333333333333333333333333333",
"3333333333333333333333333333333333333333333333333333333333333333",
"3333333333333333333333333333333333333333333333333333333333333333",
"3333333333333333333333333333333333333333333333333333333333333333",
"3333333333333333333333333333333333333333333333333333333333333333",
"3333333333333333333333333333333333333333333333333333333333333333",
"3333333333333333333333333333333333333333333333333333333333333333",
"3333333333333333333333333333333333333333333333333333333333333333",
"3333333333333333333333333333333333333333333333333333333333333333",
"33333333333333333333333333333333333333333333333333333333333     ",
"333333333333333333    333333333333333333333333333333333333      ",
"33333333333333333      3333333333333333333333333333333333       ",
"3333333333333333        33333333333333333333333333333333        ",
"3333333333333333      ..33333333333333333333333333333333        ",
"333333333333333  ..  ... 333333333333333333333333333333   . . ..",
"33333333333333 .......... 3333333333333333333333333333.   X.....",
"3333333333333  ..........  33333333333333333333333333. . .XX.XXX",
"33333333333     .XoXXXXX..           33333333333333   ..XXXXooOO",
"3333333333    ..XXOXOOXX.             333333333333     .XooOoOOO",
"333333333     .XooOOOXoX..             3333333333     .XXoOOOOOO",
"33333333      .XXoOOOOOX..              33333333      .XooOOOO@O",
"33333333     ...ooOOOOOX.X....          33333333... ..XXooOO@@@@",
"3333333     . .XXoOOOOOOXX.....      .   333333.......XXOOOO@@*O",
"333333        .XOOOOOOOOoo........  .. .. 3333 ......XoOOOOO@@@@",
"33333        .XXOOOOOOOOooooXXXoXXX .o....   . ...X..OOOOOOOO*@@",
"               oOOO+@+@OOOooooooXooooXXX..    ....ooooOOO@@@@@*@",
"              o  OO+@@@+OoOOooooOOOOooXX...  ...XXoooOOO@O@@@@@@",
"               oOOOO@@@@O@OOOOOOOOOOOOoo...  ...oooOOOOOO@@@@@@@",
"               oOo##@@O@@@@@OO@@OOOOOooo..    ..XooOOOOO@O*@*@@@",
"                ooOOO@@@@O@@@@@@OOO*OOooX..  .XXOOOO*OOOO*OO@@@O",
"              ++XoooO@@O@@@@@$@@**OOOOooX..  ..XOOOOO*O*O*@**@@*",
"                .ooooOOO@@@@@$@$O**OOOOoX.    .XOOOOOOO*@@@@@@*O",
"                .XooooOOO@@@@@@$*OOOOOooX..  ..XoOOO-O*O@@*@@@O*",
"33333           ..XXX+X+@o@@$@@@OO*OOOOoXX   ..XoOOOO*O*OOO33333",
"333333           . XXXX+X@@@@@@$O**O$OooX     .XooOO*OO*O*333333",
"3333333            X + +X@@@@@@@*OOOOOooXX    XXOOOOO*OO*3333333",
"33333333            X XXXX@o@$@@OO**OOOooX X..XXXOOOO-OO33333333",
"33333333              Xo@X@@@@@@*O$$OOOOo.   XXXXOOOOOOO33333333",
"333333333              XXXX@X@@@O***$*$OOoXX XXXXXOOOOOO33333333",
"3333333333            oXXX+@@@@@****=%$OOOo XXXXOOXOoOoo33333333",
"33333333333            XXXXXX@@@**---=%$OOoooXXXXXoXXoXo33333333",
"3333333333333          # # O &##&&&-;--=$$OOoXooXXXoXXXX33333333",
"33333333333333             #O ##%&:::;-=%$@Oooo.XXXX... 33333333",
"333333333333333              ##&&;:>>:;-=%$OOOooXX..    33333333",
"3333333333333333             O##&;:<<<>-=%*OOOooX..     33333333",
"3333333333333333      # O # ###&&->>>>::-=%$@OOoX...    33333333",
"3333333333333333           # #&&&::>,::--=$$@OooX...    33333333",
"3333333333333333         #&###&&&:::::;-=*%$OOoo..      33333333",
"3333333333333333      # & O&#&&&&&:::--==**+@Ooo...     33333333",
"3333333333333333     + #&&#&&&&::&----==**@@@Ooo...     33333333",
"3333333333333333    + +# &&:&:&::&--===%***O@OooX.      33333333",
"3333333333333333     ++#&&&:<::&&;&%%$%$*@*@@OOoX...    33333333",
"3333333333333333      ##&&<<<<::-&&%$$$$@@@@OOOoX...    33333333",
"3333333333333333      #&&:<<<<>;;=*$@$O$@@@OOOoXX.      33333333",
"333333333333333.+XX ++#&-:<<1<>:-=%$$O@O+@@OOOoXX      333333333",
"33333333333333.. + X+##&&:<11<>:;-*$$@O@OOOooooXX     3333333333",
"3333333333333$+++X+ +##&-:<<1<>:;=**@@OO+oooooXXXX   33333333333",
"33333333333@@@@@OooOO$%&;:<1<<,:-=*O*OOOOooXXX XX  3333333333333",
"3333333333@@$@+@OOOOO$%-;:<<1<<;;-==O$OOooXXXX X X33333333333333",
"333333333@$@@@@@OOOO+$%-::<11,>;;==OOOOooXX.X    333333333333333",
"33333333%$@$@@@@*O$$$%=-;><1,1::-&=*OOOoXXX   X  333333333333333",
"33333333@@@@@@@@$$$O**-;::<<<>::==*OOOOooXX X    333333333333333",
"33333333@@$$@@$$$$***--;:><<<::;;=***OOOooX  X oX333333333333333",
"33333333@*@@@$$**==-=-;-;:::::;-====OOOOooXXo oooo33333333333333",
"33333333@@@@@@**==-=;;;;;::::--&==OO$OOOooooXoXOOO+3333333333333",
"33333333@@@$$$**--;;::;;;;;;;-==**$$@@@@+oOooooo@@@@@+@XXXX     ",
"33333333@@@@$$==-;;:>:::;;=-===*$$$@+@@@+OOOOOO@@@@@@o@Xo X     ",
"33333333@@@@$*=--::>,>:;;-==$**$$$$@@@@@++@OOOO@@@@@@o@oX       ",
"33333333@*$$*==-;:,,,,::;==*$$$$@$$@@@@@@@@@@@@@@@@@@@XoXo.     ",
"33333333@$$$*==;::,,1>:;;===*$$@$$@$@@@$@@$$@@*@@$@$@o@XXX      ",
"3333333%$%====-;::,,>>>:;-==***$$@@@@$*@*$****$*$$@@@@+++XXX....",
"333333+$%%==--;;::::::::;---*=***$$$@$$***===***$$@@@@+X+XXXX.XX",
"33333o+@=%-;-;-;;::::::-:;;----**$$@@$*===---;==*$@@@@++++ooXXXX",
"     oO#&&;::;:;;;;&;;;;;;::;---**$$$$*=---;;;==***@@@@@oooooooo",
"     o#%&&::>:>&&:&;---;;:::::;--**$$$==-;;>,;;;-***@@@@@o@oooOo",
"     o##&;:<<>>:;-&&===;:>>>>:;;==*$$$=-;;>>,;;;-=**@@@@@@@@@O@o",
"      #%&;><<<>:;-&&=*;;;:,11>:;-**$$*=-;>>,,,,;==**@@@@@@@@@@@@",
"    o #&&:<<1,<:;--%%==;:>>,>>:-;**$**=-;>>,,>;;;=*@@@@@$@$$$$$$",
"X   oO#&&:<<1,<:;;&&=-=;;:>,>>:;-=**$*=-;;>,>>;;-=***@**$***$**$",
"XX ooO#&-:>,11<<;;;&--;;:::,::--=**@$**=-;;:;;;;=*@@@*@***-*----",
"Xoo oO%&-:>111,<>>;;;;;;-;;::---**$$$$**=;;;;;;==***@@****----;;",
"ooXoOO%&;:<21111,,,;;;;;:;-;--==*$$$@***=-=-;-==**@@$$*==-;;;;;;",
"ooOOO$%&;:<<1111,,,,,>>;;----*****$@$@$**===*==****@$$*=;;;;;,,,",
"OOOOO$%-;:<22111111,,,>;;--=*$*$$@$@@@@@$$***$*$*@@@$*=-;;;,,11,",
"OOOO$%--:<<<111111111,,;;-****$$$@$@@*@*$$$$$$*@@@@*$==-;;,1,11,",
"$OO$$$--;:<<1<11122111,>;-==$$$$@*@@@@$$$$$$$$@@*@@$**=-;;,111,2",
"$$$$$*=-::><<1,1121211,;:;-=**$**@$$*$@$$*$******@@*@*=-;,,12222",
"$O$$$*=--::><<<11121111>:;---=****$@@****=-====**$@@@$*-;;112222",
"O$$O$*=--;;::>><,11221,,>::;;-===***@*====;;;-==*$*@***=;;,,1222",
"33333=**---;;;:>1111111,,,>;;;;;-=****-=-;;;:;--**$$$$*=-::33333",
"333333*-*-*--;;:>,112211,,,,,>;;;;3333;;:>>>:;---*$$$$**=-333333",
"3333333******-;;,,112221111,,,,,>333333>,,<,>>:;-*$$@$$$%3333333",
"33333333$$****-;;,1122111111111,3333333311111,:-;*$$$@$$33333333",
"33333333$$O$***;;,1112222222212233333333111111>:;**$$@$$33333333",
"333333333$O***-;;,1122222222112333333333322211>:;-*$$OO333333333",
"3333333333@***-;,,,112222222223333333333332211>:--*$*@3333333333",
"33333333333O**=>;,,122222222233333333333333111>:--*$$33333333333",
"3333333333333333333333333333333333333333333333333333333333333333",
"3333333333333333333333333333333333333333333333333333333333333333",
"3333333333333333333333333333333333333333333333333333333333333333",
"3333333333333333333333333333333333333333333333333333333333333333",
"3333333333333333333333333333333333333333333333333333333333333333",
"3333333333333333333333333333333333333333333333333333333333333333",
"3333333333333333333333333333333333333333333333333333333333333333",
"3333333333333333333333333333333333333333333333333333333333333333"
};
