/* XPM */
static char *_ba5d971793449e2d4143387ac2f8fc7aNMppjVbW9y5IRlZ[] = {
/* columns rows colors chars-per-pixel */
"128 128 40 1 ",
"  c black",
". c #040400",
"X c #201008",
"o c #28140C",
"O c #301C10",
"+ c #3C2014",
"@ c #442418",
"# c #4C2C18",
"$ c #54301C",
"% c #6B3A01",
"& c #603420",
"* c #683C24",
"= c #704028",
"- c #78442C",
"; c #844C30",
": c #8C5438",
"> c #905C3C",
", c #986444",
"< c #A06C48",
"1 c #A87450",
"2 c #AC7C58",
"3 c #2DFB02",
"4 c #2FFB02",
"5 c #2AFE02",
"6 c #2AFF02",
"7 c #2CFC02",
"8 c #2DFC02",
"9 c #31F802",
"0 c #30F902",
"q c #30FA02",
"w c #B08460",
"e c #B89068",
"r c #BC9870",
"t c #C4A078",
"y c #CCAC80",
"u c #D4B08C",
"i c #D8B894",
"p c #DCC49C",
"a c #E4CCA8",
"s c #ECD8B0",
/* pixels */
"66666666666666666666666666666666666666666666666666666666666666666666666666666666666666666666666666666666666666666666666666666666",
"66666666666666666666666666666666666666666666666666666666666666666666666666666666666666666666666666666666666666666666666666666666",
"66666666666666666666666666666666666666666666666666666666666666666666666666666666666666666666666666666666666666666666666666666666",
"66666666666666666666666666666666666666666666666666666666666666666666666666666666666666666666666666666666666666666666666666666666",
"66666666666666666666666666666666666666666666666666666666666666666666666666666666666666666666666666666666666666666666666666666666",
"66666666666666666666666666666666666666666666666666666666666666666666666666666666666666666666666666666666666666666666666666666666",
"66666666666666666666666666666666666666666666666666666666666666666666666666666666666666666666666666666666666666666666666666666666",
"66666666666666666666666666666666666666666666666666666666666666666666666666666666666666666666666666666666666666666666666666666666",
"66666666666666666666666666666666666666666666666666666666666666666666666666666666666666666666666666666666666666666666666666666666",
"66666666666666666666666666666666666666666666666666666666666666666666666666666666666666666666666666666666666666666666666666666666",
"66666666666666666666666666666666666666666666666666666666666666666666666666666666666666666666666666666666666666666666666666666666",
"66666666666666666666666666666666666666666666666666666666666666666666666666666666666666666666666666666666666666666666666666666666",
"66666666666666666666666666666666666666666666666666666666666666666666666666666666666666666666666666666666666666666666666666666666",
"66666666666666666666666666666666666666666666666666666666666666666666666666666666666666666666666666666666666666666666666666666666",
"66666666666666666666666666666666666666666666666666666666666666666666666666666666666666666666666666666666666666666666666666666666",
"66666666666666666666666666666666666666666666666666666666666666666666666666666666666666666666666666666666666666666666666666666666",
"66666666666666666666666666666666666666666666666666666666666666666666666666666666666666666666666666666666666666666666666666666666",
"66666666666666666666666666666666666666666666666666666666666666666666666666666666666666666666666666666666666666666666666666666666",
"66666666666666666666666666666666666666666666666666666666666666666666666666666666666666666666666666666666666666666666666666666666",
"66666666666666666666666666666666666666666666666666666666666666666666666666666666666666666666666666666666666666666666666666666666",
"66666666666666666666666666666666666666666666666666666666666666666666666666666666666666666666666666666666666666666666666666666666",
"66666666666666666666666666666666666666666666666666666666666666666666666666666666666666666666666666666666666666666666666666666666",
"66666666666666666666666666666666666666666666666666666666666666666666666666666666666666666666666666666666666666666666666666666666",
"66666666666666666666666666666666666666666666666666666666666666666666666666666666666666666666666666666666666666666666666666666666",
"66666666666666666666666666666666666666666666666666666666666666666666666666666666666666666666666666666666666666666666666666666666",
"66666666666666666666666666666666666666666666666666666666666666666666666666666666666666666666666666666666666666666666666666666666",
"66666666666666666666666666666666666666666666666666666666666666666666666666666666666666666666666666666666666666666666666666666666",
"66666666666666666666666666666666666666666666666666666666666666666666666666666666666666666666666666666666666666666666666666666666",
"66666666666666666666666666666666666666666666666666666666666666666666666666666666666666666666666666666666666666666666666666666666",
"66666666666666666666666666666666666666666666666666666666666666666666666666666666666666666666666666666666666666666666666666666666",
"66666666666666666666666666666666666666666666666666666666666666666666666666666666666666666666666666666666666666666666666666666666",
"66666666666666666666666666666666666666666666666666666666666666666666666666666666666666666666666666666666666666666666666666666666",
"66666666666666666666666666666666666666666666666655555555555566666666666666666666666666666666666666666666666666666666666666666666",
"66666666666666666666666666666666666666666666666655555555555566666666666666666666666666666666666666666666666666666666666666666666",
"66666666666666666666666666666666666666666666666655765555555566666666666666666666666666666666666666666666666666666666666666666666",
"66666666666666666666666666666666666666666666666655565555555566666666666666666666666666666666666666666666666666666666666666666666",
"66666666666666666666666666666666666666676676667676676676556766666666666666666666666666666666666666666666666666666666666666666666",
"666666666666666666666666666666660%%%%%%%%%%%%%%%%%%%%%%%%%%766666666666666666666666666666666666666666666666666666666666666666666",
"666666666666666666666666666666663%%%%%%%%%%%%%%%%%%%%%%%%%%566666666666666666666666666666666666666666666666666666666666666666666",
"666666666666666666666666666666666%%%%%%%%%%%%%%%%%%%%%%%%%%566666666666666666666666666666666666666666666666666666666666666666666",
"66666666666666666666666666666666%%%%%%%%%%%%%%%%%%%%%%%%%%6666666666666666666666666666666666666666666666666666666666666666666666",
"66666666666666666666666666666667%%%%%%%%%%%%%%%%%%%%%%%%%%7666666666666666666666666666666666666666666666666666666666666666666666",
"66666666666666666666666666666663%%%%%%%%%%%%%%%%%%%%%%%%%%9666666666666666666666666666666666666666666666666666666666666666666666",
"66666666666666666666666666666667%%%%%%%%%%%%%%%%%%%%%%%%%%6666666666666666666666666666666666666666666666666666666666666666666666",
"66666666666666666666666666666666%%%%%%%%%%%%%%%%%%%%%%%%%%6666666666666666666666666666666666666666666666666666666666666666666666",
"6666666666666666666666666666666%%%%%%%%%%%%%%%%%%%%%%%%%%66666666666666666666666666666666666666666666666666666666666666666666666",
"6666666666666666666666666666663%%%%%%%%%%%%%%%%%%%%%%%%%%66666666666666666666666666666666666666666666666666666666666666666666666",
"6666666666666666666666666666663%%%%%%%%%%%%%%%%%%%%%%%%%%96666666666666666666666666666666666666666666666666666666666666666666666",
"6666666666666666666666666666663%%%%%%%%%%%%%%%%%%%%%%%%%%66666666666666666666666666666666666666666666666666666666666666666666666",
"6666666666666666666666666666666%%%%%%%%%%%%%%%%%%%%%%%%%%66666666666666666666666666666666666666666666666666666666666666666666666",
"666666666666666666666666666666%%%%%%%%%%%%%%%%%%%%%%%%%%666666666666666666666666666666666666666666666666666666666666666666666666",
"666666666666666666666666666663%%%%%%%%%%%%%%%%%%%%%%%%%%366666666666666666666666666666666666666666666666666666666666666666666666",
"666666666666666666666666666663%%%%%%%%%%%%%%%%%%%%%%%%%%366666666666666666666666666666666666666666666666666666666666666666666666",
"666666666666666666666666666666%%%%%%%%%%%%%%%%%%%%%%%%%%666666666666666666666666666666666666666666666666666666666666666666666666",
"66666666666666666666666666666%%%%%%%%%%%%%%%%%%%%%%%%%%6666666666666666666666666666666666666666666666666666666666666666666666666",
"66666666666666666666666666666%%%%%%%%%%%%%%%%%%%%%%%%%%6666666666666666666666666666666666666666666666666666666666666666666666666",
"66666666666666666666666666660%%%%%%%%%%%%%%%%%%%%%%%%%%7666666666666666666666666666666666666666666666666666666666666666666666666",
"66666666666666666666666666663%%%%%%%%%%%%%%%%%%%%%%%%%%6666666666666666666666666666666666666666666666666666666666666666666666666",
"6666666666666*><1<>:-&@666666%%%%%%%%%%%%%%%%%%%%%%%%%%6666666666666666666666666666666666666666666666666666666666666666666666666",
"66666666666-eyrw2<>:-*$+6666%%%%%%%%%%%%%%%%%%%%%%%%%%76666666666666666666666666666666666666666666666666666666666666666666666666",
"6666666666>tiur2<>;=&#+o6666%%%%%%%%%%%%%%%%%%%%%%%%%%36666666666666666666666666666666666666666666666666666666666666666666666666",
"666666666;euutw<>;=$+o+66660%%%%%%%%%%%%%%%%%%%%%%%%%%96666666666666666666666666666666666666666666666666666666666666666666666666",
"666666666<yputw<>;*@OOo66666%%%%%%%%%%%%%%%%%%%%%%%%%%66666666666666666666666666666666666666666666666666666666666666666666666666",
"666666666<ypitw1>=$+XX666666%%%%%%%%%%%%%%%%%%%%%%%%%%66666666666666666666666666666666666666666666666666666666666666666666666666",
"666666666:tyutw<:=#OO666667%%%%%%%%%%%%%%%%%%%%%%%%%%666666666666666666666666666666666666666666666666666666666666666666666666666",
"666666666#1rtr2>-&++6666667%%%%%%%%%%%%%%%%%%%%%%%%%%866666666666666666666666666666666666666666666666666666666666666666666666666",
"6666666666&1tw1:&#O66666660+&-:><wyurw>*%%%%%%%%%%%%%q66666666666666666666666666666666666666666666666666666666666666666666666666",
"66666666666;<1,*@.@ @$=;>,12ertyuiit2,;&&@%%%%%%%%%%%666666666666666666666666666666666666666666666666666666666666666666666666666",
"66666666666&*=>2yipaassssaiuuuuuytr2,;&$@@O%%%%%%%%%%666666666666688666666666666666666666666666666666666666666666666666666666666",
"66666666666<=1uapippppppiiipiiiutrw<:;*&$#+@O%%%%%%%666666666666@-,w1,6666666666666666666666666666666666666666666666666666666666",
"6666666666&2iuuipaaappppiippiiurew<:;;;;;*&&$$O%%%%%8666666666&>wtpsss<666666666666666666666666666666666666666666666666666666666",
"6666666666<iiiiaaaaaaaaaapppiiyrw1,;;;;>>>>>>>,;%%%%46666666#:1rtiasssp>66666666666666666666666666666666666666666666666666666666",
"666666666=yaaaassssaaaaaappiiutrw1>----;>,11w2wte1>-&#O@@$*;,wtyuisssssw66666666666666666666666666666666666666666666666666666666",
"666666666<pssaassssssassaapppitw2,;-***-:,<2wertisite1,>:>,<2rtuiasssssu66666666666666666666666666666666666666666666666666666666",
"66666666-tsssaaassssssssssappute1>-*&$&&-:,1eettyiiiir2<,<,1wryiassssssi<6666666666666666666666666666666666666666666666666666666",
"6666666-1isspappppaaaassssappyrw<;*&#@@#&-;,11etttyyyttre22wetissssssssaw6666666666666666666666666666666666666666666666666666666",
"6666666>yssppiiiippppaaasaapuye2,-*$@@@@#$*;,<2eertttttyyytryiasssssssaaw6666666666666666666666666666666666666666666666666666666",
"6666661issspuiuuyyiiippaaapiute2>-*$@@@@@#&*;,<1weertttyuuuiipaasssssaaau6666666666666666666666666666666666666666666666666666666",
"6666-wassssiyyyrrtttyyipaapiytw1>;*&#@@@@@#$*;><1wwerttyuuuiipaassssaaaai>666666666666666666666666666666666666666666666666666666",
"666;tsssssaiwwwwwrrrtrtipaautrw1<:-&$@@@@@@#$*;:,11wertyuuiiipaasssaaaaap<666666666666666666666666666666666666666666666666666666",
"661pssssssirw;;:,1wwwwwtiaaautew1:;*&$@@@@@@#&**:,<1wertuuiipppasssaaapppw866666666666666666666666666666666666666666666666666666",
"6>tassssapy1>;&&=-:,<<<wtiaaiyee1,:*&$@@@@@@@$**-:,1weettyiipppasssaappppw886666666666666666666666666666666666666666666666666666",
"6<iaasspiy2<;$&@##$*=;;>wuapiyrw1:;-*&#@@@@@@@&&*-:,1wwrtyiippaasssaapppiy;66666666666666666666666666666666666666666666666666666",
"66wppapiyr1;=$##@OOOOO+$<iiiiytw1,:-**&$@@@@@@$$&*-:,<1wrtyiipaasssaapppit>66666666666666666666666666666666666666666666666666666",
"666wpiiyw2<;=$&&@OX . .+:ruppiue1,:;-**$@@@@@@@#$&*-;><1wttyippassssapppii<66666666666666666666666666666666666666666666666666666",
"6666>;;>><<>=&&$@X XOO@#<iaapuur2<>:;-*$@@@@@@@@@#$&=-:<wwrtyippassssaappiw66666666666666666666666666666666666666666666666666666",
"66666666><uiy2>=@**-:*;*>isappiyw<>:;-**#@@@+++@@@@$&*;:,1wrtipppassssaapiu>6666666666666666666666666666666666666666666666666666",
"6666666661rapuutuissssu>;usaaait21,;;-**#@@+++++@@@@#$*;:,1wtyipppaaassaapi<6666666666666666666666666666666666666666666666666666",
"666666666>2aapptypssssu1;usaaiyyy22<:*;*$@@+OOO+++@@@#$*;:<1etyiippaaassapi16666666666666666666666666666666666666666666666666666",
"6666666666wapaatryyyuuy1*2apppppy22<>;;*$@@+OOOOO++@@@@$&==>1etyuuupaaasaair6666666666666666666666666666666666666666666666666666",
"6666666666<upipurrruuyw1$>iappiiy222>;**&@@+OOOOOOO+@@@@@@$=;1ettiuuppaasapi1666666666666666666666666666666666666666666666666666",
"6666666666><tiuiiw2yiiy<&*raappiur21,:;*&@@++OOOOOOO+@@@@@$&=>1etytuuiipasaae666666666666666666666666666666666666666666666666666",
"6666666666*-1rtruiyw2yy>#@2ippppie21,:**$@@++OOOOOOOO++++@@$=>1wtttuiupppasat,86666666666666666666666666666666666666666666666666",
"6666666666>rwwww212r2r2;$&2iapppiy21,:;*#@++OOOOOOOOOOO+++@$*;<wwrrttutiipaai18q666666666666666666666666666666666666666666666666",
"666666666:yppiiuyrr2wyr1#&;rppiuue22,:**#@+OOOOOOOOOOOOO++@#$=><werttuptuipppt1q666666666666666666666666666666666666666666666666",
"666666666wpaaiiuyyuyyyupu;*2iaaiur21,:;*#@+OOOOOOOOOOOOO++@@#$=:<wrtuttpuuiippt>666666666666666666666666666666666666666666666666",
"66666666>yssaappt1>,<tyir;$=raaiytw1<:-*$@+OOOOOOOOOOOOOOO+@@#&->1ettyyyuuuiiaat666666666666666666666666666666666666666666666666",
"66666666,isssspuetyuiiiyw;@#1ipiyew2<:-*$@+OOOOOOOOOOOOOOO+@@@#&-<wtttyyyuuuipay166666666666666666666666666666666666666666666666",
"66666666<psssssipssssppt1=+#>tpiytww1,;*&#+OOOOOOOOOOOOOOO++@@@$&;<etttyyyuuuippw66666666666666666666666666666666666666666666666",
"666666662pssssaisssspiuy<=+$*wiiyrwe1,;*&#@+OOOOOOOOOOOOOO++@@@#$*;<etttyyuuuuipi26666666666666666666666666666666666666666666666",
"666666662iappiuyttttrrrw>=&%%:tpuyrw1,;-*#@+OOOOOOOOOOOOOO++@@@@#&=-,wrttyyuuuiuiuw666666666666666666666666666666666666666666666",
"66666666<ipiuyywwewwwww1-#%%%%2uiurw1<:-*#@+OOOOOOOOOOOOO+++@@@@#$*-;,2ettyuuiipppi666666666666666666666666666666666666666666666",
"666666666yiuyttw1wwwwww>&%%%%%;tpitww1>-*#@+OOOOOOOOOOOO++++@@@#$$*=-;,1wtttuuiuiiur66666666666666666666666666666666666666666666",
"666666666wiuytrww,,,>>>=$%%%%%%1uitrw1:-*#@+OOOOOOOOOOO+++@@@#$$$&*==-;:<wttyyuuiiiur6666666666666666666666666666666666666666666",
"666666666<ttrrwwwwrutrr>%%%%%%%;riye2<>:-&@+OOOOOOOOOO+++@@##$&**=====-;:<12ettuuuuuie166666666666666666666666666666666666666666",
"66666666<tuitw,===&&=;=%%%%%%%%%>rur21,>-*$@+OOOOOOO+@@@#$&&**=-----==--;;:,,2wetttyyyurw666666666666666666666666666666666666666",
"666666;riaaassssssi1=%%%%%%%%%%%%,ete2<,;=*#OOOOOOO+@@$&&*=--;;;;;;;-----;;:>,<122eertyiue<6666666666666666666666666666666666666",
"66666;wuasssaiyyyuiu1%%%%%%%%%%%%%<et2<,>;-&@+++@#$&**=---;;;;;;:::;;;;;;;;;::>,,<<1errrrtr2<66666666666666666666666666666666666",
"66666>ysssssiripaast;%%%%%%%%%%%%%%>1ee2<,:=$@+@$*=----;;:,,,>>>>,>>>::::;;;;::>,,<<112erttte16666666666666666666666666666666666",
"66666,iaaaaatpassspr;%%%%%%%%%%%%%%%:,2ew1,-&##$&=-;;;;:,,,<,,,,,,,>,>>:>:;;;;::>>,,<<<12wertte166666666666666666666666666666666",
"66666<iaapppuassaat<$%%%%%%%%%%%%%%%%%1eew1,-=**=-;;:>,<,,<<<<<,,,<,,,,,>::;;;;:::>>,<<<121wertyw<666666666666666666666666666666",
"666661ipiiiuyuuuuur;+%%%%%%%%%%%%%%%%%<wrw1<>;====;:>,,,,,<<<<<<,<,<,<,,>:::;;;;;:::>,,<<1111wrryr2>6666666666666666666666666666",
"66666,tpuuyyrtyuyuw=%%%%%%%%%%%%%%%%%%<wrtrw1<,>:;>,<,,,,<<<<<<<<<,,<<<,,::;;;;;;;:::>>,,<<122wwrtyr2666666666666666666666666666",
"66666;wiiuyyyrwwrr>+%%%%%%%%%%%%%%%%%%1ryuyrw2<,,<<<<,,>,<<1<1<<<<<<<<,,>>:::;;;;;;;:::>,<<11122wrtyr2<6666666666666666666666666",
"666666>yuuuuiasssi<#%%%%%%%%%%%%%%%%%%etiiyr2111<<<<<,,,<<111111<<<<<<<,,>::;;;;;;;;;::>>,<<11222weryte2266666666666666666666666",
"6666666;1iutrww1;@%%%%%%%%%%%%%%%%%%%>tiiirwwwww21<<<<<,<122112211<<<<<<,>::;::;;;:;;;::>>>,<<<122werrtye<6666666666666666666666",
"66666666;1rw11;;+%%%%%%%%%%%%%%%%%%%&wiiiiyteeww2<<<<<<1222212121<11<<,<,,>::;;:::;::;;;::>,,,,<122weerrye2666666666666666666666",
"666666666;>1;@67%%%%%%%%%%%%%%%%%%%%>riiiiytteww1<<<<<<21122122121121<<<<,>:::::>>::::;;;;:>>>,<<12w2weerrte66666666666666666666",
"6666666666666660%%%%%%%%%%%%%%%%%%%%2tiiiiyyyrw211<<<<212122222212221<<<,,,>::,>,,>>>::::;;:::>,<<22wwwerryy1;666666666666666666",
"6666666666666666%%%%%%%%%%%%%%%%%%%=wtiiiyttr211<<<<<<222222w22221211<<,,,,>>>,,,,,,,,>::::::::>,<<1122weeryur,<6666666666666666",
"6666666666666666%%%%%%%%%%%%%%%%%%%;etiiytw22,<<<<<<<<2ww2w22222222111<<,<,,,,,,<,,,,<,,,>::>>>>>,,<<<<1122ewryuu266666666666666",
"666666666666667%%%%%%%%%%%%%%%%%%%%:wyiitrw<,>,<1<<<,<2ww22www222221211<<<<<,,<,<<,>,,,,>>>::>,>>>,,<<<<122wrrrtyyt2666666666666",
"666666666666660%%%%%%%%%%%%%%%%%%%%:wyiutw1>:->1121,::<2w22www22w22221<<<<<<<,<<<<,,<,<,,,,>>,,,,>>,,<<<<212eewrtruure6666666666",
"666666666666667%%%%%%%%%%%%%%%%%%%%;2yiyrw1>-*;<<<<>;><2w2ww22wwww22221<<<<<<<<<<,,,,<,,,<,,,,<<,,>,<<<<<<<22wweeryyyyw666666666",
"666666666666666%%%%%%%%%%%%%%%%%%%%:2tyyrw<;##=>1<<>;><222w2wwew2w212221<<111<<<<<,,<<<<<<<<,<<<,<<<<<,<<<<<222222errtyuy6666666",
"666666666666666%%%%%%%%%%%%%%%%%%%%;2ryrrw<;*#$><<<:-;<22w22wwew221121121111<<<1<,,<<<<<<<<<<<<,<<1<<<,,<<,<<<1222212wetrty66666",
"66666666666666%%%%%%%%%%%%%%%%%%%%%&,eyrww>=*#$-:<:--->12w222eewww2222111<111<<<<<<<<<<<<<<<<<<<,<<<<<<<<<<<<<<112112wweerty6666",
"66666666666660%%%%%%%%%%%%%%%%%%%%%%:ruyrww>=&@#-:=&&=;,11212www2ww21121111111<<<<<<<<<<<<<<<<<<<<<1<<<<<,<<,<1<11111wwwwwrtt666"
};
