/* XPM */
static char *result[] = {
/* columns rows colors chars-per-pixel */
"128 128 72 1 ",
"  c #030201",
". c #0D0701",
"X c #0E0800",
"o c #05020F",
"O c #0D070E",
"+ c #0D0A0D",
"@ c #140B02",
"# c #190D01",
"$ c #140B0D",
"% c #190E0C",
"& c #1D1003",
"* c #13100B",
"= c #1E110B",
"- c #040211",
"; c #0B0610",
": c #141414",
"> c #1E1A16",
", c #1B1B1B",
"< c #231302",
"1 c #2A1603",
"2 c #2E1905",
"3 c #22130A",
"4 c #2A1709",
"5 c #26190B",
"6 c #2E1A0B",
"7 c #341C03",
"8 c #3C1F03",
"9 c #321B0A",
"0 c #391F08",
"q c #241C13",
"w c #2A1E11",
"e c #221F1D",
"r c #362006",
"t c #3E2101",
"y c #33210C",
"u c #3D2209",
"i c #2D2216",
"p c #27221B",
"a c #2D251B",
"s c #352512",
"d c #392510",
"f c #352817",
"g c #3C2B17",
"h c #31271A",
"j c #382B1C",
"k c #3F301E",
"l c #232323",
"z c #292623",
"x c #2E2C27",
"c c #2C2C2C",
"v c #322B24",
"b c #3C3126",
"n c #39332D",
"m c #373737",
"M c #3B3B3B",
"N c #442404",
"B c #482601",
"V c #4D2A05",
"C c #402409",
"Z c #412A0F",
"A c #542D04",
"S c #5C3103",
"D c #623400",
"F c #673800",
"G c #6B3A01",
"H c #723E01",
"J c #413C34",
"K c #403D3B",
"L c #434343",
"P c #494747",
"I c #4D4D4D",
"U c None",
/* pixels */
"UUUUUUUUUUUUUUUUUUUUUUUUUUUUUUUUUUUUUUUUUUUUUUUUUUUUUUUUUUUUUUUUUUUUUUUUUUUUUUUUUUUUUUUUUUUUUUUUUUUUUUUUUUUUUUUUUUUUUUUUUUUUUUUU",
"UUUUUUUUUUUUUUUUUUUUUUUUUUUUUUUUUUUUUUUUUUUUUUUUUUUUUUUUUUUUUUUUUUUUUUUUUUUUUUUUUUUUUUUUUUUUUUUUUUUUUUUUUUUUUUUUUUUUUUUUUUUUUUUU",
"UUUUUUUUUUUUUUUUUUUUUUUUUUUUUUUUUUUUUUUUUUUUUUUUUUUUUUUUUUUUUUUUUUUUUUUUUUUUUUUUUUUUUUUUUUUUUUUUUUUUUUUUUUUUUUUUUUUUUUUUUUUUUUUU",
"UUUUUUUUUUUUUUUUUUUUUUUUUUUUUUUUUUUUUUUUUUUUUUUUUUUUUUUUUUUUUUUUUUUUUUUUUUUUUUUUUUUUUUUUUUUUUUUUUUUUUUUUUUUUUUUUUUUUUUUUUUUUUUUU",
"UUUUUUUUUUUUUUUUUUUUUUUUUUUUUUUUUUUUUUUUUUUUUUUUUUUUUUUUUUUUUUUUUUUUUUUUUUUUUUUUUUUUUUUUUUUUUUUUUUUUUUUUUUUUUUUUUUUUUUUUUUUUUUUU",
"UUUUUUUUUUUUUUUUUUUUUUUUUUUUUUUUUUUUUUUUUUUUUUUUUUUUUUUUUUUUUUUUUUUUUUUUUUUUUUUUUUUUUUUUUUUUUUUUUUUUUUUUUUUUUUUUUUUUUUUUUUUUUUUU",
"UUUUUUUUUUUUUUUUUUUUUUUUUUUUUUUUUUUUUUUUUUUUUUUUUUUUUUUUUUUUUUUUUUUUUUUUUUUUUUUUUUUUUUUUUUUUUUUUUUUUUUUUUUUUUUUUUUUUUUUUUUUUUUUU",
"UUUUUUUUUUUUUUUUUUUUUUUUUUUUUUUUUUUUUUUUUUUUUUUUUUUUUUUUUUUUUUUUUUUUUUUUUUUUUUUUUUUUUUUUUUUUUUUUUUUUUUUUUUUUUUUUUUUUUUUUUUUUUUUU",
"UUUUUUUUUUUUUUUUUUUUUUUUUUUUUUUUUUUIIIIIIIIIIIIIIIIIIIIIIIIIIIIIIIIIIPPLIIMMmmmMmmmmmMmmmmMmmmmmmmmmmmmmmMmmmUUUUUUUUUUUUUUUUUUU",
"UUUUUUUUUUUUUUUUUUUUUUUUUUUUUUUUUUIIIIIIIIIIIIIIIIIIIIIIIIIIIIIIIIIIIPLLLIMmmmmmmmmmmmmMmmmmMmmmmmMmmMmmmmmmmmUUUUUUUUUUUUUUUUUU",
"UUUUUUUUUUUUUUUUUUUUUUUUUUUUUUUUUIIIIIIIIIIIIIIIIIIIIIIIIIIIIIIIIIIIIPPLLMMMmmmmMmmmmmmmmmmmmmmmmmmmmmmmMmmmmmMUUUUUUUUUUUUUUUUU",
"UUUUUUUUUUUUUUUUUUUUUUUUUUUUUUUUIIIIIIIIIIIIIIIIIIIIIIIIIIIIIIIIIIIIIILLLLMmmmmmmmmmmmmmmmmmmmmMmmmmmmmmmmmmmmmmUUUUUUUUUUUUUUUU",
"UUUUUUUUUUUUUUUUUUUUUUUUUUUUUUUUIIIIIIIIIIIIIIIIIIIIIIIIIIIIIIIIIIIIIPPLLMMmMmmmmmMmmmMmMmmmmmmmmmmmmmmmmmmmmmmmUUUUUUUUUUUUUUUU",
"UUUUUUUUUUUUUUUUUUUUUUUUUUUUUUUUUIIIIIIIIIIIIIIIIIIIIIIIIIIIIIIIIIIIIPPLLLMMmmmmmmmmmmmmmmmmmmmmmmmmmmmmmmmmMmmUUUUUUUUUUUUUUUUU",
"UUUUUUUUUUUUUUUUUUUUUUUUUUUUUUUUUUIIIIIIIIIIIIIIIIIIIIIIIIIIIIIIIIIIIPLLLMMmmmmmmmmmmmmmmmmmmmmmmmmmmmmmmmmmmmUUUUUUUUUUUUUUUUUU",
"UUUUUUUUUUUUUUUUUUUUUUUUUUUUUUUUUUUIIIIIIIIIIIIIIIIIIIIIIIIIIIIIIIIIIIPLLMMmmmmmmmmmmmmmmmMmmmmmmmmmmmmmmmmmmUUUUUUUUUUUUUUUUUUU",
"UUUUUUUUUUUUUUUUUUUUUUUUUUUUUUUUUUUUUIIIIIIIIIIIIIIUUUUUUUUUUIIIIIIIIPLLLMMMmmmmmmMUUUUUUUUUUMMmmmmmmmmmmMmUUUUUUUUUUUUUUUUUUUUU",
"UUUUUUUUUUUUUUUUUUUUUUUUUUUUUUUUUUUUUUIIIIIIIIIIIIUUUUUUUUUUUUIIIIIIIPLLLMMMmmmmMmUUUUUUUUUUUUmmmMmmmmmmmmUUUUUUUUUUUUUUUUUUUUUU",
"UUUUUUUUUUUUUUUUUUUUUUUUUUUUUUUUUUUUUUUIIIIIIIIIIUUUUUUUUUUUUUUIIIIIILILLMMMmmmmmUUUUUUUUUUUUUUMmmmmmMmmmUUUUUUUUUUUUUUUUUUUUUUU",
"UUUUUUUUUUUUUUUUUUUUUUUUUUUUUUUUUUUUUUUUIIIIIIIIUUUUUUUUUUUUUUUUIIIIIILLLMMMmMmmUUUUUUUUUUUUUUUUmmmmmmmmUUUUUUUUUUUUUUUUUUUUUUUU",
"UUUUUUUUUUUUUUUUUUUUUUUUUUUUUUUUUUUUUUUUIIIIIIIIUUUUUUUUUUUUUUUUIPPLLLLLMMmmnmnmUUUUUUUUUUUUUUUUmmmmmmmmUUUUUUUUUUUUUUUUUUUUUUUU",
"UUUUUUUUUUUUUUUUUUUUUUUUUUUUUUUUUUUUUUUUUIIIIILLUUUUUUUUUUUUUUUJMMKMLMmmmccccccxvUUUUUUUUUUUUUUUcmcmmmmUUUUUUUUUUUUUUUUUUUUUUUUU",
"UUUUUUUUUUUUUUUUUUUUUUUUUUUUUUUUUUUUUUUUUUIIILMmUUUUUUUUUUUUUUkbnnmmmcccccclllpajfUUUUUUUUUUUUUUccmmmMUUUUUUUUUUUUUUUUUUUUUUUUUU",
"UUUUUUUUUUUUUUUUUUUUUUUUUUUUUUUUUUUUUUUUUUUIILMmUUUUUUUUUUUUUggjjxcccccllllleppihydUUUUUUUUUUUUUlcccmUUUUUUUUUUUUUUUUUUUUUUUUUUU",
"UUUUUUUUUUUUUUUUUUUUUUUUUUUUUUUUUUUUUUUUUUUUUUUUl,+  X&<17NBBCdsaapleee,,,,,,qqwwruBBt71<#.  ++:UUUUUUUUUUUUUUUUUUUUUUUUUUUUUUUU",
"UUUUUUUUUUUUUUUUUUUUUUUUUUUUUUUUUUUUUUUUUUUUUUUU,+   X@<17tBBNuy6q>,,,::::::*:>56rtBBt72<@X  o +UUUUUUUUUUUUUUUUUUUUUUUUUUUUUUUU",
"UUUUUUUUUUUUUUUUUUUUUUUUUUUUUUUUUUUUUUUUUUUUUUUU+    X@<18tBBur25=**:++*++-+**&51rNBBt71<#X     UUUUUUUUUUUUUUUUUUUUUUUUUUUUUUUU",
"UUUUUUUUUUUUUUUUUUUUUUUUUUUUUUUUUUUUUUUUUUUUUUUU     X#<17tBBtr2<&X+         @#<1rtBBN71<#@     UUUUUUUUUUUUUUUUUUUUUUUUUUUUUUUU",
"UUUUUUUUUUUUUUUUUUUUUUUUUUUUUUUUUUUUUUUUUUUUUUUU     X#<178NN871&&@         X@&&1rtNN871&#.     UUUUUUUUUUUUUUUUUUUUUUUUUUUUUUUU",
"UUUUUUUUUUUUUUUUUUUUUUUUUUUUUUUUUUUUUUUUUUUUUUUUU    X#&12788771<&@XX@X@X@XXX#&&127rt714&#@    UUUUUUUUUUUUUUUUUUUUUUUUUUUUUUUUU",
"UUUUUUUUUUUUUUUUUUUUUUUUUUUUUUUUUUUUUUUUUUUUUUUUUU   .@#31477213<<&&&@&@#&###&&1<177721<#@.   UUUUUUUUUUUUUUUUUUUUUUUUUUUUUUUUUU",
"UUUUUUUUUUUUUUUUUUUUUUUUUUUUUUUUUUUUUUUUUUUUUUUUUUU  .@##3114111<<<<&<<&&&&<&<1<114413<&#@.  UUUUUUUUUUUUUUUUUUUUUUUUUUUUUUUUUUU",
"UUUUUUUUUUUUUUUUUUUUUUUUUUUUUUUUUUUUUUUUUUUUUUUUUUUUU.@$%==&33311<1111111111111<13333&%@@@.UUUUUUUUUUUUUUUUUUUUUUUUUUUUUUUUUUUUU",
"UUUUUUUUUUUUUUUUUUUUUUUUUUUUUUUUUUUUUUUUUUUUUUUUUUUUUU.$@$%$%%3<117777877787721133%%%%$$$+UUUUUUUUUUUUUUUUUUUUUUUUUUUUUUUUUUUUUU",
"UUUUUUUUUUUUUUUUUUUUUUUUUUUUUUUUUUUUUUUUUUUUUUUUUUUUUUUOOOO$$$%31278tttttt8t87243&$$;OOOOUUUUUUUUUUUUUUUUUUUUUUUUUUUUUUUUUUUUUUU",
"UUUUUUUUUUUUUUUUUUUUUUUUUUUUUUUUUUUUUUUUUUUUUUUUUUUUUUUUo---;$%3428BBBBBBBBBB8743%$;----UUUUUUUUUUUUUUUUUUUUUUUUUUUUUUUUUUUUUUUU",
"UUUUUUUUUUUUUUUUUUUUUUUUUUUUUUUUUUUUUUUUUUUUUUUUUUUUUUUUo----;%3478NBBBNBBBBN8943%O-----UUUUUUUUUUUUUUUUUUUUUUUUUUUUUUUUUUUUUUUU",
"UUUUUUUUUUUUUUUUUUUUUUUUUUUUUUUUUUUUUUUUUUUUUUUUUUUUUUUUU----;%344788N8Ntt8N89243$O----UUUUUUUUUUUUUUUUUUUUUUUUUUUUUUUUUUUUUUUUU",
"UUUUUUUUUUUUUUUUUUUUUUUUUUUUUUUUUUUUUUUUUUUUUUUUUUUUUUUUUU---;$%3492778978799643%$O---UUUUUUUUUUUUUUUUUUUUUUUUUUUUUUUUUUUUUUUUUU",
"UUUUUUUUUUUUUUUUUUUUUUUUUUUUUUUUUUUUUUUUUUUUUUUUUUUUUUUUUUU--;$%%34444444444633=%%;--UUUUUUUUUUUUUUUUUUUUUUUUUUUUUUUUUUUUUUUUUUU",
"UUUUUUUUUUUUUUUUUUUUUUUUUUUUUUUUUUUUUUUUUUUUUUUUUUUUUUUUUUUUU;$$%%=33=3333=3==%%%$;UUUUUUUUUUUUUUUUUUUUUUUUUUUUUUUUUUUUUUUUUUUUU",
"UUUUUUUUUUUUUUUUUUUUUUUUUUUUUUUUUUUUUUUUUUUUUUUUUUUUUUUUUUUUUU;$$$$$%%%%%%%%$%%%$;UUUUUUUUUUUUUUUUUUUUUUUUUUUUUUUUUUUUUUUUUUUUUU",
"UUUUUUUUUUUUUUUUUUUUUUUUUUUUUUUUUUUUUUUUUUUUUUUUUUUUUUUUUUUUUUUOOOO$;$;O;$$;$;;;;UUUUUUUUUUUUUUUUUUUUUUUUUUUUUUUUUUUUUUUUUUUUUUU",
"UUUUUUUUUUUUUUUUUUUUUUUUUUUUUUUUUUUUUUUUUUUUUUUUUUUUUUUUUUUUUUUU;-;----;--------UUUUUUUUUUUUUUUUUUUUUUUUUUUUUUUUUUUUUUUUUUUUUUUU",
"UUUUUUUUUUUUUUUUUUUUUUUUUUUUUUUUUUUUUUUUUUUUUUUUUUUUUUUUUUUUUUUU-;-;--;--;-;-;-;UUUUUUUUUUUUUUUUUUUUUUUUUUUUUUUUUUUUUUUUUUUUUUUU",
"UUUUUUUUUUUUUUUUUUUUUUUUUUUUUUUUUUUUUUUUUUUUUUUUUUUUUUUUUUUUUUUU$;$;$$$$$$$:$$:$UUUUUUUUUUUUUUUUUUUUUUUUUUUUUUUUUUUUUUUUUUUUUUUU",
"UUUUUUUUUUUUUUUUUUUUUUUUUUUUUUUUUUUUUUUUUUUUUUUUUUUUUUUUUUUUUUUU>========33q3333UUUUUUUUUUUUUUUUUUUUUUUUUUUUUUUUUUUUUUUUUUUUUUUU",
"UUUUUUUUUUUUUUUUUUUUUUUUUUUUUUUUUUUUUUUUUUUUUUUUUUUUUUUUUUUUUUUU4444444649999999UUUUUUUUUUUUUUUUUUUUUUUUUUUUUUUUUUUUUUUUUUUUUUUU",
"UUUUUUUUUUUUUUUUUUUUUUUUUUUUUUUUUUUUUUUUUUUUUUUUUUUUUUUUUUUUUUUU900000000CCCCCCCUUUUUUUUUUUUUUUUUUUUUUUUUUUUUUUUUUUUUUUUUUUUUUUU",
"UUUUUUUUUUUUUUUUUUUUUUUUUUUUUUUUUUUUUUUUUUUUUUUUUUUUUUUUUUUUUUUUCCCNNNNNVVVVVVVVUUUUUUUUUUUUUUUUUUUUUUUUUUUUUUUUUUUUUUUUUUUUUUUU",
"UUUUUUUUUUUUUUUUUUUUUUUUUUUUUUUUUUUUUUUUUUUUUUUUUUUUUUUUUUUUUUUUVBVVBAAAAASSSSSSUUUUUUUUUUUUUUUUUUUUUUUUUUUUUUUUUUUUUUUUUUUUUUUU",
"UUUUUUUUUUUUUUUUUUUUUUUUUUUUUUUUUUUUUUUUUUUUUUUUUUUUUUUUUUUUUUUUSSSSSSDDDFGGGGGGUUUUUUUUUUUUUUUUUUUUUUUUUUUUUUUUUUUUUUUUUUUUUUUU",
"UUUUUUUUUUUUUUUUUUUUUUUUUUUUUUUUUUUUUUUUUUUUUUUUUUUUUUUUUUUUUUUUDDSDDDDGGGGHHHHHUUUUUUUUUUUUUUUUUUUUUUUUUUUUUUUUUUUUUUUUUUUUUUUU",
"UUUUUUUUUUUUUUUUUUUUUUUUUUUUUUUUUUUUUUUUUUUUUUUUUUUUUUUUUUUUUUUUDDDSDDDGGGHHHHHHUUUUUUUUUUUUUUUUUUUUUUUUUUUUUUUUUUUUUUUUUUUUUUUU",
"UUUUUUUUUUUUUUUUUUUUUUUUUUUUUUUUUUUUUUUUUUUUUUUUUUUUUUUUUUUUUUUUDDDDDDDGGGHHHHHHUUUUUUUUUUUUUUUUUUUUUUUUUUUUUUUUUUUUUUUUUUUUUUUU",
"UUUUUUUUUUUUUUUUUUUUUUUUUUUUUUUUUUUUUUUUUUUUUUUUUUUUUUUUUUUUUUUUDSSDDDDGGGHHHHHHUUUUUUUUUUUUUUUUUUUUUUUUUUUUUUUUUUUUUUUUUUUUUUUU",
"UUUUUUUUUUUUUUUUUUUUUUUUUUUUUUUUUUUUUUUUUUUUUUUUUUUUUUUUUUUUUUUUDDSDDDDGGGGHHHHHUUUUUUUUUUUUUUUUUUUUUUUUUUUUUUUUUUUUUUUUUUUUUUUU",
"UUUUUUUUUUUUUUUUUUUUUUUUUUUUUUUUUUUUUUUUUUUUUUUUUUUUUUUUUUUUUUUUDSDDDDDGGGHGHHHHUUUUUUUUUUUUUUUUUUUUUUUUUUUUUUUUUUUUUUUUUUUUUUUU",
"UUUUUUUUUUUUUUUUUUUUUUUUUUUUUUUUUUUUUUUUUUUUUUUUUUUUUUUUUUUUUUUUDSDDDDGDGGGHHHHHUUUUUUUUUUUUUUUUUUUUUUUUUUUUUUUUUUUUUUUUUUUUUUUU",
"UUUUUUUUUUUUUUUUUUUUUUUUUUUUUUUUUUUUUUUUUUUUUUUUUUUUUUUUUUUUUUUUDDSDDDDFGGHHHHHHUUUUUUUUUUUUUUUUUUUUUUUUUUUUUUUUUUUUUUUUUUUUUUUU",
"UUUUUUUUUUUUUUUUUUUUUUUUUUUUUUUUUUUUUUUUUUUUUUUUUUUUUUUUUUUUUUUUDDDDDFFFGGHHHHHHUUUUUUUUUUUUUUUUUUUUUUUUUUUUUUUUUUUUUUUUUUUUUUUU",
"UUUUUUUUUUUUUUUUUUUUUUUUUUUUUUUUUUUUUUUUUUUUUUUUUUUUUUUUUUUUUUUFDDDDSFFGGHHHHHHUUUUUUUUUUUUUUUUUUUUUUUUUUUUUUUUUUUUUUUUUUUUUUUUU",
"UUUUUUUUUUUUUUUUUUUUUUUUUUUUUUUUUUUUUUUUUUUUUUUUUUUUUUUUUUUUUUDDFDFDFFGGGHHHHHUUUUUUUUUUUUUUUUUUUUUUUUUUUUUUUUUUUUUUUUUUUUUUUUUU",
"UUUUUUUUUUUUUUUUUUUUUUUUUUUUUUUUUUUUUUUUUUUUUUUUUUUUUUUUUUUUUDDFFFFGGSGGGGHHHUUUUUUUUUUUUUUUUUUUUUUUUUUUUUUUUUUUUUUUUUUUUUUUUUUU",
"UUUUUUUUUUUUUUUUUUUUUUUUUUUUUUUUUUUUUUUUUUUUUUUUUUUUUUUUUUUDDGDDFFGGGGGGGHHUUUUUUUUUUUUUUUUUUUUUUUUUUUUUUUUUUUUUUUUUUUUUUUUUUUUU",
"UUUUUUUUUUUUUUUUUUUUUUUUUUUUUUUUUUUUUUUUUUUUUUUUUUUUUUUUUUDDDDDGFFGGGGGGGHUUUUUUUUUUUUUUUUUUUUUUUUUUUUUUUUUUUUUUUUUUUUUUUUUUUUUU",
"UUUUUUUUUUUUUUUUUUUUUUUUUUUUUUUUUUUUUUUUUUUUUUUUUUUUUUUUUDSDDDDGFGGGGHHHHUUUUUUUUUUUUUUUUUUUUUUUUUUUUUUUUUUUUUUUUUUUUUUUUUUUUUUU",
"UUUUUUUUUUUUUUUUUUUUUUUUUUUUUUUUUUUUUUUUUUUUUUUUUUUUUUUUDDDDDDDGGGGHHHHHUUUUUUUUUUUUUUUUUUUUUUUUUUUUUUUUUUUUUUUUUUUUUUUUUUUUUUUU",
"UUUUUUUUUUUUUUUUUUUUUUUUUUUUUUUUUUUUUUUUUUUUUUUUUUUUUUUUDDDDDDGDGGGHHHHHUUUUUUUUUUUUUUUUUUUUUUUUUUUUUUUUUUUUUUUUUUUUUUUUUUUUUUUU",
"UUUUUUUUUUUUUUUUUUUUUUUUUUUUUUUUUUUUUUUUUUUUUUUUUUUUUUUUDDDSDDDGGGHGHHHHUUUUUUUUUUUUUUUUUUUUUUUUUUUUUUUUUUUUUUUUUUUUUUUUUUUUUUUU",
"UUUUUUUUUUUUUUUUUUUUUUUUUUUUUUUUUUUUUUUUUUUUUUUUUUUUUUUUDSDSDDGDGGGHHHHHUUUUUUUUUUUUUUUUUUUUUUUUUUUUUUUUUUUUUUUUUUUUUUUUUUUUUUUU",
"UUUUUUUUUUUUUUUUUUUUUUUUUUUUUUUUUUUUUUUUUUUUUUUUUUUUUUUUDDDDDDDGGGHHHHHHUUUUUUUUUUUUUUUUUUUUUUUUUUUUUUUUUUUUUUUUUUUUUUUUUUUUUUUU",
"UUUUUUUUUUUUUUUUUUUUUUUUUUUUUUUUUUUUUUUUUUUUUUUUUUUUUUUUDDSDDDDGGGHHHHHHUUUUUUUUUUUUUUUUUUUUUUUUUUUUUUUUUUUUUUUUUUUUUUUUUUUUUUUU",
"UUUUUUUUUUUUUUUUUUUUUUUUUUUUUUUUUUUUUUUUUUUUUUUUUUUUUUUUSDDDDDGDGGHHHHHHUUUUUUUUUUUUUUUUUUUUUUUUUUUUUUUUUUUUUUUUUUUUUUUUUUUUUUUU",
"UUUUUUUUUUUUUUUUUUUUUUUUUUUUUUUUUUUUUUUUUUUUUUUUUUUUUUUUDDDDDDDGGGHHHHHHUUUUUUUUUUUUUUUUUUUUUUUUUUUUUUUUUUUUUUUUUUUUUUUUUUUUUUUU",
"UUUUUUUUUUUUUUUUUUUUUUUUUUUUUUUUUUUUUUUUUUUUUUUUUUUUUUUUDDDDSDDGGGHHHHHHUUUUUUUUUUUUUUUUUUUUUUUUUUUUUUUUUUUUUUUUUUUUUUUUUUUUUUUU",
"UUUUUUUUUUUUUUUUUUUUUUUUUUUUUUUUUUUUUUUUUUUUUUUUUUUUUUUUDDDDDDFFGGGHHHHHUUUUUUUUUUUUUUUUUUUUUUUUUUUUUUUUUUUUUUUUUUUUUUUUUUUUUUUU",
"UUUUUUUUUUUUUUUUUUUUUUUUUUUUUUUUUUUUUUUUUUUUUUUUUUUUUUUDDDDDDFFGGGHHHHHUUUUUUUUUUUUUUUUUUUUUUUUUUUUUUUUUUUUUUUUUUUUUUUUUUUUUUUUU",
"UUUUUUUUUUUUUUUUUUUUUUUUUUUUUUUUUUUUUUUUUUUUUUUUUUUUUUDDDDFDFFGFGHGHHHUUUUUUUUUUUUUUUUUUUUUUUUUUUUUUUUUUUUUUUUUUUUUUUUUUUUUUUUUU",
"UUUUUUUUUUUUUUUUUUUUUUUUUUUUUUUUUUUUUUUUUUUUUUUUUUUUUFDFGDFFFGGGGGHHHUUUUUUUUUUUUUUUUUUUUUUUUUUUUUUUUUUUUUUUUUUUUUUUUUUUUUUUUUUU",
"UUUUUUUUUUUUUUUUUUUUUUUUUUUUUUUUUUUUUUUUUUUUUUUUUUUDDDDFFFFGGGGGGGGUUUUUUUUUUUUUUUUUUUUUUUUUUUUUUUUUUUUUUUUUUUUUUUUUUUUUUUUUUUUU",
"UUUUUUUUUUUUUUUUUUUUUUUUUUUUUUUUUUUUUUUUUUUUUUUUUUFDDDFDFFGGHGGGGHUUUUUUUUUUUUUUUUUUUUUUUUUUUUUUUUUUUUUUUUUUUUUUUUUUUUUUUUUUUUUU",
"UUUUUUUUUUUUUUUUUUUUUUUUUUUUUUUUUUUUUUUUUUUUUUUUUDDDDDFFFFGHGGHHHUUUUUUUUUUUUUUUUUUUUUUUUUUUUUUUUUUUUUUUUUUUUUUUUUUUUUUUUUUUUUUU",
"UUUUUUUUUUUUUUUUUUUUUUUUUUUUUUUUUUUUUUUUUUUUUUUUDDSSDDFFGGGHHHHHUUUUUUUUUUUUUUUUUUUUUUUUUUUUUUUUUUUUUUUUUUUUUUUUUUUUUUUUUUUUUUUU",
"UUUUUUUUUUUUUUUUUUUUUUUUUUUUUUUUUUUUUUUUUUUUUUUUDSDDDDDGGGHHHHHHUUUUUUUUUUUUUUUUUUUUUUUUUUUUUUUUUUUUUUUUUUUUUUUUUUUUUUUUUUUUUUUU",
"UUUUUUUUUUUUUUUUUUUUUUUUUUUUUUUUUUUUUUUUUUUUUUUUDDDSDDGDGGGHHHHHUUUUUUUUUUUUUUUUUUUUUUUUUUUUUUUUUUUUUUUUUUUUUUUUUUUUUUUUUUUUUUUU",
"UUUUUUUUUUUUUUUUUUUUUUUUUUUUUUUUUUUUUUUUUUUUUUUUDSDDDDGGGGHGHHHHUUUUUUUUUUUUUUUUUUUUUUUUUUUUUUUUUUUUUUUUUUUUUUUUUUUUUUUUUUUUUUUU",
"UUUUUUUUUUUUUUUUUUUUUUUUUUUUUUUUUUUUUUUUUUUUUUUUDDSDDDDGFGHHHHHHUUUUUUUUUUUUUUUUUUUUUUUUUUUUUUUUUUUUUUUUUUUUUUUUUUUUUUUUUUUUUUUU",
"UUUUUUUUUUUUUUUUUUUUUUUUUUUUUUUUUUUUUUUUUUUUUUUUDDDDDDGDGGHHHHHHUUUUUUUUUUUUUUUUUUUUUUUUUUUUUUUUUUUUUUUUUUUUUUUUUUUUUUUUUUUUUUUU",
"UUUUUUUUUUUUUUUUUUUUUUUUUUUUUUUUUUUUUUUUUUUUUUUUSDSDDDDGGGGHHHHHUUUUUUUUUUUUUUUUUUUUUUUUUUUUUUUUUUUUUUUUUUUUUUUUUUUUUUUUUUUUUUUU",
"UUUUUUUUUUUUUUUUUUUUUUUUUUUUUUUUUUUUUUUUUUUUUUUUSDDDDDDDFGHHHHHHUUUUUUUUUUUUUUUUUUUUUUUUUUUUUUUUUUUUUUUUUUUUUUUUUUUUUUUUUUUUUUUU",
"UUUUUUUUUUUUUUUUUUUUUUUUUUUUUUUUUUUUUUUUUUUUUUUUDDSDDDDGGGHHHHHHUUUUUUUUUUUUUUUUUUUUUUUUUUUUUUUUUUUUUUUUUUUUUUUUUUUUUUUUUUUUUUUU",
"UUUUUUUUUUUUUUUUUUUUUUUUUUUUUUUUUUUUUUUUUUUUUUUUDSDDDDDGGGHHHHHHUUUUUUUUUUUUUUUUUUUUUUUUUUUUUUUUUUUUUUUUUUUUUUUUUUUUUUUUUUUUUUUU",
"UUUUUUUUUUUUUUUUUUUUUUUUUUUUUUUUUUUUUUUUUUUUUUUUDDDDDDDFGGGHHHHHUUUUUUUUUUUUUUUUUUUUUUUUUUUUUUUUUUUUUUUUUUUUUUUUUUUUUUUUUUUUUUUU",
"UUUUUUUUUUUUUUUUUUUUUUUUUUUUUUUUUUUUUUUUUUUUUUUUDSDDDDFGGGHHHHHHUUUUUUUUUUUUUUUUUUUUUUUUUUUUUUUUUUUUUUUUUUUUUUUUUUUUUUUUUUUUUUUU",
"UUUUUUUUUUUUUUUUUUUUUUUUUUUUUUUUUUUUUUUUUUUUUUUUDSDDDDDDGGGHHHHHUUUUUUUUUUUUUUUUUUUUUUUUUUUUUUUUUUUUUUUUUUUUUUUUUUUUUUUUUUUUUUUU",
"UUUUUUUUUUUUUUUUUUUUUUUUUUUUUUUUUUUUUUUUUUUUUUUUDDDDDDFFGGGHHHHHUUUUUUUUUUUUUUUUUUUUUUUUUUUUUUUUUUUUUUUUUUUUUUUUUUUUUUUUUUUUUUUU",
"UUUUUUUUUUUUUUUUUUUUUUUUUUUUUUUUUUUUUUUUUUUUUUUUDDDSSDFFGGHHHHHHUUUUUUUUUUUUUUUUUUUUUUUUUUUUUUUUUUUUUUUUUUUUUUUUUUUUUUUUUUUUUUUU",
"UUUUUUUUUUUUUUUUUUUUUUUUUUUUUUUUUUUUUUUUUUUUUUUUDDDDDDFFGGGHHHHHUUUUUUUUUUUUUUUUUUUUUUUUUUUUUUUUUUUUUUUUUUUUUUUUUUUUUUUUUUUUUUUU",
"UUUUUUUUUUUUUUUUUUUUUUUUUUUUUUUUUUUUUUUUUUUUUUUUSDSDDDFFGGHGHHHHUUUUUUUUUUUUUUUUUUUUUUUUUUUUUUUUUUUUUUUUUUUUUUUUUUUUUUUUUUUUUUUU",
"UUUUUUUUUUUUUUUUUUUUUUUUUUUUUUUUUUUUUUUUUUUUUUUUDDDDDDFFGGGHHHHHUUUUUUUUUUUUUUUUUUUUUUUUUUUUUUUUUUUUUUUUUUUUUUUUUUUUUUUUUUUUUUUU",
"UUUUUUUUUUUUUUUUUUUUUUUUUUUUUUUUUUUUUUUUUUUUUUUUSDSDDDFFGHHHHHHHUUUUUUUUUUUUUUUUUUUUUUUUUUUUUUUUUUUUUUUUUUUUUUUUUUUUUUUUUUUUUUUU",
"UUUUUUUUUUUUUUUUUUUUUUUUUUUUUUUUUUUUUUUUUUUUUUUUDDDDDDFFGGHHHHHHUUUUUUUUUUUUUUUUUUUUUUUUUUUUUUUUUUUUUUUUUUUUUUUUUUUUUUUUUUUUUUUU",
"UUUUUUUUUUUUUUUUUUUUUUUUUUUUUUUUUUUUUUUUUUUUUUUUDSDDDDDFGHHHHHHHUUUUUUUUUUUUUUUUUUUUUUUUUUUUUUUUUUUUUUUUUUUUUUUUUUUUUUUUUUUUUUUU",
"UUUUUUUUUUUUUUUUUUUUUUUUUUUUUUUUUUUUUUUUUUUUUUUUDDDSDDFGGGGHHHHHUUUUUUUUUUUUUUUUUUUUUUUUUUUUUUUUUUUUUUUUUUUUUUUUUUUUUUUUUUUUUUUU",
"UUUUUUUUUUUUUUUUUUUUUUUUUUUUUUUUUUUUUUUUUUUUUUUUDSDDDDDGGGGHHHHHUUUUUUUUUUUUUUUUUUUUUUUUUUUUUUUUUUUUUUUUUUUUUUUUUUUUUUUUUUUUUUUU",
"UUUUUUUUUUUUUUUUUUUUUUUUUUUUUUUUUUUUUUUUUUUUUUUUDDDSDDDFGGHHHHHHUUUUUUUUUUUUUUUUUUUUUUUUUUUUUUUUUUUUUUUUUUUUUUUUUUUUUUUUUUUUUUUU",
"UUUUUUUUUUUUUUUUUUUUUUUUUUUUUUUUUUUUUUUUUUUUUUUUDSDDDDFFGGGHHHHHUUUUUUUUUUUUUUUUUUUUUUUUUUUUUUUUUUUUUUUUUUUUUUUUUUUUUUUUUUUUUUUU",
"UUUUUUUUUUUUUUUUUUUUUUUUUUUUUUUUUUUUUUUUUUUUUUUUSDDDDDFFGGGHHHHHUUUUUUUUUUUUUUUUUUUUUUUUUUUUUUUUUUUUUUUUUUUUUUUUUUUUUUUUUUUUUUUU",
"UUUUUUUUUUUUUUUUUUUUUUUUUUUUUUUUUUUUUUUUUUUUUUUUSDSDDDFFGGHHHHHHUUUUUUUUUUUUUUUUUUUUUUUUUUUUUUUUUUUUUUUUUUUUUUUUUUUUUUUUUUUUUUUU",
"UUUUUUUUUUUUUUUUUUUUUUUUUUUUUUUUUUUUUUUUUUUUUUUUDDDDDDDFGGGGHHHHUUUUUUUUUUUUUUUUUUUUUUUUUUUUUUUUUUUUUUUUUUUUUUUUUUUUUUUUUUUUUUUU",
"UUUUUUUUUUUUUUUUUUUUUUUUUUUUUUUUUUUUUUUUUUUUUUUUDSDSDDDFGGHHHHHHUUUUUUUUUUUUUUUUUUUUUUUUUUUUUUUUUUUUUUUUUUUUUUUUUUUUUUUUUUUUUUUU",
"UUUUUUUUUUUUUUUUUUUUUUUUUUUUUUUUUUUUUUUUUUUUUUUUDSSDDDDFGGHHHHHHUUUUUUUUUUUUUUUUUUUUUUUUUUUUUUUUUUUUUUUUUUUUUUUUUUUUUUUUUUUUUUUU",
"UUUUUUUUUUUUUUUUUUUUUUUUUUUUUUUUUUUUUUUUUUUUUUUUDDDSDDFGGGHHHHHHUUUUUUUUUUUUUUUUUUUUUUUUUUUUUUUUUUUUUUUUUUUUUUUUUUUUUUUUUUUUUUUU",
"UUUUUUUUUUUUUUUUUUUUUUUUUUUUUUUUUUUUUUUUUUUUUUUUDDDDDDDGFGHHHHHHUUUUUUUUUUUUUUUUUUUUUUUUUUUUUUUUUUUUUUUUUUUUUUUUUUUUUUUUUUUUUUUU",
"UUUUUUUUUUUUUUUUUUUUUUUUUUUUUUUUUUUUUUUUUUUUUUUUDDSDDDDGGGHHHHHHUUUUUUUUUUUUUUUUUUUUUUUUUUUUUUUUUUUUUUUUUUUUUUUUUUUUUUUUUUUUUUUU",
"UUUUUUUUUUUUUUUUUUUUUUUUUUUUUUUUUUUUUUUUUUUUUUUUDDSDDDFFGGHHHHHHUUUUUUUUUUUUUUUUUUUUUUUUUUUUUUUUUUUUUUUUUUUUUUUUUUUUUUUUUUUUUUUU",
"UUUUUUUUUUUUUUUUUUUUUUUUUUUUUUUUUUUUUUUUUUUUUUUUSDDDDDDGGGGHHHHHUUUUUUUUUUUUUUUUUUUUUUUUUUUUUUUUUUUUUUUUUUUUUUUUUUUUUUUUUUUUUUUU",
"UUUUUUUUUUUUUUUUUUUUUUUUUUUUUUUUUUUUUUUUUUUUUUUUSDSDSFFFFGHHHHHHUUUUUUUUUUUUUUUUUUUUUUUUUUUUUUUUUUUUUUUUUUUUUUUUUUUUUUUUUUUUUUUU",
"UUUUUUUUUUUUUUUUUUUUUUUUUUUUUUUUUUUUUUUUUUUUUUUUDDSDDDFFGGHGHHHHUUUUUUUUUUUUUUUUUUUUUUUUUUUUUUUUUUUUUUUUUUUUUUUUUUUUUUUUUUUUUUUU",
"UUUUUUUUUUUUUUUUUUUUUUUUUUUUUUUUUUUUUUUUUUUUUUUUDDDDDDFFGGHHHHHHUUUUUUUUUUUUUUUUUUUUUUUUUUUUUUUUUUUUUUUUUUUUUUUUUUUUUUUUUUUUUUUU",
"UUUUUUUUUUUUUUUUUUUUUUUUUUUUUUUUUUUUUUUUUUUUUUUUDSDSSDFFGGGHHHHHUUUUUUUUUUUUUUUUUUUUUUUUUUUUUUUUUUUUUUUUUUUUUUUUUUUUUUUUUUUUUUUU",
"UUUUUUUUUUUUUUUUUUUUUUUUUUUUUUUUUUUUUUUUUUUUUUUUDDDDDDDFGGGHHHHHUUUUUUUUUUUUUUUUUUUUUUUUUUUUUUUUUUUUUUUUUUUUUUUUUUUUUUUUUUUUUUUU",
"UUUUUUUUUUUUUUUUUUUUUUUUUUUUUUUUUUUUUUUUUUUUUUUUSDSDDDFFGGHGHHHHUUUUUUUUUUUUUUUUUUUUUUUUUUUUUUUUUUUUUUUUUUUUUUUUUUUUUUUUUUUUUUUU",
"UUUUUUUUUUUUUUUUUUUUUUUUUUUUUUUUUUUUUUUUUUUUUUUUSDDDDDFFGGGHHHHHUUUUUUUUUUUUUUUUUUUUUUUUUUUUUUUUUUUUUUUUUUUUUUUUUUUUUUUUUUUUUUUU",
"UUUUUUUUUUUUUUUUUUUUUUUUUUUUUUUUUUUUUUUUUUUUUUUUDDSDDDFFGGHHHHHHUUUUUUUUUUUUUUUUUUUUUUUUUUUUUUUUUUUUUUUUUUUUUUUUUUUUUUUUUUUUUUUU",
"UUUUUUUUUUUUUUUUUUUUUUUUUUUUUUUUUUUUUUUUUUUUUUUUDDDSDDFFGGHHHHHHUUUUUUUUUUUUUUUUUUUUUUUUUUUUUUUUUUUUUUUUUUUUUUUUUUUUUUUUUUUUUUUU",
"UUUUUUUUUUUUUUUUUUUUUUUUUUUUUUUUUUUUUUUUUUUUUUUUDSDDDDFFGGHHHHHHUUUUUUUUUUUUUUUUUUUUUUUUUUUUUUUUUUUUUUUUUUUUUUUUUUUUUUUUUUUUUUUU"
};
